<svg width="65" height="65" viewBox="0 0 65 65" fill="none" xmlns="http://www.w3.org/2000/svg">
<g clip-path="url(#clip0_54_41203)">
<rect x="0.763184" y="0.281281" width="64" height="64" rx="32" fill="white"/>
<rect width="64" height="64" transform="translate(0.763184 0.281281)" fill="#DAFE9A"/>
<g clip-path="url(#clip1_54_41203)">
<rect x="12.7632" y="24.2813" width="2" height="2" fill="black"/>
<rect x="14.7632" y="22.2813" width="2" height="2" fill="black"/>
<rect x="14.7632" y="20.2813" width="2" height="2" fill="black"/>
<rect x="16.7632" y="18.2813" width="2" height="2" fill="black"/>
<rect x="18.7631" y="16.2813" width="2" height="2" fill="black"/>
<rect x="20.7632" y="14.2813" width="2" height="2" fill="black"/>
<rect x="22.7632" y="14.2813" width="2" height="2" fill="black"/>
<rect x="24.7632" y="12.2813" width="2" height="2" fill="black"/>
<rect x="22.7632" y="50.2813" width="2" height="2" fill="black"/>
<rect x="26.7631" y="12.2813" width="2" height="2" fill="black"/>
<rect x="28.7632" y="12.2813" width="2" height="2" fill="black"/>
<rect x="30.7632" y="12.2813" width="2" height="2" fill="black"/>
<rect x="32.7632" y="12.2813" width="2" height="2" fill="black"/>
<rect x="32.7632" y="50.2813" width="2" height="2" fill="black"/>
<rect x="34.7631" y="12.2813" width="2" height="2" fill="black"/>
<rect x="34.7631" y="50.2813" width="2" height="2" fill="black"/>
<rect x="36.7632" y="12.2813" width="2" height="2" fill="black"/>
<rect x="36.7632" y="50.2813" width="2" height="2" fill="black"/>
<rect x="38.7632" y="12.2813" width="2" height="2" fill="black"/>
<rect x="40.7632" y="50.2813" width="2" height="2" fill="black"/>
<rect x="40.7632" y="14.2813" width="2" height="2" fill="black"/>
<rect x="42.7631" y="14.2813" width="2" height="2" fill="black"/>
<rect x="12.7632" y="26.2813" width="2" height="2" fill="black"/>
<rect x="12.7632" y="28.2813" width="2" height="2" fill="black"/>
<rect x="12.7632" y="30.2813" width="2" height="2" fill="black"/>
<rect x="12.7632" y="32.2813" width="2" height="2" fill="black"/>
<rect x="12.7632" y="34.2813" width="2" height="2" fill="black"/>
<rect x="12.7632" y="36.2813" width="2" height="2" fill="black"/>
<rect x="12.7632" y="38.2813" width="2" height="2" fill="black"/>
<rect x="14.7632" y="40.2813" width="2" height="2" fill="black"/>
<rect x="14.7632" y="42.2813" width="2" height="2" fill="black"/>
<rect x="16.7632" y="44.2812" width="2" height="2" fill="black"/>
<rect x="18.7631" y="46.2813" width="2" height="2" fill="black"/>
<rect x="20.7632" y="48.2812" width="2" height="2" fill="black"/>
<rect x="42.7631" y="48.2812" width="2" height="2" fill="black"/>
<rect x="50.7631" y="38.2813" width="2" height="2" fill="black"/>
<rect x="48.7632" y="42.2813" width="2" height="2" fill="black"/>
<rect x="46.7632" y="44.2812" width="2" height="2" fill="black"/>
<rect x="44.7632" y="46.2813" width="2" height="2" fill="black"/>
<rect x="50.7631" y="24.2813" width="2" height="2" fill="black"/>
<rect x="50.7631" y="26.2813" width="2" height="2" fill="black"/>
<rect x="50.7631" y="28.2813" width="2" height="2" fill="black"/>
<rect x="50.7631" y="30.2813" width="2" height="2" fill="black"/>
<rect x="48.7632" y="40.2813" width="2" height="2" fill="black"/>
<rect x="50.7631" y="30.2813" width="2" height="2" fill="black"/>
<rect x="48.7632" y="22.2813" width="2" height="2" fill="black"/>
<rect x="48.7632" y="20.2813" width="2" height="2" fill="black"/>
<rect x="44.7632" y="16.2813" width="2" height="2" fill="black"/>
<rect x="46.7632" y="18.2813" width="2" height="2" fill="black"/>
<rect x="50.7631" y="36.2813" width="2" height="2" fill="black"/>
<rect x="50.7631" y="34.2813" width="2" height="2" fill="black"/>
<rect x="50.7631" y="32.2813" width="2" height="2" fill="black"/>
<rect x="20.7632" y="54.2813" width="2" height="2" fill="black"/>
<rect x="22.7632" y="52.2812" width="2" height="2" fill="black"/>
<rect x="42.7631" y="52.2812" width="2" height="2" fill="black"/>
<rect x="44.7632" y="52.2812" width="2" height="2" fill="black"/>
<rect x="46.7632" y="54.2813" width="2" height="2" fill="black"/>
<rect x="48.7632" y="54.2813" width="2" height="2" fill="black"/>
<rect x="52.7632" y="58.2813" width="2" height="2" fill="black"/>
<rect x="54.7632" y="60.2812" width="2" height="2" fill="black"/>
<rect x="56.7632" y="62.2813" width="2" height="2" fill="black"/>
<rect x="50.7631" y="56.2812" width="2" height="2" fill="black"/>
<rect x="18.7631" y="54.2813" width="2" height="2" fill="black"/>
<rect x="16.7632" y="56.2812" width="2" height="2" fill="black"/>
<rect x="12.7632" y="58.2813" width="2" height="2" fill="black"/>
<rect x="10.7631" y="60.2812" width="2" height="2" fill="black"/>
<rect x="12.7632" y="58.2813" width="2" height="2" fill="black"/>
<rect x="14.7632" y="56.2812" width="2" height="2" fill="black"/>
<rect x="8.76318" y="62.2813" width="2" height="2" fill="black"/>
<rect x="6.76318" y="62.2813" width="2" height="2" fill="black"/>
</g>
<rect x="8.76318" y="38.2813" width="2" height="2" fill="black"/>
<rect x="8.76318" y="36.2813" width="2" height="2" fill="black"/>
<rect x="8.76318" y="34.2813" width="2" height="2" fill="black"/>
<rect x="8.76318" y="32.2813" width="2" height="2" fill="black"/>
<rect x="8.76318" y="30.2813" width="2" height="2" fill="black"/>
<rect x="8.76318" y="28.2813" width="2" height="2" fill="black"/>
<rect x="8.76318" y="26.2813" width="2" height="2" fill="black"/>
<rect x="8.76318" y="24.2813" width="2" height="2" fill="black"/>
<rect x="8.76318" y="22.2813" width="2" height="2" fill="black"/>
<rect x="10.7631" y="20.2813" width="2" height="2" fill="black"/>
<rect x="10.7631" y="18.2813" width="2" height="2" fill="black"/>
<rect x="12.7632" y="16.2813" width="2" height="2" fill="black"/>
<rect x="14.7632" y="14.2813" width="2" height="2" fill="black"/>
<rect x="16.7632" y="12.2813" width="2" height="2" fill="black"/>
<rect x="18.7631" y="10.2813" width="2" height="2" fill="black"/>
<rect x="22.7632" y="8.28128" width="2" height="2" fill="black"/>
<rect x="24.7632" y="8.28128" width="2" height="2" fill="black"/>
<rect x="26.7631" y="8.28128" width="2" height="2" fill="black"/>
<rect x="28.7632" y="8.28128" width="2" height="2" fill="black"/>
<rect x="30.7632" y="8.28128" width="2" height="2" fill="black"/>
<rect x="32.7632" y="8.28128" width="2" height="2" fill="black"/>
<rect x="34.7631" y="8.28128" width="2" height="2" fill="black"/>
<rect x="36.7632" y="8.28128" width="2" height="2" fill="black"/>
<rect x="38.7632" y="8.28128" width="2" height="2" fill="black"/>
<rect x="40.7632" y="8.28128" width="2" height="2" fill="black"/>
<rect x="42.7631" y="10.2813" width="2" height="2" fill="black"/>
<rect x="44.7632" y="10.2813" width="2" height="2" fill="black"/>
<rect x="46.7632" y="12.2813" width="2" height="2" fill="black"/>
<rect x="48.7632" y="14.2813" width="2" height="2" fill="black"/>
<rect x="50.7631" y="16.2813" width="2" height="2" fill="black"/>
<rect x="52.7632" y="18.2813" width="2" height="2" fill="black"/>
<rect x="52.7632" y="20.2813" width="2" height="2" fill="black"/>
<rect x="54.7632" y="22.2813" width="2" height="2" fill="black"/>
<rect x="54.7632" y="24.2813" width="2" height="2" fill="black"/>
<rect x="54.7632" y="26.2813" width="2" height="2" fill="black"/>
<rect x="54.7632" y="28.2813" width="2" height="2" fill="black"/>
<rect x="54.7632" y="30.2813" width="2" height="2" fill="black"/>
<rect x="54.7632" y="32.2813" width="2" height="2" fill="black"/>
<rect x="54.7632" y="34.2813" width="2" height="2" fill="black"/>
<rect x="54.7632" y="36.2813" width="2" height="2" fill="black"/>
<rect x="54.7632" y="38.2813" width="2" height="2" fill="black"/>
<rect x="54.7632" y="40.2813" width="2" height="2" fill="black"/>
<rect x="20.7632" y="10.2813" width="2" height="2" fill="black"/>
<rect x="8.76318" y="40.2813" width="2" height="2" fill="black"/>
<rect x="10.7631" y="44.2812" width="2" height="2" fill="black"/>
<rect x="16.7632" y="50.2813" width="2" height="2" fill="black"/>
<rect x="14.7632" y="54.2813" width="2" height="2" fill="black"/>
<rect x="12.7632" y="52.2812" width="2" height="2" fill="black"/>
<rect x="4.76324" y="56.2812" width="2" height="2" fill="black"/>
<rect x="10.7631" y="50.2813" width="2" height="2" fill="black"/>
<rect x="8.76318" y="54.2813" width="2" height="2" fill="black"/>
<rect x="8.76318" y="48.2812" width="2" height="2" fill="black"/>
<rect x="6.76318" y="52.2812" width="2" height="2" fill="black"/>
<rect x="6.76318" y="46.2813" width="2" height="2" fill="black"/>
<rect x="6.76318" y="44.2812" width="2" height="2" fill="black"/>
<rect x="4.76324" y="42.2813" width="2" height="2" fill="black"/>
<rect x="4.76324" y="40.2813" width="2" height="2" fill="black"/>
<rect x="4.76324" y="38.2813" width="2" height="2" fill="black"/>
<rect x="4.76324" y="36.2813" width="2" height="2" fill="black"/>
<rect x="4.76324" y="34.2813" width="2" height="2" fill="black"/>
<rect x="4.76324" y="32.2813" width="2" height="2" fill="black"/>
<rect x="4.76324" y="30.2813" width="2" height="2" fill="black"/>
<rect x="4.76324" y="28.2813" width="2" height="2" fill="black"/>
<rect x="4.76324" y="26.2813" width="2" height="2" fill="black"/>
<rect x="4.76324" y="24.2813" width="2" height="2" fill="black"/>
<rect x="4.76324" y="22.2813" width="2" height="2" fill="black"/>
<rect x="4.76324" y="20.2813" width="2" height="2" fill="black"/>
<rect x="6.76318" y="18.2813" width="2" height="2" fill="black"/>
<rect x="6.76318" y="16.2813" width="2" height="2" fill="black"/>
<rect x="8.76318" y="14.2813" width="2" height="2" fill="black"/>
<rect x="4.76324" y="12.2813" width="2" height="2" fill="black"/>
<rect x="10.7631" y="12.2813" width="2" height="2" fill="black"/>
<rect x="6.76318" y="10.2813" width="2" height="2" fill="black"/>
<rect x="12.7632" y="10.2813" width="2" height="2" fill="black"/>
<rect x="8.76318" y="8.28128" width="2" height="2" fill="black"/>
<rect x="4.76324" y="6.28131" width="2" height="2" fill="black"/>
<rect x="14.7632" y="8.28128" width="2" height="2" fill="black"/>
<rect x="10.7631" y="6.28131" width="2" height="2" fill="black"/>
<rect x="16.7632" y="6.28131" width="2" height="2" fill="black"/>
<rect x="18.7631" y="6.28131" width="2" height="2" fill="black"/>
<rect x="20.7632" y="4.28128" width="2" height="2" fill="black"/>
<rect x="22.7632" y="4.28128" width="2" height="2" fill="black"/>
<rect x="24.7632" y="4.28128" width="2" height="2" fill="black"/>
<rect x="26.7631" y="4.28128" width="2" height="2" fill="black"/>
<rect x="28.7632" y="4.28128" width="2" height="2" fill="black"/>
<rect x="30.7632" y="4.28128" width="2" height="2" fill="black"/>
<rect x="32.7632" y="4.28128" width="2" height="2" fill="black"/>
<rect x="34.7631" y="4.28128" width="2" height="2" fill="black"/>
<rect x="36.7632" y="4.28128" width="2" height="2" fill="black"/>
<rect x="38.7632" y="4.28128" width="2" height="2" fill="black"/>
<rect x="40.7632" y="4.28128" width="2" height="2" fill="black"/>
<rect x="42.7631" y="4.28128" width="2" height="2" fill="black"/>
<rect x="44.7632" y="6.28131" width="2" height="2" fill="black"/>
<rect x="46.7632" y="6.28131" width="2" height="2" fill="black"/>
<rect x="48.7632" y="8.28128" width="2" height="2" fill="black"/>
<rect x="50.7631" y="4.28128" width="2" height="2" fill="black"/>
<rect x="52.7632" y="6.28131" width="2" height="2" fill="black"/>
<rect x="56.7632" y="4.28128" width="2" height="2" fill="black"/>
<rect x="54.7632" y="8.28128" width="2" height="2" fill="black"/>
<rect x="58.7631" y="6.28131" width="2" height="2" fill="black"/>
<rect x="56.7632" y="10.2813" width="2" height="2" fill="black"/>
<rect x="58.7631" y="12.2813" width="2" height="2" fill="black"/>
<rect x="50.7631" y="10.2813" width="2" height="2" fill="black"/>
<rect x="52.7632" y="12.2813" width="2" height="2" fill="black"/>
<rect x="54.7632" y="14.2813" width="2" height="2" fill="black"/>
<rect x="56.7632" y="16.2813" width="2" height="2" fill="black"/>
<rect x="56.7632" y="18.2813" width="2" height="2" fill="black"/>
<rect x="58.7631" y="20.2813" width="2" height="2" fill="black"/>
<rect x="58.7631" y="22.2813" width="2" height="2" fill="black"/>
<rect x="58.7631" y="24.2813" width="2" height="2" fill="black"/>
<rect x="58.7631" y="26.2813" width="2" height="2" fill="black"/>
<rect x="58.7631" y="28.2813" width="2" height="2" fill="black"/>
<rect x="58.7631" y="30.2813" width="2" height="2" fill="black"/>
<rect x="58.7631" y="32.2813" width="2" height="2" fill="black"/>
<rect x="58.7631" y="34.2813" width="2" height="2" fill="black"/>
<rect x="58.7631" y="36.2813" width="2" height="2" fill="black"/>
<rect x="58.7631" y="38.2813" width="2" height="2" fill="black"/>
<rect x="58.7631" y="40.2813" width="2" height="2" fill="black"/>
<rect x="58.7631" y="42.2813" width="2" height="2" fill="black"/>
<rect x="56.7632" y="44.2812" width="2" height="2" fill="black"/>
<rect x="56.7632" y="46.2813" width="2" height="2" fill="black"/>
<rect x="54.7632" y="48.2812" width="2" height="2" fill="black"/>
<rect x="56.7632" y="52.2812" width="2" height="2" fill="black"/>
<rect x="58.7631" y="56.2812" width="2" height="2" fill="black"/>
<rect x="52.7632" y="50.2813" width="2" height="2" fill="black"/>
<rect x="54.7632" y="54.2813" width="2" height="2" fill="black"/>
<rect x="18.7631" y="52.2812" width="2" height="2" fill="black"/>
<rect x="14.7632" y="48.2812" width="2" height="2" fill="black"/>
<rect x="12.7632" y="46.2813" width="2" height="2" fill="black"/>
<rect x="48.7632" y="48.2812" width="2" height="2" fill="black"/>
<rect x="46.7632" y="50.2813" width="2" height="2" fill="black"/>
<rect x="50.7631" y="52.2812" width="2" height="2" fill="black"/>
<rect x="50.7631" y="46.2813" width="2" height="2" fill="black"/>
<rect x="52.7632" y="42.2813" width="2" height="2" fill="black"/>
<rect x="52.7632" y="44.2812" width="2" height="2" fill="black"/>
<rect width="2" height="2" transform="matrix(1 0 0 -1 10.7631 44.2812)" fill="black"/>
<rect x="20.7632" y="38.2813" width="2" height="2" fill="black"/>
<rect x="18.7631" y="36.2813" width="2" height="2" fill="black"/>
<rect x="34.7631" y="38.2813" width="2" height="2" fill="black"/>
<rect x="38.7632" y="40.2813" width="2" height="2" fill="black"/>
<rect x="30.7632" y="40.2813" width="2" height="2" fill="black"/>
<rect x="40.7632" y="38.2813" width="2" height="2" fill="black"/>
<rect x="32.7632" y="38.2813" width="2" height="2" fill="black"/>
<rect x="36.7632" y="38.2813" width="2" height="2" fill="black"/>
<rect x="28.7632" y="38.2813" width="2" height="2" fill="black"/>
<rect x="30.7632" y="28.2813" width="2" height="2" fill="black"/>
<rect x="28.7632" y="32.2813" width="2" height="2" fill="black"/>
<rect x="30.7632" y="30.2813" width="2" height="2" fill="black"/>
<rect x="26.7631" y="28.2813" width="2" height="2" fill="black"/>
<rect x="26.7631" y="26.2813" width="2" height="2" fill="black"/>
<rect x="26.7631" y="30.2813" width="2" height="2" fill="black"/>
<rect x="38.7632" y="28.2813" width="2" height="2" fill="black"/>
<rect x="30.7632" y="26.2813" width="2" height="2" fill="black"/>
<rect x="26.7631" y="24.2813" width="2" height="2" fill="black"/>
<rect x="24.7632" y="24.2813" width="2" height="2" fill="black"/>
<rect x="22.7632" y="26.2813" width="2" height="2" fill="black"/>
<rect x="22.7632" y="28.2813" width="2" height="2" fill="black"/>
<rect x="22.7632" y="30.2813" width="2" height="2" fill="black"/>
<rect x="24.7632" y="32.2813" width="2" height="2" fill="black"/>
<rect x="26.7631" y="32.2813" width="2" height="2" fill="black"/>
<rect x="28.7632" y="24.2813" width="2" height="2" fill="black"/>
<rect x="38.7632" y="26.2813" width="2" height="2" fill="black"/>
<rect x="42.7631" y="24.2813" width="2" height="2" fill="black"/>
<rect x="42.7631" y="28.2813" width="2" height="2" fill="black"/>
<rect x="42.7631" y="26.2813" width="2" height="2" fill="black"/>
<rect x="42.7631" y="30.2813" width="2" height="2" fill="black"/>
<rect x="40.7632" y="24.2813" width="2" height="2" fill="black"/>
<rect x="44.7632" y="24.2813" width="2" height="2" fill="black"/>
<rect x="46.7632" y="26.2813" width="2" height="2" fill="black"/>
<rect x="46.7632" y="28.2813" width="2" height="2" fill="black"/>
<rect x="46.7632" y="30.2813" width="2" height="2" fill="black"/>
<rect x="44.7632" y="32.2813" width="2" height="2" fill="black"/>
<rect x="42.7631" y="32.2813" width="2" height="2" fill="black"/>
<rect x="40.7632" y="32.2813" width="2" height="2" fill="black"/>
<rect x="38.7632" y="30.2813" width="2" height="2" fill="black"/>
</g>
<rect x="2.28624" y="1.80433" width="60.9539" height="60.9539" rx="30.4769" stroke="#5C644F" stroke-width="3.0461"/>
<defs>
<clipPath id="clip0_54_41203">
<rect x="0.763184" y="0.281281" width="64" height="64" rx="32" fill="white"/>
</clipPath>
<clipPath id="clip1_54_41203">
<rect width="64" height="64" fill="white" transform="translate(0.763184 0.281281)"/>
</clipPath>
</defs>
</svg>
