<svg width="36" height="50" viewBox="0 0 36 50" fill="none" xmlns="http://www.w3.org/2000/svg">
<path d="M35.2328 11.7188H32.8921V23.453H35.2328V11.7188Z" fill="#DAFE9A"/>
<path d="M32.892 23.4531H30.5513V30.4906H32.892V23.4531Z" fill="#DAFE9A"/>
<path d="M32.892 7.03735H30.5513V11.7187H32.892V7.03735Z" fill="#DAFE9A"/>
<path d="M30.5514 30.4905H28.1953V35.1873H30.5514V30.4905Z" fill="#DAFE9A"/>
<path d="M30.5514 4.6814H28.1953V7.03748H30.5514V4.6814Z" fill="#DAFE9A"/>
<path d="M28.1952 35.1873H25.8545V39.884H28.1952V35.1873Z" fill="#DAFE9A"/>
<path d="M25.8547 18.7716H23.514V14.0748H21.1579V11.7187H18.8172V9.37804H21.1579V7.03735H14.1205V9.37804H11.7798V11.7187H9.42369V14.0748H7.08301V21.1123H9.42369V23.453H11.7798V25.809H14.1205V28.1497H21.1579V25.809H23.514V23.453H25.8547V21.1123H28.1954V14.0748H25.8547V18.7716Z" fill="#DAFE9A"/>
<path d="M25.8548 39.884H23.5142V42.2247H25.8548V39.884Z" fill="#DAFE9A"/>
<path d="M25.8548 11.7188H23.5142V14.0748H25.8548V11.7188Z" fill="#DAFE9A"/>
<path d="M28.1955 2.34082H23.5142V4.68151H28.1955V2.34082Z" fill="#DAFE9A"/>
<path d="M23.5138 42.2249H21.1577V44.5809H23.5138V42.2249Z" fill="#DAFE9A"/>
<path d="M23.5138 9.37817H21.1577V11.7189H23.5138V9.37817Z" fill="#DAFE9A"/>
<path d="M21.1576 44.5808H18.8169V46.9215H21.1576V44.5808Z" fill="#DAFE9A"/>
<path d="M18.817 46.9216H16.4609V49.2777H18.817V46.9216Z" fill="#DAFE9A"/>
<path d="M16.4608 44.5808H14.1201V46.9215H16.4608V44.5808Z" fill="#DAFE9A"/>
<path d="M23.514 0H11.7798V2.34069H23.514V0Z" fill="#DAFE9A"/>
<path d="M14.1205 42.2249H11.7798V44.5809H14.1205V42.2249Z" fill="#DAFE9A"/>
<path d="M11.7799 39.884H9.42383V42.2247H11.7799V39.884Z" fill="#DAFE9A"/>
<path d="M11.7798 2.34082H7.08301V4.68151H11.7798V2.34082Z" fill="#DAFE9A"/>
<path d="M9.42369 35.1873H7.08301V39.884H9.42369V35.1873Z" fill="#DAFE9A"/>
<path d="M7.08265 30.4905H4.72656V35.1873H7.08265V30.4905Z" fill="#DAFE9A"/>
<path d="M7.08265 4.6814H4.72656V7.03748H7.08265V4.6814Z" fill="#DAFE9A"/>
<path d="M4.72692 23.4531H2.38623V30.4906H4.72692V23.4531Z" fill="#DAFE9A"/>
<path d="M4.72692 7.03735H2.38623V11.7187H4.72692V7.03735Z" fill="#DAFE9A"/>
<path d="M2.3861 11.7188H0.0454102V23.453H2.3861V11.7188Z" fill="#DAFE9A"/>
</svg>
