<svg width="211" height="56" viewBox="0 0 211 56" fill="none" xmlns="http://www.w3.org/2000/svg">
<path d="M169.33 18.7041C169.33 18.3553 169.613 18.0725 169.961 18.0725H171.856C172.205 18.0725 172.488 18.3553 172.488 18.7041V20.5989C172.488 20.9477 172.205 21.2305 171.856 21.2305H169.961C169.613 21.2305 169.33 20.9477 169.33 20.5989V18.7041Z" fill="#DAFE9A"/>
<path d="M169.33 38.0249C169.33 38.3737 169.613 38.6565 169.961 38.6565H171.856C172.205 38.6565 172.488 38.3737 172.488 38.0249V36.1301C172.488 35.7813 172.205 35.4985 171.856 35.4985H169.961C169.613 35.4985 169.33 35.7813 169.33 36.1301V38.0249Z" fill="#DAFE9A"/>
<path d="M169.33 22.9897C169.33 22.6409 169.613 22.3581 169.961 22.3581H171.856C172.205 22.3581 172.488 22.6409 172.488 22.9897V24.8845C172.488 25.2333 172.205 25.5161 171.856 25.5161H169.961C169.613 25.5161 169.33 25.2333 169.33 24.8845V22.9897Z" fill="#DAFE9A"/>
<path d="M169.33 33.7393C169.33 34.0881 169.613 34.3709 169.961 34.3709H171.856C172.205 34.3709 172.488 34.0881 172.488 33.7393V31.8445C172.488 31.4957 172.205 31.2129 171.856 31.2129H169.961C169.613 31.2129 169.33 31.4957 169.33 31.8445V33.7393Z" fill="#DAFE9A"/>
<path d="M172.67 22.9897C172.67 22.6409 172.953 22.3581 173.302 22.3581H175.196C175.545 22.3581 175.828 22.6409 175.828 22.9897V24.8845C175.828 25.2333 175.545 25.5161 175.196 25.5161H173.302C172.953 25.5161 172.67 25.2333 172.67 24.8845V22.9897Z" fill="#DAFE9A"/>
<path d="M172.67 33.7393C172.67 34.0881 172.953 34.3709 173.302 34.3709H175.196C175.545 34.3709 175.828 34.0881 175.828 33.7393V31.8445C175.828 31.4957 175.545 31.2129 175.196 31.2129H173.302C172.953 31.2129 172.67 31.4957 172.67 31.8445V33.7393Z" fill="#DAFE9A"/>
<path d="M172.67 27.3698C172.67 27.021 172.953 26.7382 173.302 26.7382H175.196C175.545 26.7382 175.828 27.021 175.828 27.3698V29.2646C175.828 29.6134 175.545 29.8962 175.196 29.8962H173.302C172.953 29.8962 172.67 29.6134 172.67 29.2646V27.3698Z" fill="#DAFE9A"/>
<path d="M176.199 27.3698C176.199 27.021 176.482 26.7382 176.831 26.7382H178.726C179.075 26.7382 179.357 27.021 179.357 27.3698V29.2646C179.357 29.6134 179.075 29.8962 178.726 29.8962H176.831C176.482 29.8962 176.199 29.6134 176.199 29.2646V27.3698Z" fill="#DAFE9A"/>
<path d="M165.801 18.7041C165.801 18.3553 166.083 18.0725 166.432 18.0725H168.327C168.676 18.0725 168.959 18.3553 168.959 18.7041V20.5989C168.959 20.9477 168.676 21.2305 168.327 21.2305H166.432C166.083 21.2305 165.801 20.9477 165.801 20.5989V18.7041Z" fill="#DAFE9A"/>
<path d="M165.801 38.0249C165.801 38.3737 166.083 38.6565 166.432 38.6565H168.327C168.676 38.6565 168.959 38.3737 168.959 38.0249V36.1301C168.959 35.7813 168.676 35.4985 168.327 35.4985H166.432C166.083 35.4985 165.801 35.7813 165.801 36.1301V38.0249Z" fill="#DAFE9A"/>
<path d="M184.746 18.7041C184.746 18.3553 185.029 18.0725 185.378 18.0725H187.273C187.622 18.0725 187.904 18.3553 187.904 18.7041V20.5989C187.904 20.9477 187.622 21.2305 187.273 21.2305H185.378C185.029 21.2305 184.746 20.9477 184.746 20.5989V18.7041Z" fill="#DAFE9A"/>
<path d="M184.746 38.0249C184.746 38.3737 185.029 38.6565 185.378 38.6565H187.273C187.621 38.6565 187.904 38.3737 187.904 38.0249V36.1301C187.904 35.7813 187.621 35.4985 187.273 35.4985H185.378C185.029 35.4985 184.746 35.7813 184.746 36.1301V38.0249Z" fill="#DAFE9A"/>
<path d="M184.746 22.9897C184.746 22.6409 185.029 22.3581 185.378 22.3581H187.273C187.622 22.3581 187.904 22.6409 187.904 22.9897V24.8845C187.904 25.2333 187.622 25.5161 187.273 25.5161H185.378C185.029 25.5161 184.746 25.2333 184.746 24.8845V22.9897Z" fill="#DAFE9A"/>
<path d="M184.746 33.7393C184.746 34.0881 185.029 34.3709 185.378 34.3709H187.273C187.621 34.3709 187.904 34.0881 187.904 33.7393V31.8445C187.904 31.4957 187.621 31.2129 187.273 31.2129H185.378C185.029 31.2129 184.746 31.4957 184.746 31.8445V33.7393Z" fill="#DAFE9A"/>
<path d="M188.087 22.9897C188.087 22.6409 188.369 22.3581 188.718 22.3581H190.613C190.962 22.3581 191.245 22.6409 191.245 22.9897V24.8845C191.245 25.2333 190.962 25.5161 190.613 25.5161H188.718C188.369 25.5161 188.087 25.2333 188.087 24.8845V22.9897Z" fill="#DAFE9A"/>
<path d="M188.087 33.7393C188.087 34.0881 188.369 34.3709 188.718 34.3709H190.613C190.962 34.3709 191.245 34.0881 191.245 33.7393V31.8445C191.245 31.4957 190.962 31.2129 190.613 31.2129H188.718C188.369 31.2129 188.087 31.4957 188.087 31.8445V33.7393Z" fill="#DAFE9A"/>
<path d="M188.087 27.3698C188.087 27.021 188.369 26.7382 188.718 26.7382H190.613C190.962 26.7382 191.245 27.021 191.245 27.3698V29.2646C191.245 29.6134 190.962 29.8962 190.613 29.8962H188.718C188.369 29.8962 188.087 29.6134 188.087 29.2646V27.3698Z" fill="#DAFE9A"/>
<path d="M191.616 27.3698C191.616 27.021 191.899 26.7382 192.247 26.7382H194.142C194.491 26.7382 194.774 27.021 194.774 27.3698V29.2646C194.774 29.6134 194.491 29.8962 194.142 29.8962H192.247C191.899 29.8962 191.616 29.6134 191.616 29.2646V27.3698Z" fill="#DAFE9A"/>
<path d="M181.217 18.7041C181.217 18.3553 181.5 18.0725 181.849 18.0725H183.743C184.092 18.0725 184.375 18.3553 184.375 18.7041V20.5989C184.375 20.9477 184.092 21.2305 183.743 21.2305H181.849C181.5 21.2305 181.217 20.9477 181.217 20.5989V18.7041Z" fill="#DAFE9A"/>
<path d="M181.217 38.0249C181.217 38.3737 181.5 38.6565 181.849 38.6565H183.743C184.092 38.6565 184.375 38.3737 184.375 38.0249V36.1301C184.375 35.7813 184.092 35.4985 183.743 35.4985H181.849C181.5 35.4985 181.217 35.7813 181.217 36.1301V38.0249Z" fill="#DAFE9A"/>
<path d="M200.163 18.7041C200.163 18.3553 200.446 18.0725 200.794 18.0725H202.689C203.038 18.0725 203.321 18.3553 203.321 18.7041V20.5989C203.321 20.9477 203.038 21.2305 202.689 21.2305H200.794C200.446 21.2305 200.163 20.9477 200.163 20.5989V18.7041Z" fill="#DAFE9A"/>
<path d="M200.163 38.0249C200.163 38.3737 200.446 38.6565 200.794 38.6565H202.689C203.038 38.6565 203.321 38.3737 203.321 38.0249V36.1301C203.321 35.7813 203.038 35.4985 202.689 35.4985H200.794C200.446 35.4985 200.163 35.7813 200.163 36.1301V38.0249Z" fill="#DAFE9A"/>
<path d="M200.163 22.9897C200.163 22.6409 200.446 22.3581 200.794 22.3581H202.689C203.038 22.3581 203.321 22.6409 203.321 22.9897V24.8845C203.321 25.2333 203.038 25.5161 202.689 25.5161H200.794C200.446 25.5161 200.163 25.2333 200.163 24.8845V22.9897Z" fill="#DAFE9A"/>
<path d="M200.163 33.7393C200.163 34.0881 200.446 34.3709 200.794 34.3709H202.689C203.038 34.3709 203.321 34.0881 203.321 33.7393V31.8445C203.321 31.4957 203.038 31.2129 202.689 31.2129H200.794C200.446 31.2129 200.163 31.4957 200.163 31.8445V33.7393Z" fill="#DAFE9A"/>
<path d="M203.503 22.9897C203.503 22.6409 203.786 22.3581 204.135 22.3581H206.029C206.378 22.3581 206.661 22.6409 206.661 22.9897V24.8845C206.661 25.2333 206.378 25.5161 206.029 25.5161H204.135C203.786 25.5161 203.503 25.2333 203.503 24.8845V22.9897Z" fill="#DAFE9A"/>
<path d="M203.503 33.7393C203.503 34.0881 203.786 34.3709 204.135 34.3709H206.029C206.378 34.3709 206.661 34.0881 206.661 33.7393V31.8445C206.661 31.4957 206.378 31.2129 206.029 31.2129H204.135C203.786 31.2129 203.503 31.4957 203.503 31.8445V33.7393Z" fill="#DAFE9A"/>
<path d="M203.503 27.3698C203.503 27.021 203.786 26.7382 204.135 26.7382H206.029C206.378 26.7382 206.661 27.021 206.661 27.3698V29.2646C206.661 29.6134 206.378 29.8962 206.029 29.8962H204.135C203.786 29.8962 203.503 29.6134 203.503 29.2646V27.3698Z" fill="#DAFE9A"/>
<path d="M207.032 27.3698C207.032 27.021 207.315 26.7382 207.664 26.7382H209.559C209.908 26.7382 210.19 27.021 210.19 27.3698V29.2646C210.19 29.6134 209.908 29.8962 209.559 29.8962H207.664C207.315 29.8962 207.032 29.6134 207.032 29.2646V27.3698Z" fill="#DAFE9A"/>
<path d="M196.634 18.7041C196.634 18.3553 196.916 18.0725 197.265 18.0725H199.16C199.509 18.0725 199.792 18.3553 199.792 18.7041V20.5989C199.792 20.9477 199.509 21.2305 199.16 21.2305H197.265C196.916 21.2305 196.634 20.9477 196.634 20.5989V18.7041Z" fill="#DAFE9A"/>
<path d="M196.634 38.0249C196.634 38.3737 196.916 38.6565 197.265 38.6565H199.16C199.509 38.6565 199.792 38.3737 199.792 38.0249V36.1301C199.792 35.7813 199.509 35.4985 199.16 35.4985H197.265C196.916 35.4985 196.634 35.7813 196.634 36.1301V38.0249Z" fill="#DAFE9A"/>
<g clip-path="url(#clip0_173_32465)">
<rect x="124.142" y="11.8701" width="32.9891" height="32.9891" rx="13.2508" fill="white"/>
<rect width="32.9891" height="32.9891" transform="translate(124.142 11.8701)" fill="#EF7A61"/>
<g clip-path="url(#clip1_173_32465)">
<rect x="130.328" y="24.241" width="1.03091" height="1.03091" fill="black"/>
<rect x="131.359" y="23.2102" width="1.03091" height="1.03091" fill="black"/>
<rect x="131.359" y="22.1792" width="1.03091" height="1.03091" fill="black"/>
<rect x="132.389" y="21.1482" width="1.03091" height="1.03091" fill="black"/>
<rect x="133.42" y="20.1174" width="1.03091" height="1.03091" fill="black"/>
<rect x="134.451" y="19.0864" width="1.03091" height="1.03091" fill="black"/>
<rect x="135.482" y="19.0864" width="1.03091" height="1.03091" fill="black"/>
<rect x="136.513" y="18.0554" width="1.03091" height="1.03091" fill="black"/>
<rect x="135.482" y="37.6428" width="1.03091" height="1.03091" fill="black"/>
<rect x="137.544" y="18.0554" width="1.03091" height="1.03091" fill="black"/>
<rect x="138.575" y="18.0554" width="1.03091" height="1.03091" fill="black"/>
<rect x="139.606" y="18.0554" width="1.03091" height="1.03091" fill="black"/>
<rect x="140.637" y="18.0554" width="1.03091" height="1.03091" fill="black"/>
<rect x="140.637" y="37.6428" width="1.03091" height="1.03091" fill="black"/>
<rect x="141.668" y="18.0554" width="1.03091" height="1.03091" fill="black"/>
<rect x="141.668" y="37.6428" width="1.03091" height="1.03091" fill="black"/>
<rect x="142.699" y="18.0554" width="1.03091" height="1.03091" fill="black"/>
<rect x="142.699" y="37.6428" width="1.03091" height="1.03091" fill="black"/>
<rect x="143.729" y="18.0554" width="1.03091" height="1.03091" fill="black"/>
<rect x="144.76" y="37.6428" width="1.03091" height="1.03091" fill="black"/>
<rect x="144.76" y="19.0864" width="1.03091" height="1.03091" fill="black"/>
<rect x="145.791" y="19.0864" width="1.03091" height="1.03091" fill="black"/>
<rect x="130.328" y="25.272" width="1.03091" height="1.03091" fill="black"/>
<rect x="130.328" y="26.3027" width="1.03091" height="1.03091" fill="black"/>
<rect x="130.328" y="27.3337" width="1.03091" height="1.03091" fill="black"/>
<rect x="130.328" y="28.3647" width="1.03091" height="1.03091" fill="black"/>
<rect x="130.328" y="29.3955" width="1.03091" height="1.03091" fill="black"/>
<rect x="130.328" y="30.4265" width="1.03091" height="1.03091" fill="black"/>
<rect x="130.328" y="31.4575" width="1.03091" height="1.03091" fill="black"/>
<rect x="131.359" y="32.4883" width="1.03091" height="1.03091" fill="black"/>
<rect x="131.359" y="33.519" width="1.03091" height="1.03091" fill="black"/>
<rect x="132.389" y="34.55" width="1.03091" height="1.03091" fill="black"/>
<rect x="133.42" y="35.5811" width="1.03091" height="1.03091" fill="black"/>
<rect x="134.451" y="36.6118" width="1.03091" height="1.03091" fill="black"/>
<rect x="145.791" y="36.6118" width="1.03091" height="1.03091" fill="black"/>
<rect x="149.915" y="31.4575" width="1.03091" height="1.03091" fill="black"/>
<rect x="148.884" y="33.519" width="1.03091" height="1.03091" fill="black"/>
<rect x="147.853" y="34.55" width="1.03091" height="1.03091" fill="black"/>
<rect x="146.823" y="35.5811" width="1.03091" height="1.03091" fill="black"/>
<rect x="149.915" y="24.241" width="1.03091" height="1.03091" fill="black"/>
<rect x="149.915" y="25.272" width="1.03091" height="1.03091" fill="black"/>
<rect x="149.915" y="26.3027" width="1.03091" height="1.03091" fill="black"/>
<rect x="149.915" y="27.3337" width="1.03091" height="1.03091" fill="black"/>
<rect x="148.884" y="32.4883" width="1.03091" height="1.03091" fill="black"/>
<rect x="149.915" y="27.3337" width="1.03091" height="1.03091" fill="black"/>
<rect x="148.884" y="23.2102" width="1.03091" height="1.03091" fill="black"/>
<rect x="148.884" y="22.1792" width="1.03091" height="1.03091" fill="black"/>
<rect x="146.823" y="20.1174" width="1.03091" height="1.03091" fill="black"/>
<rect x="147.853" y="21.1482" width="1.03091" height="1.03091" fill="black"/>
<rect x="149.915" y="30.4265" width="1.03091" height="1.03091" fill="black"/>
<rect x="149.915" y="29.3955" width="1.03091" height="1.03091" fill="black"/>
<rect x="149.915" y="28.3647" width="1.03091" height="1.03091" fill="black"/>
<rect x="134.451" y="39.7046" width="1.03091" height="1.03091" fill="black"/>
<rect x="135.482" y="38.6738" width="1.03091" height="1.03091" fill="black"/>
<rect x="145.791" y="38.6738" width="1.03091" height="1.03091" fill="black"/>
<rect x="146.823" y="38.6738" width="1.03091" height="1.03091" fill="black"/>
<rect x="147.853" y="39.7046" width="1.03091" height="1.03091" fill="black"/>
<rect x="148.884" y="39.7046" width="1.03091" height="1.03091" fill="black"/>
<rect x="150.946" y="41.7664" width="1.03091" height="1.03091" fill="black"/>
<rect x="151.977" y="42.7974" width="1.03091" height="1.03091" fill="black"/>
<rect x="153.008" y="43.8284" width="1.03091" height="1.03091" fill="black"/>
<rect x="149.915" y="40.7356" width="1.03091" height="1.03091" fill="black"/>
<rect x="133.42" y="39.7046" width="1.03091" height="1.03091" fill="black"/>
<rect x="132.389" y="40.7356" width="1.03091" height="1.03091" fill="black"/>
<rect x="130.328" y="41.7664" width="1.03091" height="1.03091" fill="black"/>
<rect x="129.297" y="42.7974" width="1.03091" height="1.03091" fill="black"/>
<rect x="130.328" y="41.7664" width="1.03091" height="1.03091" fill="black"/>
<rect x="131.359" y="40.7356" width="1.03091" height="1.03091" fill="black"/>
<rect x="128.266" y="43.8284" width="1.03091" height="1.03091" fill="black"/>
<rect x="127.235" y="43.8284" width="1.03091" height="1.03091" fill="black"/>
</g>
<rect x="127.235" y="37.6428" width="1.03091" height="1.03091" fill="black"/>
<rect x="128.266" y="36.6118" width="1.03091" height="1.03091" fill="black"/>
<rect x="129.297" y="37.6428" width="1.03091" height="1.03091" fill="black"/>
<rect x="131.359" y="17.0247" width="1.03091" height="1.03091" fill="black"/>
<rect x="130.328" y="17.0247" width="1.03091" height="1.03091" fill="black"/>
<rect x="129.297" y="15.9937" width="1.03091" height="1.03091" fill="black"/>
<rect x="129.297" y="14.9629" width="1.03091" height="1.03091" fill="black"/>
<rect x="129.297" y="18.0554" width="1.03091" height="1.03091" fill="black"/>
<rect x="129.297" y="19.0864" width="1.03091" height="1.03091" fill="black"/>
<rect x="128.266" y="17.0247" width="1.03091" height="1.03091" fill="black"/>
<rect x="127.235" y="17.0247" width="1.03091" height="1.03091" fill="black"/>
<rect x="154.039" y="13.932" width="1.03091" height="1.03091" fill="black"/>
<rect x="151.977" y="37.6428" width="1.03091" height="1.03091" fill="black"/>
<rect x="128.266" y="38.6738" width="1.03091" height="1.03091" fill="black"/>
<rect x="150.946" y="15.9937" width="1.03091" height="1.03091" fill="black"/>
<rect x="150.946" y="18.0554" width="1.03091" height="1.03091" fill="black"/>
<rect x="151.977" y="17.0247" width="1.03091" height="1.03091" fill="black"/>
<rect x="149.915" y="17.0247" width="1.03091" height="1.03091" fill="black"/>
<rect x="135.482" y="42.7974" width="1.03091" height="1.03091" fill="black"/>
<rect x="145.791" y="15.9937" width="1.03091" height="1.03091" fill="black"/>
<rect width="1.03091" height="1.03091" transform="matrix(1 0 0 -1 136.513 14.9629)" fill="black"/>
<rect x="153.008" y="21.1482" width="1.03091" height="1.03091" fill="black"/>
<rect x="155.07" y="40.7356" width="1.03091" height="1.03091" fill="black"/>
<rect x="126.204" y="23.2102" width="1.03091" height="1.03091" fill="black"/>
<rect x="141.668" y="40.7356" width="1.03091" height="1.03091" fill="black"/>
<rect x="142.699" y="41.7664" width="1.03091" height="1.03091" fill="black"/>
<rect x="140.637" y="41.7664" width="1.03091" height="1.03091" fill="black"/>
<rect x="141.668" y="42.7974" width="1.03091" height="1.03091" fill="black"/>
<rect x="134.451" y="31.4575" width="1.03091" height="1.03091" fill="black"/>
<rect x="133.42" y="30.4265" width="1.03091" height="1.03091" fill="black"/>
<rect width="1.03091" height="1.03091" transform="matrix(1 0 0 -1 143.729 33.519)" fill="black"/>
<rect width="1.03091" height="1.03091" transform="matrix(1 0 0 -1 142.699 34.55)" fill="black"/>
<rect width="1.03091" height="1.03091" transform="matrix(1 0 0 -1 139.606 33.519)" fill="black"/>
<rect width="1.03091" height="1.03091" transform="matrix(1 0 0 -1 140.637 34.55)" fill="black"/>
<rect width="1.03091" height="1.03091" transform="matrix(1 0 0 -1 140.637 32.4883)" fill="black"/>
<rect width="1.03091" height="1.03091" transform="matrix(1 0 0 -1 142.699 32.4883)" fill="black"/>
<rect width="1.03091" height="1.03091" transform="matrix(1 0 0 -1 140.637 33.519)" fill="black"/>
<rect width="1.03091" height="1.03091" transform="matrix(1 0 0 -1 141.668 33.519)" fill="black"/>
<rect width="1.03091" height="1.03091" transform="matrix(1 0 0 -1 142.699 33.519)" fill="black"/>
<rect x="139.606" y="26.3027" width="1.03091" height="1.03091" fill="black"/>
<rect x="140.637" y="27.3337" width="1.03091" height="1.03091" fill="black"/>
<rect x="141.668" y="27.3337" width="1.03091" height="1.03091" fill="black"/>
<rect x="142.699" y="27.3337" width="1.03091" height="1.03091" fill="black"/>
<rect x="140.637" y="25.272" width="1.03091" height="1.03091" fill="black"/>
<rect x="141.668" y="25.272" width="1.03091" height="1.03091" fill="black"/>
<rect x="141.668" y="26.3027" width="1.03091" height="1.03091" fill="black"/>
<rect x="142.699" y="25.272" width="1.03091" height="1.03091" fill="black"/>
<rect x="138.575" y="27.3337" width="1.03091" height="1.03091" fill="black"/>
<rect x="137.544" y="27.3337" width="1.03091" height="1.03091" fill="black"/>
<rect x="137.544" y="26.3027" width="1.03091" height="1.03091" fill="black"/>
<rect x="137.544" y="25.272" width="1.03091" height="1.03091" fill="black"/>
<rect x="143.729" y="26.3027" width="1.03091" height="1.03091" fill="black"/>
<rect x="137.544" y="25.272" width="1.03091" height="1.03091" fill="black"/>
<rect x="136.513" y="25.272" width="1.03091" height="1.03091" fill="black"/>
<rect x="135.482" y="26.3027" width="1.03091" height="1.03091" fill="black"/>
<rect x="136.513" y="27.3337" width="1.03091" height="1.03091" fill="black"/>
<rect x="137.544" y="27.3337" width="1.03091" height="1.03091" fill="black"/>
<rect x="138.575" y="25.272" width="1.03091" height="1.03091" fill="black"/>
<rect x="145.791" y="25.272" width="1.03091" height="1.03091" fill="black"/>
<rect x="145.791" y="25.272" width="1.03091" height="1.03091" fill="black"/>
<rect x="145.791" y="26.3027" width="1.03091" height="1.03091" fill="black"/>
<rect x="145.791" y="27.3337" width="1.03091" height="1.03091" fill="black"/>
<rect x="144.76" y="25.272" width="1.03091" height="1.03091" fill="black"/>
<rect x="146.823" y="25.272" width="1.03091" height="1.03091" fill="black"/>
<rect x="147.853" y="26.3027" width="1.03091" height="1.03091" fill="black"/>
<rect x="146.823" y="27.3337" width="1.03091" height="1.03091" fill="black"/>
<rect x="145.791" y="27.3337" width="1.03091" height="1.03091" fill="black"/>
<rect x="144.76" y="27.3337" width="1.03091" height="1.03091" fill="black"/>
</g>
<rect x="124.955" y="12.6828" width="31.3636" height="31.3636" rx="12.4381" stroke="black" stroke-width="1.62544"/>
<g clip-path="url(#clip2_173_32465)">
<rect x="77.8018" y="0.859863" width="55.0094" height="55.0094" rx="22.0958" fill="white"/>
<rect width="55.0094" height="55.0094" transform="translate(77.8018 0.859863)" fill="#95C6EB"/>
<g clip-path="url(#clip3_173_32465)">
<rect x="88.1162" y="21.4883" width="1.71905" height="1.71904" fill="black"/>
<rect x="89.835" y="19.7695" width="1.71905" height="1.71905" fill="black"/>
<rect x="89.835" y="18.0503" width="1.71905" height="1.71904" fill="black"/>
<rect x="91.554" y="16.3313" width="1.71905" height="1.71905" fill="black"/>
<rect x="93.2732" y="14.6123" width="1.71905" height="1.71905" fill="black"/>
<rect x="94.9919" y="12.8932" width="1.71904" height="1.71905" fill="black"/>
<rect x="96.7114" y="12.8932" width="1.71905" height="1.71905" fill="black"/>
<rect x="98.4302" y="11.1741" width="1.71904" height="1.71905" fill="black"/>
<rect x="96.7114" y="43.8359" width="1.71905" height="1.71904" fill="black"/>
<rect x="100.149" y="11.1741" width="1.71905" height="1.71905" fill="black"/>
<rect x="101.868" y="11.1741" width="1.71904" height="1.71905" fill="black"/>
<rect x="103.588" y="11.1741" width="1.71905" height="1.71905" fill="black"/>
<rect x="105.306" y="11.1741" width="1.71904" height="1.71905" fill="black"/>
<rect x="105.306" y="43.8359" width="1.71904" height="1.71904" fill="black"/>
<rect x="107.025" y="11.1741" width="1.71905" height="1.71905" fill="black"/>
<rect x="107.025" y="43.8359" width="1.71905" height="1.71904" fill="black"/>
<rect x="108.745" y="11.1741" width="1.71905" height="1.71905" fill="black"/>
<rect x="108.745" y="43.8359" width="1.71905" height="1.71904" fill="black"/>
<rect x="110.463" y="11.1741" width="1.71905" height="1.71905" fill="black"/>
<rect x="112.183" y="43.8359" width="1.71904" height="1.71904" fill="black"/>
<rect x="112.183" y="12.8932" width="1.71904" height="1.71905" fill="black"/>
<rect x="113.902" y="12.8932" width="1.71905" height="1.71905" fill="black"/>
<rect x="88.1162" y="23.2073" width="1.71905" height="1.71905" fill="black"/>
<rect x="88.1162" y="24.9265" width="1.71905" height="1.71904" fill="black"/>
<rect x="88.1162" y="26.6455" width="1.71905" height="1.71905" fill="black"/>
<rect x="88.1162" y="28.3645" width="1.71905" height="1.71904" fill="black"/>
<rect x="88.1162" y="30.0837" width="1.71905" height="1.71905" fill="black"/>
<rect x="88.1162" y="31.8027" width="1.71905" height="1.71905" fill="black"/>
<rect x="88.1162" y="33.5217" width="1.71905" height="1.71905" fill="black"/>
<rect x="89.835" y="35.2407" width="1.71905" height="1.71904" fill="black"/>
<rect x="89.835" y="36.9597" width="1.71905" height="1.71905" fill="black"/>
<rect x="91.554" y="38.6787" width="1.71905" height="1.71905" fill="black"/>
<rect x="93.2732" y="40.3979" width="1.71905" height="1.71905" fill="black"/>
<rect x="94.9919" y="42.1169" width="1.71904" height="1.71905" fill="black"/>
<rect x="113.902" y="42.1169" width="1.71905" height="1.71905" fill="black"/>
<rect x="120.778" y="33.5217" width="1.71904" height="1.71905" fill="black"/>
<rect x="119.059" y="36.9597" width="1.71905" height="1.71905" fill="black"/>
<rect x="117.34" y="38.6787" width="1.71905" height="1.71905" fill="black"/>
<rect x="115.621" y="40.3979" width="1.71905" height="1.71905" fill="black"/>
<rect x="120.778" y="21.4883" width="1.71904" height="1.71904" fill="black"/>
<rect x="120.778" y="23.2073" width="1.71904" height="1.71905" fill="black"/>
<rect x="120.778" y="24.9265" width="1.71904" height="1.71904" fill="black"/>
<rect x="120.778" y="26.6455" width="1.71904" height="1.71905" fill="black"/>
<rect x="119.059" y="35.2407" width="1.71905" height="1.71904" fill="black"/>
<rect x="120.778" y="26.6455" width="1.71904" height="1.71905" fill="black"/>
<rect x="119.059" y="19.7695" width="1.71905" height="1.71905" fill="black"/>
<rect x="119.059" y="18.0503" width="1.71905" height="1.71904" fill="black"/>
<rect x="115.621" y="14.6123" width="1.71905" height="1.71905" fill="black"/>
<rect x="117.34" y="16.3313" width="1.71905" height="1.71905" fill="black"/>
<rect x="120.778" y="31.8027" width="1.71904" height="1.71905" fill="black"/>
<rect x="120.778" y="30.0837" width="1.71904" height="1.71905" fill="black"/>
<rect x="120.778" y="28.3645" width="1.71904" height="1.71904" fill="black"/>
<rect x="94.9919" y="47.2742" width="1.71904" height="1.71905" fill="black"/>
<rect x="96.7114" y="45.5552" width="1.71905" height="1.71905" fill="black"/>
<rect x="113.902" y="45.5552" width="1.71905" height="1.71905" fill="black"/>
<rect x="115.621" y="45.5552" width="1.71905" height="1.71905" fill="black"/>
<rect x="117.34" y="47.2742" width="1.71905" height="1.71905" fill="black"/>
<rect x="119.059" y="47.2742" width="1.71905" height="1.71905" fill="black"/>
<rect x="122.497" y="50.7122" width="1.71905" height="1.71904" fill="black"/>
<rect x="124.216" y="52.4312" width="1.71905" height="1.71905" fill="black"/>
<rect x="125.935" y="54.1501" width="1.71905" height="1.71905" fill="black"/>
<rect x="120.778" y="48.9932" width="1.71904" height="1.71905" fill="black"/>
<rect x="93.2732" y="47.2742" width="1.71905" height="1.71905" fill="black"/>
<rect x="91.554" y="48.9932" width="1.71905" height="1.71905" fill="black"/>
<rect x="88.1162" y="50.7122" width="1.71905" height="1.71904" fill="black"/>
<rect x="86.397" y="52.4312" width="1.71905" height="1.71905" fill="black"/>
<rect x="88.1162" y="50.7122" width="1.71905" height="1.71904" fill="black"/>
<rect x="89.835" y="48.9932" width="1.71905" height="1.71905" fill="black"/>
<rect x="84.678" y="54.1501" width="1.71905" height="1.71905" fill="black"/>
<rect x="82.9587" y="54.1501" width="1.71905" height="1.71905" fill="black"/>
</g>
<rect x="84.678" y="33.5217" width="1.71905" height="1.71905" fill="black"/>
<rect x="84.678" y="31.8027" width="1.71905" height="1.71905" fill="black"/>
<rect x="84.678" y="30.0837" width="1.71905" height="1.71905" fill="black"/>
<rect x="84.678" y="28.3645" width="1.71905" height="1.71904" fill="black"/>
<rect x="84.678" y="26.6455" width="1.71905" height="1.71905" fill="black"/>
<rect x="84.678" y="24.9265" width="1.71905" height="1.71904" fill="black"/>
<rect x="84.678" y="23.2073" width="1.71905" height="1.71905" fill="black"/>
<rect x="84.678" y="21.4883" width="1.71905" height="1.71904" fill="black"/>
<rect x="84.678" y="19.7695" width="1.71905" height="1.71905" fill="black"/>
<rect x="86.397" y="18.0503" width="1.71905" height="1.71904" fill="black"/>
<rect x="86.397" y="16.3313" width="1.71905" height="1.71905" fill="black"/>
<rect x="88.1162" y="14.6123" width="1.71905" height="1.71905" fill="black"/>
<rect x="89.835" y="12.8932" width="1.71905" height="1.71905" fill="black"/>
<rect x="91.554" y="11.1741" width="1.71905" height="1.71905" fill="black"/>
<rect x="93.2732" y="9.45496" width="1.71905" height="1.71905" fill="black"/>
<rect x="96.7114" y="7.73596" width="1.71905" height="1.71905" fill="black"/>
<rect x="98.4302" y="7.73596" width="1.71904" height="1.71905" fill="black"/>
<rect x="100.149" y="7.73596" width="1.71905" height="1.71905" fill="black"/>
<rect x="101.868" y="7.73596" width="1.71904" height="1.71905" fill="black"/>
<rect x="103.588" y="7.73596" width="1.71905" height="1.71905" fill="black"/>
<rect x="105.306" y="7.73596" width="1.71904" height="1.71905" fill="black"/>
<rect x="107.025" y="7.73596" width="1.71905" height="1.71905" fill="black"/>
<rect x="108.745" y="7.73596" width="1.71905" height="1.71905" fill="black"/>
<rect x="110.463" y="7.73596" width="1.71905" height="1.71905" fill="black"/>
<rect x="112.183" y="7.73596" width="1.71904" height="1.71905" fill="black"/>
<rect x="113.902" y="9.45496" width="1.71905" height="1.71905" fill="black"/>
<rect x="115.621" y="9.45496" width="1.71905" height="1.71905" fill="black"/>
<rect x="117.34" y="11.1741" width="1.71905" height="1.71905" fill="black"/>
<rect x="119.059" y="12.8932" width="1.71905" height="1.71905" fill="black"/>
<rect x="120.778" y="14.6123" width="1.71904" height="1.71905" fill="black"/>
<rect x="122.497" y="16.3313" width="1.71905" height="1.71905" fill="black"/>
<rect x="122.497" y="18.0503" width="1.71905" height="1.71904" fill="black"/>
<rect x="124.216" y="19.7695" width="1.71905" height="1.71905" fill="black"/>
<rect x="124.216" y="21.4883" width="1.71905" height="1.71904" fill="black"/>
<rect x="124.216" y="23.2073" width="1.71905" height="1.71905" fill="black"/>
<rect x="124.216" y="24.9265" width="1.71905" height="1.71904" fill="black"/>
<rect x="124.216" y="26.6455" width="1.71905" height="1.71905" fill="black"/>
<rect x="124.216" y="28.3645" width="1.71905" height="1.71904" fill="black"/>
<rect x="124.216" y="30.0837" width="1.71905" height="1.71905" fill="black"/>
<rect x="124.216" y="31.8027" width="1.71905" height="1.71905" fill="black"/>
<rect x="124.216" y="33.5217" width="1.71905" height="1.71905" fill="black"/>
<rect x="124.216" y="35.2407" width="1.71905" height="1.71904" fill="black"/>
<rect x="94.9919" y="9.45496" width="1.71904" height="1.71905" fill="black"/>
<rect x="84.678" y="35.2407" width="1.71905" height="1.71904" fill="black"/>
<rect x="86.397" y="38.6787" width="1.71905" height="1.71905" fill="black"/>
<rect x="91.554" y="43.8359" width="1.71905" height="1.71904" fill="black"/>
<rect x="89.835" y="47.2742" width="1.71905" height="1.71905" fill="black"/>
<rect x="88.1162" y="45.5552" width="1.71905" height="1.71905" fill="black"/>
<rect x="81.24" y="48.9932" width="1.71905" height="1.71905" fill="black"/>
<rect x="86.397" y="43.8359" width="1.71905" height="1.71904" fill="black"/>
<rect x="84.678" y="47.2742" width="1.71905" height="1.71905" fill="black"/>
<rect x="84.678" y="42.1169" width="1.71905" height="1.71905" fill="black"/>
<rect x="82.9587" y="45.5552" width="1.71905" height="1.71905" fill="black"/>
<rect x="82.9587" y="40.3979" width="1.71905" height="1.71905" fill="black"/>
<rect x="82.9587" y="38.6787" width="1.71905" height="1.71905" fill="black"/>
<rect x="81.24" y="36.9597" width="1.71905" height="1.71905" fill="black"/>
<rect x="81.24" y="35.2407" width="1.71905" height="1.71904" fill="black"/>
<rect x="81.24" y="33.5217" width="1.71905" height="1.71905" fill="black"/>
<rect x="81.24" y="31.8027" width="1.71905" height="1.71905" fill="black"/>
<rect x="81.24" y="30.0837" width="1.71905" height="1.71905" fill="black"/>
<rect x="81.24" y="28.3645" width="1.71905" height="1.71904" fill="black"/>
<rect x="81.24" y="26.6455" width="1.71905" height="1.71905" fill="black"/>
<rect x="81.24" y="24.9265" width="1.71905" height="1.71904" fill="black"/>
<rect x="81.24" y="23.2073" width="1.71905" height="1.71905" fill="black"/>
<rect x="81.24" y="21.4883" width="1.71905" height="1.71904" fill="black"/>
<rect x="81.24" y="19.7695" width="1.71905" height="1.71905" fill="black"/>
<rect x="81.24" y="18.0503" width="1.71905" height="1.71904" fill="black"/>
<rect x="82.9587" y="16.3313" width="1.71905" height="1.71905" fill="black"/>
<rect x="82.9587" y="14.6123" width="1.71905" height="1.71905" fill="black"/>
<rect x="84.678" y="12.8932" width="1.71905" height="1.71905" fill="black"/>
<rect x="81.24" y="11.1741" width="1.71905" height="1.71905" fill="black"/>
<rect x="86.397" y="11.1741" width="1.71905" height="1.71905" fill="black"/>
<rect x="82.9587" y="9.45496" width="1.71905" height="1.71905" fill="black"/>
<rect x="88.1162" y="9.45496" width="1.71905" height="1.71905" fill="black"/>
<rect x="84.678" y="7.73596" width="1.71905" height="1.71905" fill="black"/>
<rect x="81.24" y="6.01709" width="1.71905" height="1.71905" fill="black"/>
<rect x="89.835" y="7.73596" width="1.71905" height="1.71905" fill="black"/>
<rect x="86.397" y="6.01709" width="1.71905" height="1.71905" fill="black"/>
<rect x="91.554" y="6.01709" width="1.71905" height="1.71905" fill="black"/>
<rect x="93.2732" y="6.01709" width="1.71905" height="1.71905" fill="black"/>
<rect x="94.9919" y="4.29797" width="1.71904" height="1.71905" fill="black"/>
<rect x="96.7114" y="4.29797" width="1.71905" height="1.71905" fill="black"/>
<rect x="98.4302" y="4.29797" width="1.71904" height="1.71905" fill="black"/>
<rect x="100.149" y="4.29797" width="1.71905" height="1.71905" fill="black"/>
<rect x="101.868" y="4.29797" width="1.71904" height="1.71905" fill="black"/>
<rect x="103.588" y="4.29797" width="1.71905" height="1.71905" fill="black"/>
<rect x="105.306" y="4.29797" width="1.71904" height="1.71905" fill="black"/>
<rect x="107.025" y="4.29797" width="1.71905" height="1.71905" fill="black"/>
<rect x="108.745" y="4.29797" width="1.71905" height="1.71905" fill="black"/>
<rect x="110.463" y="4.29797" width="1.71905" height="1.71905" fill="black"/>
<rect x="112.183" y="4.29797" width="1.71904" height="1.71905" fill="black"/>
<rect x="113.902" y="4.29797" width="1.71905" height="1.71905" fill="black"/>
<rect x="115.621" y="6.01709" width="1.71905" height="1.71905" fill="black"/>
<rect x="117.34" y="6.01709" width="1.71905" height="1.71905" fill="black"/>
<rect x="119.059" y="7.73596" width="1.71905" height="1.71905" fill="black"/>
<rect x="120.778" y="4.29797" width="1.71904" height="1.71905" fill="black"/>
<rect x="122.497" y="6.01709" width="1.71905" height="1.71905" fill="black"/>
<rect x="125.935" y="4.29797" width="1.71905" height="1.71905" fill="black"/>
<rect x="124.216" y="7.73596" width="1.71905" height="1.71905" fill="black"/>
<rect x="127.654" y="6.01709" width="1.71904" height="1.71905" fill="black"/>
<rect x="125.935" y="9.45496" width="1.71905" height="1.71905" fill="black"/>
<rect x="127.654" y="11.1741" width="1.71904" height="1.71905" fill="black"/>
<rect x="120.778" y="9.45496" width="1.71904" height="1.71905" fill="black"/>
<rect x="122.497" y="11.1741" width="1.71905" height="1.71905" fill="black"/>
<rect x="124.216" y="12.8932" width="1.71905" height="1.71905" fill="black"/>
<rect x="125.935" y="14.6123" width="1.71905" height="1.71905" fill="black"/>
<rect x="125.935" y="16.3313" width="1.71905" height="1.71905" fill="black"/>
<rect x="127.654" y="18.0503" width="1.71904" height="1.71904" fill="black"/>
<rect x="127.654" y="19.7695" width="1.71904" height="1.71905" fill="black"/>
<rect x="127.654" y="21.4883" width="1.71904" height="1.71904" fill="black"/>
<rect x="127.654" y="23.2073" width="1.71904" height="1.71905" fill="black"/>
<rect x="127.654" y="24.9265" width="1.71904" height="1.71904" fill="black"/>
<rect x="127.654" y="26.6455" width="1.71904" height="1.71905" fill="black"/>
<rect x="127.654" y="28.3645" width="1.71904" height="1.71904" fill="black"/>
<rect x="127.654" y="30.0837" width="1.71904" height="1.71905" fill="black"/>
<rect x="127.654" y="31.8027" width="1.71904" height="1.71905" fill="black"/>
<rect x="127.654" y="33.5217" width="1.71904" height="1.71905" fill="black"/>
<rect x="127.654" y="35.2407" width="1.71904" height="1.71904" fill="black"/>
<rect x="127.654" y="36.9597" width="1.71904" height="1.71905" fill="black"/>
<rect x="125.935" y="38.6787" width="1.71905" height="1.71905" fill="black"/>
<rect x="125.935" y="40.3979" width="1.71905" height="1.71905" fill="black"/>
<rect x="124.216" y="42.1169" width="1.71905" height="1.71905" fill="black"/>
<rect x="125.935" y="45.5552" width="1.71905" height="1.71905" fill="black"/>
<rect x="127.654" y="48.9932" width="1.71904" height="1.71905" fill="black"/>
<rect x="122.497" y="43.8359" width="1.71905" height="1.71904" fill="black"/>
<rect x="124.216" y="47.2742" width="1.71905" height="1.71905" fill="black"/>
<rect x="93.2732" y="45.5552" width="1.71905" height="1.71905" fill="black"/>
<rect x="89.835" y="42.1169" width="1.71905" height="1.71905" fill="black"/>
<rect x="88.1162" y="40.3979" width="1.71905" height="1.71905" fill="black"/>
<rect x="119.059" y="42.1169" width="1.71905" height="1.71905" fill="black"/>
<rect x="117.34" y="43.8359" width="1.71905" height="1.71904" fill="black"/>
<rect x="120.778" y="45.5552" width="1.71904" height="1.71905" fill="black"/>
<rect x="120.778" y="40.3979" width="1.71904" height="1.71905" fill="black"/>
<rect x="122.497" y="36.9597" width="1.71905" height="1.71905" fill="black"/>
<rect x="122.497" y="38.6787" width="1.71905" height="1.71905" fill="black"/>
<rect width="1.71905" height="1.71905" transform="matrix(1 0 0 -1 86.397 38.6787)" fill="black"/>
<rect x="86.397" y="28.3645" width="1.71905" height="1.71904" fill="black"/>
<rect x="88.1162" y="28.3645" width="1.71905" height="1.71904" fill="black"/>
<rect x="84.678" y="28.3645" width="1.71905" height="1.71904" fill="black"/>
<rect x="84.678" y="30.0837" width="1.71905" height="1.71905" fill="black"/>
<rect x="84.678" y="26.6455" width="1.71905" height="1.71905" fill="black"/>
<rect x="82.9587" y="28.3645" width="1.71905" height="1.71904" fill="black"/>
<rect x="122.497" y="28.3645" width="1.71905" height="1.71904" fill="black"/>
<rect x="120.778" y="28.3645" width="1.71904" height="1.71904" fill="black"/>
<rect x="125.935" y="26.6455" width="1.71905" height="1.71905" fill="black"/>
<rect x="125.935" y="30.0837" width="1.71905" height="1.71905" fill="black"/>
<rect x="124.216" y="30.0837" width="1.71905" height="1.71905" fill="black"/>
<rect x="124.216" y="28.3645" width="1.71905" height="1.71904" fill="black"/>
<rect x="124.216" y="26.6455" width="1.71905" height="1.71905" fill="black"/>
<rect width="1.71904" height="1.71905" transform="matrix(1 0 0 -1 105.306 35.2407)" fill="black"/>
<rect width="1.71904" height="1.71904" transform="matrix(1 0 0 -1 105.306 36.9597)" fill="black"/>
<rect width="1.71904" height="1.71905" transform="matrix(1 0 0 -1 105.306 38.6787)" fill="black"/>
<rect width="1.71905" height="1.71905" transform="matrix(1 0 0 -1 107.025 38.6787)" fill="black"/>
<rect width="1.71905" height="1.71905" transform="matrix(1 0 0 -1 108.745 38.6787)" fill="black"/>
<rect width="1.71905" height="1.71905" transform="matrix(1 0 0 -1 108.745 35.2407)" fill="black"/>
<rect width="1.71905" height="1.71904" transform="matrix(1 0 0 -1 108.745 36.9597)" fill="black"/>
<rect width="1.71905" height="1.71905" transform="matrix(1 0 0 -1 107.025 35.2407)" fill="black"/>
<rect x="101.868" y="26.6455" width="1.71904" height="1.71905" fill="black"/>
<rect x="101.868" y="23.2073" width="1.71904" height="1.71905" fill="black"/>
<rect x="100.149" y="26.6455" width="1.71905" height="1.71905" fill="black"/>
<rect x="100.149" y="23.2073" width="1.71905" height="1.71905" fill="black"/>
<rect x="103.588" y="26.6455" width="1.71905" height="1.71905" fill="black"/>
<rect x="103.588" y="23.2073" width="1.71905" height="1.71905" fill="black"/>
<rect x="101.868" y="24.9265" width="1.71904" height="1.71904" fill="black"/>
<rect x="110.463" y="26.6455" width="1.71905" height="1.71905" fill="black"/>
<rect x="110.463" y="23.2073" width="1.71905" height="1.71905" fill="black"/>
<rect x="112.183" y="26.6455" width="1.71904" height="1.71905" fill="black"/>
<rect x="112.183" y="23.2073" width="1.71904" height="1.71905" fill="black"/>
<rect x="112.183" y="24.9265" width="1.71904" height="1.71904" fill="black"/>
<rect x="113.902" y="26.6455" width="1.71905" height="1.71905" fill="black"/>
<rect x="113.902" y="23.2073" width="1.71905" height="1.71905" fill="black"/>
</g>
<rect x="79.157" y="2.21508" width="52.299" height="52.299" rx="20.7406" stroke="black" stroke-width="2.71044"/>
<g clip-path="url(#clip4_173_32465)">
<rect x="53.4819" y="11.8701" width="32.9891" height="32.9891" rx="13.2508" fill="white"/>
<rect width="32.9891" height="32.9891" transform="translate(53.4819 11.8701)" fill="#DAFE9A"/>
<g clip-path="url(#clip5_173_32465)">
<rect x="59.6675" y="24.241" width="1.03091" height="1.03091" fill="black"/>
<rect x="60.6982" y="23.2102" width="1.03091" height="1.03091" fill="black"/>
<rect x="60.6982" y="22.1792" width="1.03091" height="1.03091" fill="black"/>
<rect x="61.729" y="21.1482" width="1.03091" height="1.03091" fill="black"/>
<rect x="62.76" y="20.1174" width="1.03091" height="1.03091" fill="black"/>
<rect x="63.791" y="19.0864" width="1.03091" height="1.03091" fill="black"/>
<rect x="64.822" y="19.0864" width="1.03091" height="1.03091" fill="black"/>
<rect x="65.8528" y="18.0554" width="1.03091" height="1.03091" fill="black"/>
<rect x="64.822" y="37.6428" width="1.03091" height="1.03091" fill="black"/>
<rect x="66.8838" y="18.0554" width="1.03091" height="1.03091" fill="black"/>
<rect x="67.9146" y="18.0554" width="1.03091" height="1.03091" fill="black"/>
<rect x="68.9456" y="18.0554" width="1.03091" height="1.03091" fill="black"/>
<rect x="69.9766" y="18.0554" width="1.03091" height="1.03091" fill="black"/>
<rect x="69.9766" y="37.6428" width="1.03091" height="1.03091" fill="black"/>
<rect x="71.0073" y="18.0554" width="1.03091" height="1.03091" fill="black"/>
<rect x="71.0073" y="37.6428" width="1.03091" height="1.03091" fill="black"/>
<rect x="72.0383" y="18.0554" width="1.03091" height="1.03091" fill="black"/>
<rect x="72.0383" y="37.6428" width="1.03091" height="1.03091" fill="black"/>
<rect x="73.0691" y="18.0554" width="1.03091" height="1.03091" fill="black"/>
<rect x="74.1001" y="37.6428" width="1.03091" height="1.03091" fill="black"/>
<rect x="74.1001" y="19.0864" width="1.03091" height="1.03091" fill="black"/>
<rect x="75.1309" y="19.0864" width="1.03091" height="1.03091" fill="black"/>
<rect x="59.6675" y="25.272" width="1.03091" height="1.03091" fill="black"/>
<rect x="59.6675" y="26.3027" width="1.03091" height="1.03091" fill="black"/>
<rect x="59.6675" y="27.3337" width="1.03091" height="1.03091" fill="black"/>
<rect x="59.6675" y="28.3647" width="1.03091" height="1.03091" fill="black"/>
<rect x="59.6675" y="29.3955" width="1.03091" height="1.03091" fill="black"/>
<rect x="59.6675" y="30.4265" width="1.03091" height="1.03091" fill="black"/>
<rect x="59.6675" y="31.4575" width="1.03091" height="1.03091" fill="black"/>
<rect x="60.6982" y="32.4883" width="1.03091" height="1.03091" fill="black"/>
<rect x="60.6982" y="33.519" width="1.03091" height="1.03091" fill="black"/>
<rect x="61.729" y="34.55" width="1.03091" height="1.03091" fill="black"/>
<rect x="62.76" y="35.5811" width="1.03091" height="1.03091" fill="black"/>
<rect x="63.791" y="36.6118" width="1.03091" height="1.03091" fill="black"/>
<rect x="75.1309" y="36.6118" width="1.03091" height="1.03091" fill="black"/>
<rect x="79.2546" y="31.4575" width="1.03091" height="1.03091" fill="black"/>
<rect x="78.2236" y="33.519" width="1.03091" height="1.03091" fill="black"/>
<rect x="77.1929" y="34.55" width="1.03091" height="1.03091" fill="black"/>
<rect x="76.1621" y="35.5811" width="1.03091" height="1.03091" fill="black"/>
<rect x="79.2546" y="24.241" width="1.03091" height="1.03091" fill="black"/>
<rect x="79.2546" y="25.272" width="1.03091" height="1.03091" fill="black"/>
<rect x="79.2546" y="26.3027" width="1.03091" height="1.03091" fill="black"/>
<rect x="79.2546" y="27.3337" width="1.03091" height="1.03091" fill="black"/>
<rect x="78.2236" y="32.4883" width="1.03091" height="1.03091" fill="black"/>
<rect x="79.2546" y="27.3337" width="1.03091" height="1.03091" fill="black"/>
<rect x="78.2236" y="23.2102" width="1.03091" height="1.03091" fill="black"/>
<rect x="78.2236" y="22.1792" width="1.03091" height="1.03091" fill="black"/>
<rect x="76.1621" y="20.1174" width="1.03091" height="1.03091" fill="black"/>
<rect x="77.1929" y="21.1482" width="1.03091" height="1.03091" fill="black"/>
<rect x="79.2546" y="30.4265" width="1.03091" height="1.03091" fill="black"/>
<rect x="79.2546" y="29.3955" width="1.03091" height="1.03091" fill="black"/>
<rect x="79.2546" y="28.3647" width="1.03091" height="1.03091" fill="black"/>
<rect x="63.791" y="39.7046" width="1.03091" height="1.03091" fill="black"/>
<rect x="64.822" y="38.6738" width="1.03091" height="1.03091" fill="black"/>
<rect x="75.1309" y="38.6738" width="1.03091" height="1.03091" fill="black"/>
<rect x="76.1621" y="38.6738" width="1.03091" height="1.03091" fill="black"/>
<rect x="77.1929" y="39.7046" width="1.03091" height="1.03091" fill="black"/>
<rect x="78.2236" y="39.7046" width="1.03091" height="1.03091" fill="black"/>
<rect x="80.2854" y="41.7664" width="1.03091" height="1.03091" fill="black"/>
<rect x="81.3164" y="42.7974" width="1.03091" height="1.03091" fill="black"/>
<rect x="82.3474" y="43.8284" width="1.03091" height="1.03091" fill="black"/>
<rect x="79.2546" y="40.7356" width="1.03091" height="1.03091" fill="black"/>
<rect x="62.76" y="39.7046" width="1.03091" height="1.03091" fill="black"/>
<rect x="61.729" y="40.7356" width="1.03091" height="1.03091" fill="black"/>
<rect x="59.6675" y="41.7664" width="1.03091" height="1.03091" fill="black"/>
<rect x="58.6365" y="42.7974" width="1.03091" height="1.03091" fill="black"/>
<rect x="59.6675" y="41.7664" width="1.03091" height="1.03091" fill="black"/>
<rect x="60.6982" y="40.7356" width="1.03091" height="1.03091" fill="black"/>
<rect x="57.6057" y="43.8284" width="1.03091" height="1.03091" fill="black"/>
<rect x="56.5745" y="43.8284" width="1.03091" height="1.03091" fill="black"/>
</g>
<rect x="57.6057" y="31.4575" width="1.03091" height="1.03091" fill="black"/>
<rect x="57.6057" y="30.4265" width="1.03091" height="1.03091" fill="black"/>
<rect x="57.6057" y="29.3955" width="1.03091" height="1.03091" fill="black"/>
<rect x="57.6057" y="28.3647" width="1.03091" height="1.03091" fill="black"/>
<rect x="57.6057" y="27.3337" width="1.03091" height="1.03091" fill="black"/>
<rect x="57.6057" y="26.3027" width="1.03091" height="1.03091" fill="black"/>
<rect x="57.6057" y="25.272" width="1.03091" height="1.03091" fill="black"/>
<rect x="57.6057" y="24.241" width="1.03091" height="1.03091" fill="black"/>
<rect x="57.6057" y="23.2102" width="1.03091" height="1.03091" fill="black"/>
<rect x="58.6365" y="22.1792" width="1.03091" height="1.03091" fill="black"/>
<rect x="58.6365" y="21.1482" width="1.03091" height="1.03091" fill="black"/>
<rect x="59.6675" y="20.1174" width="1.03091" height="1.03091" fill="black"/>
<rect x="60.6982" y="19.0864" width="1.03091" height="1.03091" fill="black"/>
<rect x="61.729" y="18.0554" width="1.03091" height="1.03091" fill="black"/>
<rect x="62.76" y="17.0247" width="1.03091" height="1.03091" fill="black"/>
<rect x="64.822" y="15.9937" width="1.03091" height="1.03091" fill="black"/>
<rect x="65.8528" y="15.9937" width="1.03091" height="1.03091" fill="black"/>
<rect x="66.8838" y="15.9937" width="1.03091" height="1.03091" fill="black"/>
<rect x="67.9146" y="15.9937" width="1.03091" height="1.03091" fill="black"/>
<rect x="68.9456" y="15.9937" width="1.03091" height="1.03091" fill="black"/>
<rect x="69.9766" y="15.9937" width="1.03091" height="1.03091" fill="black"/>
<rect x="71.0073" y="15.9937" width="1.03091" height="1.03091" fill="black"/>
<rect x="72.0383" y="15.9937" width="1.03091" height="1.03091" fill="black"/>
<rect x="73.0691" y="15.9937" width="1.03091" height="1.03091" fill="black"/>
<rect x="74.1001" y="15.9937" width="1.03091" height="1.03091" fill="black"/>
<rect x="75.1309" y="17.0247" width="1.03091" height="1.03091" fill="black"/>
<rect x="76.1621" y="17.0247" width="1.03091" height="1.03091" fill="black"/>
<rect x="77.1929" y="18.0554" width="1.03091" height="1.03091" fill="black"/>
<rect x="78.2236" y="19.0864" width="1.03091" height="1.03091" fill="black"/>
<rect x="79.2546" y="20.1174" width="1.03091" height="1.03091" fill="black"/>
<rect x="80.2854" y="21.1482" width="1.03091" height="1.03091" fill="black"/>
<rect x="80.2854" y="22.1792" width="1.03091" height="1.03091" fill="black"/>
<rect x="81.3164" y="23.2102" width="1.03091" height="1.03091" fill="black"/>
<rect x="81.3164" y="24.241" width="1.03091" height="1.03091" fill="black"/>
<rect x="81.3164" y="25.272" width="1.03091" height="1.03091" fill="black"/>
<rect x="81.3164" y="26.3027" width="1.03091" height="1.03091" fill="black"/>
<rect x="81.3164" y="27.3337" width="1.03091" height="1.03091" fill="black"/>
<rect x="81.3164" y="28.3647" width="1.03091" height="1.03091" fill="black"/>
<rect x="81.3164" y="29.3955" width="1.03091" height="1.03091" fill="black"/>
<rect x="81.3164" y="30.4265" width="1.03091" height="1.03091" fill="black"/>
<rect x="81.3164" y="31.4575" width="1.03091" height="1.03091" fill="black"/>
<rect x="81.3164" y="32.4883" width="1.03091" height="1.03091" fill="black"/>
<rect x="63.791" y="17.0247" width="1.03091" height="1.03091" fill="black"/>
<rect x="57.6057" y="32.4883" width="1.03091" height="1.03091" fill="black"/>
<rect x="58.6365" y="34.55" width="1.03091" height="1.03091" fill="black"/>
<rect x="61.729" y="37.6428" width="1.03091" height="1.03091" fill="black"/>
<rect x="60.6982" y="39.7046" width="1.03091" height="1.03091" fill="black"/>
<rect x="59.6675" y="38.6738" width="1.03091" height="1.03091" fill="black"/>
<rect x="55.5437" y="40.7356" width="1.03091" height="1.03091" fill="black"/>
<rect x="58.6365" y="37.6428" width="1.03091" height="1.03091" fill="black"/>
<rect x="57.6057" y="39.7046" width="1.03091" height="1.03091" fill="black"/>
<rect x="57.6057" y="36.6118" width="1.03091" height="1.03091" fill="black"/>
<rect x="56.5745" y="38.6738" width="1.03091" height="1.03091" fill="black"/>
<rect x="56.5745" y="35.5811" width="1.03091" height="1.03091" fill="black"/>
<rect x="56.5745" y="34.55" width="1.03091" height="1.03091" fill="black"/>
<rect x="55.5437" y="33.519" width="1.03091" height="1.03091" fill="black"/>
<rect x="55.5437" y="32.4883" width="1.03091" height="1.03091" fill="black"/>
<rect x="55.5437" y="31.4575" width="1.03091" height="1.03091" fill="black"/>
<rect x="55.5437" y="30.4265" width="1.03091" height="1.03091" fill="black"/>
<rect x="55.5437" y="29.3955" width="1.03091" height="1.03091" fill="black"/>
<rect x="55.5437" y="28.3647" width="1.03091" height="1.03091" fill="black"/>
<rect x="55.5437" y="27.3337" width="1.03091" height="1.03091" fill="black"/>
<rect x="55.5437" y="26.3027" width="1.03091" height="1.03091" fill="black"/>
<rect x="55.5437" y="25.272" width="1.03091" height="1.03091" fill="black"/>
<rect x="55.5437" y="24.241" width="1.03091" height="1.03091" fill="black"/>
<rect x="55.5437" y="23.2102" width="1.03091" height="1.03091" fill="black"/>
<rect x="55.5437" y="22.1792" width="1.03091" height="1.03091" fill="black"/>
<rect x="56.5745" y="21.1482" width="1.03091" height="1.03091" fill="black"/>
<rect x="56.5745" y="20.1174" width="1.03091" height="1.03091" fill="black"/>
<rect x="57.6057" y="19.0864" width="1.03091" height="1.03091" fill="black"/>
<rect x="55.5437" y="18.0554" width="1.03091" height="1.03091" fill="black"/>
<rect x="58.6365" y="18.0554" width="1.03091" height="1.03091" fill="black"/>
<rect x="56.5745" y="17.0247" width="1.03091" height="1.03091" fill="black"/>
<rect x="59.6675" y="17.0247" width="1.03091" height="1.03091" fill="black"/>
<rect x="57.6057" y="15.9937" width="1.03091" height="1.03091" fill="black"/>
<rect x="55.5437" y="14.9629" width="1.03091" height="1.03091" fill="black"/>
<rect x="60.6982" y="15.9937" width="1.03091" height="1.03091" fill="black"/>
<rect x="58.6365" y="14.9629" width="1.03091" height="1.03091" fill="black"/>
<rect x="61.729" y="14.9629" width="1.03091" height="1.03091" fill="black"/>
<rect x="62.76" y="14.9629" width="1.03091" height="1.03091" fill="black"/>
<rect x="63.791" y="13.932" width="1.03091" height="1.03091" fill="black"/>
<rect x="64.822" y="13.932" width="1.03091" height="1.03091" fill="black"/>
<rect x="65.8528" y="13.932" width="1.03091" height="1.03091" fill="black"/>
<rect x="66.8838" y="13.932" width="1.03091" height="1.03091" fill="black"/>
<rect x="67.9146" y="13.932" width="1.03091" height="1.03091" fill="black"/>
<rect x="68.9456" y="13.932" width="1.03091" height="1.03091" fill="black"/>
<rect x="69.9766" y="13.932" width="1.03091" height="1.03091" fill="black"/>
<rect x="71.0073" y="13.932" width="1.03091" height="1.03091" fill="black"/>
<rect x="72.0383" y="13.932" width="1.03091" height="1.03091" fill="black"/>
<rect x="73.0691" y="13.932" width="1.03091" height="1.03091" fill="black"/>
<rect x="74.1001" y="13.932" width="1.03091" height="1.03091" fill="black"/>
<rect x="75.1309" y="13.932" width="1.03091" height="1.03091" fill="black"/>
<rect x="76.1621" y="14.9629" width="1.03091" height="1.03091" fill="black"/>
<rect x="77.1929" y="14.9629" width="1.03091" height="1.03091" fill="black"/>
<rect x="78.2236" y="15.9937" width="1.03091" height="1.03091" fill="black"/>
<rect x="79.2546" y="13.932" width="1.03091" height="1.03091" fill="black"/>
<rect x="80.2854" y="14.9629" width="1.03091" height="1.03091" fill="black"/>
<rect x="82.3474" y="13.932" width="1.03091" height="1.03091" fill="black"/>
<rect x="81.3164" y="15.9937" width="1.03091" height="1.03091" fill="black"/>
<rect x="83.3784" y="14.9629" width="1.03091" height="1.03091" fill="black"/>
<rect x="82.3474" y="17.0247" width="1.03091" height="1.03091" fill="black"/>
<rect x="83.3784" y="18.0554" width="1.03091" height="1.03091" fill="black"/>
<rect x="79.2546" y="17.0247" width="1.03091" height="1.03091" fill="black"/>
<rect x="80.2854" y="18.0554" width="1.03091" height="1.03091" fill="black"/>
<rect x="81.3164" y="19.0864" width="1.03091" height="1.03091" fill="black"/>
<rect x="82.3474" y="20.1174" width="1.03091" height="1.03091" fill="black"/>
<rect x="82.3474" y="21.1482" width="1.03091" height="1.03091" fill="black"/>
<rect x="83.3784" y="22.1792" width="1.03091" height="1.03091" fill="black"/>
<rect x="83.3784" y="23.2102" width="1.03091" height="1.03091" fill="black"/>
<rect x="83.3784" y="24.241" width="1.03091" height="1.03091" fill="black"/>
<rect x="83.3784" y="25.272" width="1.03091" height="1.03091" fill="black"/>
<rect x="83.3784" y="26.3027" width="1.03091" height="1.03091" fill="black"/>
<rect x="83.3784" y="27.3337" width="1.03091" height="1.03091" fill="black"/>
<rect x="83.3784" y="28.3647" width="1.03091" height="1.03091" fill="black"/>
<rect x="83.3784" y="29.3955" width="1.03091" height="1.03091" fill="black"/>
<rect x="83.3784" y="30.4265" width="1.03091" height="1.03091" fill="black"/>
<rect x="83.3784" y="31.4575" width="1.03091" height="1.03091" fill="black"/>
<rect x="83.3784" y="32.4883" width="1.03091" height="1.03091" fill="black"/>
<rect x="83.3784" y="33.519" width="1.03091" height="1.03091" fill="black"/>
<rect x="82.3474" y="34.55" width="1.03091" height="1.03091" fill="black"/>
<rect x="82.3474" y="35.5811" width="1.03091" height="1.03091" fill="black"/>
<rect x="81.3164" y="36.6118" width="1.03091" height="1.03091" fill="black"/>
<rect x="82.3474" y="38.6738" width="1.03091" height="1.03091" fill="black"/>
<rect x="83.3784" y="40.7356" width="1.03091" height="1.03091" fill="black"/>
<rect x="80.2854" y="37.6428" width="1.03091" height="1.03091" fill="black"/>
<rect x="81.3164" y="39.7046" width="1.03091" height="1.03091" fill="black"/>
<rect x="62.76" y="38.6738" width="1.03091" height="1.03091" fill="black"/>
<rect x="60.6982" y="36.6118" width="1.03091" height="1.03091" fill="black"/>
<rect x="59.6675" y="35.5811" width="1.03091" height="1.03091" fill="black"/>
<rect x="78.2236" y="36.6118" width="1.03091" height="1.03091" fill="black"/>
<rect x="77.1929" y="37.6428" width="1.03091" height="1.03091" fill="black"/>
<rect x="79.2546" y="38.6738" width="1.03091" height="1.03091" fill="black"/>
<rect x="79.2546" y="35.5811" width="1.03091" height="1.03091" fill="black"/>
<rect x="80.2854" y="33.519" width="1.03091" height="1.03091" fill="black"/>
<rect x="80.2854" y="34.55" width="1.03091" height="1.03091" fill="black"/>
<rect width="1.03091" height="1.03091" transform="matrix(1 0 0 -1 58.6365 34.55)" fill="black"/>
<rect x="63.791" y="31.4575" width="1.03091" height="1.03091" fill="black"/>
<rect x="62.76" y="30.4265" width="1.03091" height="1.03091" fill="black"/>
<rect x="71.0073" y="31.4575" width="1.03091" height="1.03091" fill="black"/>
<rect x="73.0691" y="32.4883" width="1.03091" height="1.03091" fill="black"/>
<rect x="68.9456" y="32.4883" width="1.03091" height="1.03091" fill="black"/>
<rect x="74.1001" y="31.4575" width="1.03091" height="1.03091" fill="black"/>
<rect x="69.9766" y="31.4575" width="1.03091" height="1.03091" fill="black"/>
<rect x="72.0383" y="31.4575" width="1.03091" height="1.03091" fill="black"/>
<rect x="67.9146" y="31.4575" width="1.03091" height="1.03091" fill="black"/>
<rect x="68.9456" y="26.3027" width="1.03091" height="1.03091" fill="black"/>
<rect x="67.9146" y="28.3647" width="1.03091" height="1.03091" fill="black"/>
<rect x="68.9456" y="27.3337" width="1.03091" height="1.03091" fill="black"/>
<rect x="66.8838" y="26.3027" width="1.03091" height="1.03091" fill="black"/>
<rect x="66.8838" y="25.272" width="1.03091" height="1.03091" fill="black"/>
<rect x="66.8838" y="27.3337" width="1.03091" height="1.03091" fill="black"/>
<rect x="73.0691" y="26.3027" width="1.03091" height="1.03091" fill="black"/>
<rect x="68.9456" y="25.272" width="1.03091" height="1.03091" fill="black"/>
<rect x="66.8838" y="24.241" width="1.03091" height="1.03091" fill="black"/>
<rect x="65.8528" y="24.241" width="1.03091" height="1.03091" fill="black"/>
<rect x="64.822" y="25.272" width="1.03091" height="1.03091" fill="black"/>
<rect x="64.822" y="26.3027" width="1.03091" height="1.03091" fill="black"/>
<rect x="64.822" y="27.3337" width="1.03091" height="1.03091" fill="black"/>
<rect x="65.8528" y="28.3647" width="1.03091" height="1.03091" fill="black"/>
<rect x="66.8838" y="28.3647" width="1.03091" height="1.03091" fill="black"/>
<rect x="67.9146" y="24.241" width="1.03091" height="1.03091" fill="black"/>
<rect x="73.0691" y="25.272" width="1.03091" height="1.03091" fill="black"/>
<rect x="75.1309" y="24.241" width="1.03091" height="1.03091" fill="black"/>
<rect x="75.1309" y="26.3027" width="1.03091" height="1.03091" fill="black"/>
<rect x="75.1309" y="25.272" width="1.03091" height="1.03091" fill="black"/>
<rect x="75.1309" y="27.3337" width="1.03091" height="1.03091" fill="black"/>
<rect x="74.1001" y="24.241" width="1.03091" height="1.03091" fill="black"/>
<rect x="76.1621" y="24.241" width="1.03091" height="1.03091" fill="black"/>
<rect x="77.1929" y="25.272" width="1.03091" height="1.03091" fill="black"/>
<rect x="77.1929" y="26.3027" width="1.03091" height="1.03091" fill="black"/>
<rect x="77.1929" y="27.3337" width="1.03091" height="1.03091" fill="black"/>
<rect x="76.1621" y="28.3647" width="1.03091" height="1.03091" fill="black"/>
<rect x="75.1309" y="28.3647" width="1.03091" height="1.03091" fill="black"/>
<rect x="74.1001" y="28.3647" width="1.03091" height="1.03091" fill="black"/>
<rect x="73.0691" y="27.3337" width="1.03091" height="1.03091" fill="black"/>
</g>
<rect x="54.2947" y="12.6828" width="31.3636" height="31.3636" rx="12.4381" stroke="black" stroke-width="1.62544"/>
<path d="M41.2837 18.7041C41.2837 18.3553 41.0009 18.0725 40.6521 18.0725H38.7573C38.4085 18.0725 38.1257 18.3553 38.1257 18.7041V20.5989C38.1257 20.9477 38.4085 21.2305 38.7573 21.2305H40.6521C41.0009 21.2305 41.2837 20.9477 41.2837 20.5989V18.7041Z" fill="#DAFE9A"/>
<path d="M41.2838 38.0249C41.2838 38.3737 41.001 38.6565 40.6522 38.6565H38.7574C38.4086 38.6565 38.1258 38.3737 38.1258 38.0249V36.1301C38.1258 35.7813 38.4086 35.4985 38.7574 35.4985H40.6522C41.001 35.4985 41.2838 35.7813 41.2838 36.1301V38.0249Z" fill="#DAFE9A"/>
<path d="M41.2837 22.9897C41.2837 22.6409 41.0009 22.3581 40.6521 22.3581H38.7573C38.4085 22.3581 38.1257 22.6409 38.1257 22.9897V24.8845C38.1257 25.2333 38.4085 25.5161 38.7573 25.5161H40.6521C41.0009 25.5161 41.2837 25.2333 41.2837 24.8845V22.9897Z" fill="#DAFE9A"/>
<path d="M41.2838 33.7393C41.2838 34.0881 41.001 34.3709 40.6522 34.3709H38.7574C38.4086 34.3709 38.1258 34.0881 38.1258 33.7393V31.8445C38.1258 31.4957 38.4086 31.2129 38.7574 31.2129H40.6522C41.001 31.2129 41.2838 31.4957 41.2838 31.8445V33.7393Z" fill="#DAFE9A"/>
<path d="M37.9435 22.9897C37.9435 22.6409 37.6607 22.3581 37.3119 22.3581H35.4171C35.0683 22.3581 34.7855 22.6409 34.7855 22.9897V24.8845C34.7855 25.2333 35.0683 25.5161 35.4171 25.5161H37.3119C37.6607 25.5161 37.9435 25.2333 37.9435 24.8845V22.9897Z" fill="#DAFE9A"/>
<path d="M37.9435 33.7393C37.9435 34.0881 37.6607 34.3709 37.3119 34.3709H35.4171C35.0683 34.3709 34.7855 34.0881 34.7855 33.7393V31.8445C34.7855 31.4957 35.0683 31.2129 35.4171 31.2129H37.3119C37.6607 31.2129 37.9435 31.4957 37.9435 31.8445V33.7393Z" fill="#DAFE9A"/>
<path d="M37.9435 27.3698C37.9435 27.021 37.6607 26.7382 37.3119 26.7382H35.4171C35.0683 26.7382 34.7855 27.021 34.7855 27.3698V29.2646C34.7855 29.6134 35.0683 29.8962 35.4171 29.8962H37.3119C37.6607 29.8962 37.9435 29.6134 37.9435 29.2646V27.3698Z" fill="#DAFE9A"/>
<path d="M34.4142 27.3698C34.4142 27.021 34.1314 26.7382 33.7826 26.7382H31.8878C31.539 26.7382 31.2562 27.021 31.2562 27.3698V29.2646C31.2562 29.6134 31.539 29.8962 31.8878 29.8962H33.7826C34.1314 29.8962 34.4142 29.6134 34.4142 29.2646V27.3698Z" fill="#DAFE9A"/>
<path d="M44.813 18.7041C44.813 18.3553 44.5302 18.0725 44.1814 18.0725H42.2866C41.9378 18.0725 41.655 18.3553 41.655 18.7041V20.5989C41.655 20.9477 41.9378 21.2305 42.2866 21.2305H44.1814C44.5302 21.2305 44.813 20.9477 44.813 20.5989V18.7041Z" fill="#DAFE9A"/>
<path d="M44.813 38.0249C44.813 38.3737 44.5302 38.6565 44.1814 38.6565H42.2866C41.9378 38.6565 41.655 38.3737 41.655 38.0249V36.1301C41.655 35.7813 41.9378 35.4985 42.2866 35.4985H44.1814C44.5302 35.4985 44.813 35.7813 44.813 36.1301V38.0249Z" fill="#DAFE9A"/>
<path d="M25.8672 18.7041C25.8672 18.3553 25.5844 18.0725 25.2356 18.0725H23.3408C22.992 18.0725 22.7092 18.3553 22.7092 18.7041V20.5989C22.7092 20.9477 22.992 21.2305 23.3408 21.2305H25.2356C25.5844 21.2305 25.8672 20.9477 25.8672 20.5989V18.7041Z" fill="#DAFE9A"/>
<path d="M25.8672 38.0249C25.8672 38.3737 25.5845 38.6565 25.2356 38.6565H23.3409C22.992 38.6565 22.7093 38.3737 22.7093 38.0249V36.1301C22.7093 35.7813 22.992 35.4985 23.3409 35.4985H25.2356C25.5845 35.4985 25.8672 35.7813 25.8672 36.1301V38.0249Z" fill="#DAFE9A"/>
<path d="M25.8672 22.9897C25.8672 22.6409 25.5844 22.3581 25.2356 22.3581H23.3408C22.992 22.3581 22.7092 22.6409 22.7092 22.9897V24.8845C22.7092 25.2333 22.992 25.5161 23.3408 25.5161H25.2356C25.5844 25.5161 25.8672 25.2333 25.8672 24.8845V22.9897Z" fill="#DAFE9A"/>
<path d="M25.8672 33.7393C25.8672 34.0881 25.5845 34.3709 25.2356 34.3709H23.3409C22.992 34.3709 22.7093 34.0881 22.7093 33.7393V31.8445C22.7093 31.4957 22.992 31.2129 23.3409 31.2129H25.2356C25.5845 31.2129 25.8672 31.4957 25.8672 31.8445V33.7393Z" fill="#DAFE9A"/>
<path d="M22.527 22.9897C22.527 22.6409 22.2442 22.3581 21.8954 22.3581H20.0006C19.6518 22.3581 19.369 22.6409 19.369 22.9897V24.8845C19.369 25.2333 19.6518 25.5161 20.0006 25.5161H21.8954C22.2442 25.5161 22.527 25.2333 22.527 24.8845V22.9897Z" fill="#DAFE9A"/>
<path d="M22.527 33.7393C22.527 34.0881 22.2442 34.3709 21.8954 34.3709H20.0006C19.6518 34.3709 19.369 34.0881 19.369 33.7393V31.8445C19.369 31.4957 19.6518 31.2129 20.0006 31.2129H21.8954C22.2442 31.2129 22.527 31.4957 22.527 31.8445V33.7393Z" fill="#DAFE9A"/>
<path d="M22.527 27.3698C22.527 27.021 22.2442 26.7382 21.8954 26.7382H20.0006C19.6518 26.7382 19.369 27.021 19.369 27.3698V29.2646C19.369 29.6134 19.6518 29.8962 20.0006 29.8962H21.8954C22.2442 29.8962 22.527 29.6134 22.527 29.2646V27.3698Z" fill="#DAFE9A"/>
<path d="M18.9976 27.3698C18.9976 27.021 18.7149 26.7382 18.3661 26.7382H16.4713C16.1224 26.7382 15.8397 27.021 15.8397 27.3698V29.2646C15.8397 29.6134 16.1224 29.8962 16.4713 29.8962H18.3661C18.7149 29.8962 18.9976 29.6134 18.9976 29.2646V27.3698Z" fill="#DAFE9A"/>
<path d="M29.3965 18.7041C29.3965 18.3553 29.1137 18.0725 28.7649 18.0725H26.8701C26.5213 18.0725 26.2385 18.3553 26.2385 18.7041V20.5989C26.2385 20.9477 26.5213 21.2305 26.8701 21.2305H28.7649C29.1137 21.2305 29.3965 20.9477 29.3965 20.5989V18.7041Z" fill="#DAFE9A"/>
<path d="M29.3965 38.0249C29.3965 38.3737 29.1137 38.6565 28.7649 38.6565H26.8701C26.5213 38.6565 26.2385 38.3737 26.2385 38.0249V36.1301C26.2385 35.7813 26.5213 35.4985 26.8701 35.4985H28.7649C29.1137 35.4985 29.3965 35.7813 29.3965 36.1301V38.0249Z" fill="#DAFE9A"/>
<path d="M10.4507 18.7041C10.4507 18.3553 10.1679 18.0725 9.81907 18.0725H7.92429C7.57547 18.0725 7.29269 18.3553 7.29269 18.7041V20.5989C7.29269 20.9477 7.57547 21.2305 7.92429 21.2305H9.81907C10.1679 21.2305 10.4507 20.9477 10.4507 20.5989V18.7041Z" fill="#DAFE9A"/>
<path d="M10.4507 38.0249C10.4507 38.3737 10.1679 38.6565 9.81911 38.6565H7.92432C7.57551 38.6565 7.29273 38.3737 7.29273 38.0249V36.1301C7.29273 35.7813 7.57551 35.4985 7.92432 35.4985H9.81911C10.1679 35.4985 10.4507 35.7813 10.4507 36.1301V38.0249Z" fill="#DAFE9A"/>
<path d="M10.4507 22.9897C10.4507 22.6409 10.1679 22.3581 9.81907 22.3581H7.92429C7.57547 22.3581 7.29269 22.6409 7.29269 22.9897V24.8845C7.29269 25.2333 7.57547 25.5161 7.92429 25.5161H9.81907C10.1679 25.5161 10.4507 25.2333 10.4507 24.8845V22.9897Z" fill="#DAFE9A"/>
<path d="M10.4507 33.7393C10.4507 34.0881 10.1679 34.3709 9.81911 34.3709H7.92432C7.57551 34.3709 7.29273 34.0881 7.29273 33.7393V31.8445C7.29273 31.4957 7.57551 31.2129 7.92432 31.2129H9.81911C10.1679 31.2129 10.4507 31.4957 10.4507 31.8445V33.7393Z" fill="#DAFE9A"/>
<path d="M7.11043 22.9897C7.11043 22.6409 6.82766 22.3581 6.47884 22.3581H4.58406C4.23524 22.3581 3.95247 22.6409 3.95247 22.9897V24.8845C3.95247 25.2333 4.23524 25.5161 4.58406 25.5161H6.47884C6.82766 25.5161 7.11043 25.2333 7.11043 24.8845V22.9897Z" fill="#DAFE9A"/>
<path d="M7.11043 33.7393C7.11043 34.0881 6.82766 34.3709 6.47884 34.3709H4.58406C4.23524 34.3709 3.95247 34.0881 3.95247 33.7393V31.8445C3.95247 31.4957 4.23524 31.2129 4.58406 31.2129H6.47884C6.82766 31.2129 7.11043 31.4957 7.11043 31.8445V33.7393Z" fill="#DAFE9A"/>
<path d="M7.11043 27.3698C7.11043 27.021 6.82766 26.7382 6.47884 26.7382H4.58406C4.23524 26.7382 3.95247 27.021 3.95247 27.3698V29.2646C3.95247 29.6134 4.23524 29.8962 4.58406 29.8962H6.47884C6.82766 29.8962 7.11043 29.6134 7.11043 29.2646V27.3698Z" fill="#DAFE9A"/>
<path d="M3.58112 27.3698C3.58112 27.021 3.29834 26.7382 2.94952 26.7382H1.05474C0.705925 26.7382 0.423149 27.021 0.423149 27.3698V29.2646C0.423149 29.6134 0.705925 29.8962 1.05474 29.8962H2.94952C3.29834 29.8962 3.58112 29.6134 3.58112 29.2646V27.3698Z" fill="#DAFE9A"/>
<path d="M13.9799 18.7041C13.9799 18.3553 13.6972 18.0725 13.3483 18.0725H11.4536C11.1047 18.0725 10.822 18.3553 10.822 18.7041V20.5989C10.822 20.9477 11.1047 21.2305 11.4536 21.2305H13.3483C13.6972 21.2305 13.9799 20.9477 13.9799 20.5989V18.7041Z" fill="#DAFE9A"/>
<path d="M13.9799 38.0249C13.9799 38.3737 13.6972 38.6565 13.3483 38.6565H11.4536C11.1047 38.6565 10.822 38.3737 10.822 38.0249V36.1301C10.822 35.7813 11.1047 35.4985 11.4536 35.4985H13.3483C13.6972 35.4985 13.9799 35.7813 13.9799 36.1301V38.0249Z" fill="#DAFE9A"/>
<defs>
<clipPath id="clip0_173_32465">
<rect x="124.142" y="11.8701" width="32.9891" height="32.9891" rx="13.2508" fill="white"/>
</clipPath>
<clipPath id="clip1_173_32465">
<rect width="32.9891" height="32.9891" fill="white" transform="translate(124.142 11.8701)"/>
</clipPath>
<clipPath id="clip2_173_32465">
<rect x="77.8018" y="0.859863" width="55.0094" height="55.0094" rx="22.0958" fill="white"/>
</clipPath>
<clipPath id="clip3_173_32465">
<rect width="55.0094" height="55.0094" fill="white" transform="translate(77.8018 0.859863)"/>
</clipPath>
<clipPath id="clip4_173_32465">
<rect x="53.4819" y="11.8701" width="32.9891" height="32.9891" rx="13.2508" fill="white"/>
</clipPath>
<clipPath id="clip5_173_32465">
<rect width="32.9891" height="32.9891" fill="white" transform="translate(53.4819 11.8701)"/>
</clipPath>
</defs>
</svg>
