<svg width="112" height="45" viewBox="0 0 112 45" fill="none" xmlns="http://www.w3.org/2000/svg">
<rect x="0.771681" y="0.771681" width="109.887" height="42.5968" rx="21.2984" fill="#DAFE9A"/>
<rect x="0.771681" y="0.771681" width="109.887" height="42.5968" rx="21.2984" stroke="#10110F" stroke-width="1.54336"/>
<g clip-path="url(#clip0_173_31708)">
<rect x="4.93872" y="4.93872" width="34.2626" height="34.2626" rx="17.1313" fill="#10110F"/>
<path d="M9.08424 17.2684H10.3828V18.5669H9.08424V17.2684Z" fill="#DAFE9A"/>
<path d="M10.3833 15.97H11.6818V17.2685L10.3828 17.2684L10.3833 15.97Z" fill="#DAFE9A"/>
<path d="M10.3833 14.6712H11.6818V15.97H10.3833V14.6712Z" fill="#DAFE9A"/>
<path d="M11.6817 13.3728H12.9802V14.6714L11.6818 14.6712L11.6817 13.3728Z" fill="#DAFE9A"/>
<path d="M12.9801 12.0741H14.2786V13.3727L12.9802 13.3728L12.9801 12.0741Z" fill="#DAFE9A"/>
<path d="M14.2785 10.7757H15.577V12.0743L14.2786 12.0741L14.2785 10.7757Z" fill="#DAFE9A"/>
<path d="M15.577 10.7757H16.8754V12.0743H15.577V10.7757Z" fill="#DAFE9A"/>
<path d="M16.8759 9.47731H18.1745V10.7759L16.8754 10.7757L16.8759 9.47731Z" fill="#DAFE9A"/>
<path d="M15.5769 34.1495H16.8754V35.4481H15.5769V34.1495Z" fill="#DAFE9A"/>
<path d="M18.1745 9.47731H19.4729V10.7759H18.1745V9.47731Z" fill="#DAFE9A"/>
<path d="M19.4729 9.47731H20.7713V10.7759H19.4729V9.47731Z" fill="#DAFE9A"/>
<path d="M20.7713 9.47731H22.0697V10.7759H20.7713V9.47731Z" fill="#DAFE9A"/>
<path d="M22.0697 9.47731H23.3681V10.7759H22.0697V9.47731Z" fill="#DAFE9A"/>
<path d="M22.0695 34.1495H23.3681V35.4481H22.0695V34.1495Z" fill="#DAFE9A"/>
<path d="M23.3681 9.47731H24.6671V10.7759H23.3681V9.47731Z" fill="#DAFE9A"/>
<path d="M23.3681 34.1495H24.6671V35.4481H23.3681V34.1495Z" fill="#DAFE9A"/>
<path d="M24.6671 9.47731H25.9655V10.7759H24.6671V9.47731Z" fill="#DAFE9A"/>
<path d="M24.6671 34.1495H25.9655V35.4481H24.6671V34.1495Z" fill="#DAFE9A"/>
<path d="M25.9655 9.47731H27.2639V10.7759H25.9655V9.47731Z" fill="#DAFE9A"/>
<path d="M27.2638 34.1495H28.5623V35.4481H27.2638V34.1495Z" fill="#DAFE9A"/>
<path d="M27.2639 10.7759L28.5623 10.7757V12.0743H27.2638L27.2639 10.7759Z" fill="#DAFE9A"/>
<path d="M28.5623 10.7757H29.8614V12.0743H28.5623V10.7757Z" fill="#DAFE9A"/>
<path d="M9.08424 18.5669H10.3828V19.8656H9.08424V18.5669Z" fill="#DAFE9A"/>
<path d="M9.08424 19.8656H10.3828V21.164H9.08424V19.8656Z" fill="#DAFE9A"/>
<path d="M9.08424 21.164H10.3828V22.4628H9.08424V21.164Z" fill="#DAFE9A"/>
<path d="M9.08424 22.4628H10.3828V23.7612H9.08424V22.4628Z" fill="#DAFE9A"/>
<path d="M9.08424 23.7612H10.3828V25.0596H9.08424V23.7612Z" fill="#DAFE9A"/>
<path d="M9.08424 25.0596H10.3828V26.3583H9.08424V25.0596Z" fill="#DAFE9A"/>
<path d="M9.08424 26.3583H10.3828V27.6567H9.08424V26.3583Z" fill="#DAFE9A"/>
<path d="M10.3828 27.6567L11.6818 27.6569V28.9554H10.3833L10.3828 27.6567Z" fill="#DAFE9A"/>
<path d="M10.3833 28.9554H11.6818V30.2538H10.3833V28.9554Z" fill="#DAFE9A"/>
<path d="M11.6818 30.2538L12.9802 30.254V31.5525H11.6817L11.6818 30.2538Z" fill="#DAFE9A"/>
<path d="M12.9802 31.5525L14.2786 31.5524V32.8509H12.9801L12.9802 31.5525Z" fill="#DAFE9A"/>
<path d="M14.2786 32.8509L15.577 32.8508L15.5769 34.1495L14.2785 34.1493L14.2786 32.8509Z" fill="#DAFE9A"/>
<path d="M28.5629 32.8508H29.8614V34.1493L28.5623 34.1495L28.5629 32.8508Z" fill="#DAFE9A"/>
<path d="M33.7565 26.3581H35.055V27.6567H33.7565V26.3581Z" fill="#DAFE9A"/>
<path d="M32.4581 28.9553H33.7566V30.2538H32.4581V28.9553Z" fill="#DAFE9A"/>
<path d="M31.1597 30.254L32.4581 30.2538L32.4582 31.5525H31.1597V30.254Z" fill="#DAFE9A"/>
<path d="M29.8612 31.5524L31.1597 31.5525L31.1598 32.8509L29.8614 32.8508L29.8612 31.5524Z" fill="#DAFE9A"/>
<path d="M33.7565 17.2684H35.055V18.5669H33.7565V17.2684Z" fill="#DAFE9A"/>
<path d="M33.7565 18.5669H35.055V19.8656H33.7565V18.5669Z" fill="#DAFE9A"/>
<path d="M33.7565 19.8656H35.055V21.164H33.7565V19.8656Z" fill="#DAFE9A"/>
<path d="M33.7565 21.164H35.055V22.4628H33.7565V21.164Z" fill="#DAFE9A"/>
<path d="M32.4581 27.6569L33.7565 27.6567L33.7566 28.9553H32.4581V27.6569Z" fill="#DAFE9A"/>
<path d="M33.7565 21.164H35.055V22.4628H33.7565V21.164Z" fill="#DAFE9A"/>
<path d="M32.4581 15.97H33.7566L33.7565 17.2684L32.4581 17.2685V15.97Z" fill="#DAFE9A"/>
<path d="M32.4581 14.6712H33.7566V15.97H32.4581V14.6712Z" fill="#DAFE9A"/>
<path d="M29.8614 12.0743L31.1598 12.0741V13.3727H29.8612L29.8614 12.0743Z" fill="#DAFE9A"/>
<path d="M31.1598 13.3727L32.4582 13.3728L32.4581 14.6712L31.1597 14.6714L31.1598 13.3727Z" fill="#DAFE9A"/>
<path d="M33.7565 25.0597H35.055V26.3581H33.7565V25.0597Z" fill="#DAFE9A"/>
<path d="M33.7565 23.761H35.055V25.0597H33.7565V23.761Z" fill="#DAFE9A"/>
<path d="M33.7565 22.4628H35.055V23.761H33.7565V22.4628Z" fill="#DAFE9A"/>
<path d="M15.5769 35.4481H16.8754V36.7465L15.577 36.7467L15.5769 35.4481Z" fill="#DAFE9A"/>
<path d="M28.5623 35.4481L29.8614 35.4479V36.7465H28.5629L28.5623 35.4481Z" fill="#DAFE9A"/>
<path d="M4.36781 15.4605H6.13798V17.2307H4.36781V15.4605Z" fill="#DAFE9A"/>
<path d="M6.13868 13.6905H7.90885V15.4607L6.13798 15.4605L6.13868 13.6905Z" fill="#DAFE9A"/>
<path d="M6.13868 11.9201H7.90885V13.6905H6.13868V11.9201Z" fill="#DAFE9A"/>
<path d="M7.90866 10.1501H9.67883V11.9203L7.90885 11.9201L7.90866 10.1501Z" fill="#DAFE9A"/>
<path d="M9.67864 8.37968H11.4488V10.1499L9.67883 10.1501L9.67864 8.37968Z" fill="#DAFE9A"/>
<path d="M11.4486 6.6097H13.2188V8.37988L11.4488 8.37968L11.4486 6.6097Z" fill="#DAFE9A"/>
<path d="M13.2188 6.6097H14.9888V8.37988H13.2188V6.6097Z" fill="#DAFE9A"/>
<path d="M14.9895 4.83972H16.7597V6.6099L14.9888 6.6097L14.9895 4.83972Z" fill="#DAFE9A"/>
<path d="M13.2186 38.4729H14.9888V40.2431H13.2186V38.4729Z" fill="#DAFE9A"/>
<path d="M16.7597 4.83972H18.5296V6.6099H16.7597V4.83972Z" fill="#DAFE9A"/>
<path d="M18.5296 4.83972H20.2996V6.6099H18.5296V4.83972Z" fill="#DAFE9A"/>
<path d="M20.2996 4.83972H22.0696V6.6099H20.2996V4.83972Z" fill="#DAFE9A"/>
<path d="M22.0696 4.83972H23.8396V6.6099H22.0696V4.83972Z" fill="#DAFE9A"/>
<path d="M22.0694 38.4729H23.8396V40.2431H22.0694V38.4729Z" fill="#DAFE9A"/>
<path d="M23.8396 4.83972H25.6104V6.6099H23.8396V4.83972Z" fill="#DAFE9A"/>
<path d="M23.8396 38.4729H25.6104V40.2431H23.8396V38.4729Z" fill="#DAFE9A"/>
<path d="M25.6104 4.83972H27.3804V6.6099H25.6104V4.83972Z" fill="#DAFE9A"/>
<path d="M25.6104 38.4729H27.3804V40.2431H25.6104V38.4729Z" fill="#DAFE9A"/>
<path d="M27.3804 4.83972H29.1504V6.6099H27.3804V4.83972Z" fill="#DAFE9A"/>
<path d="M29.1502 38.4729H30.9204V40.2431H29.1502V38.4729Z" fill="#DAFE9A"/>
<path d="M29.1504 6.6099L30.9204 6.6097V8.37988H29.1502L29.1504 6.6099Z" fill="#DAFE9A"/>
<path d="M30.9204 6.6097H32.6913V8.37988H30.9204V6.6097Z" fill="#DAFE9A"/>
<path d="M4.36781 17.2307H6.13798V19.0011H4.36781V17.2307Z" fill="#DAFE9A"/>
<path d="M4.36781 19.0011H6.13798V20.7711H4.36781V19.0011Z" fill="#DAFE9A"/>
<path d="M4.36781 20.7711H6.13798V22.5415H4.36781V20.7711Z" fill="#DAFE9A"/>
<path d="M4.36781 22.5415H6.13798V24.3115H4.36781V22.5415Z" fill="#DAFE9A"/>
<path d="M4.36781 24.3115H6.13798V26.0815H4.36781V24.3115Z" fill="#DAFE9A"/>
<path d="M4.36781 26.0815H6.13798V27.8519H4.36781V26.0815Z" fill="#DAFE9A"/>
<path d="M4.36781 27.8519H6.13798V29.6219H4.36781V27.8519Z" fill="#DAFE9A"/>
<path d="M6.13798 29.6219L7.90885 29.6221V31.3923H6.13868L6.13798 29.6219Z" fill="#DAFE9A"/>
<path d="M6.13868 31.3923H7.90885V33.1623H6.13868V31.3923Z" fill="#DAFE9A"/>
<path d="M7.90885 33.1623L9.67883 33.1625V34.9327H7.90866L7.90885 33.1623Z" fill="#DAFE9A"/>
<path d="M9.67883 34.9327L11.4488 34.9325V36.7027H9.67864L9.67883 34.9327Z" fill="#DAFE9A"/>
<path d="M11.4488 36.7027L13.2188 36.7025L13.2186 38.4729L11.4486 38.4727L11.4488 36.7027Z" fill="#DAFE9A"/>
<path d="M30.9211 36.7025H32.6913V38.4727L30.9204 38.4729L30.9211 36.7025Z" fill="#DAFE9A"/>
<path d="M38.001 27.8517H39.7712V29.6219H38.001V27.8517Z" fill="#DAFE9A"/>
<path d="M36.231 31.3921H38.0012V33.1623H36.231V31.3921Z" fill="#DAFE9A"/>
<path d="M34.4611 33.1625L36.231 33.1623L36.2312 34.9327H34.4611V33.1625Z" fill="#DAFE9A"/>
<path d="M32.6911 34.9325L34.4611 34.9327L34.4612 36.7027L32.6913 36.7025L32.6911 34.9325Z" fill="#DAFE9A"/>
<path d="M38.001 15.4605H39.7712V17.2307H38.001V15.4605Z" fill="#DAFE9A"/>
<path d="M38.001 17.2307H39.7712V19.0011H38.001V17.2307Z" fill="#DAFE9A"/>
<path d="M38.001 19.0011H39.7712V20.7711H38.001V19.0011Z" fill="#DAFE9A"/>
<path d="M38.001 20.7711H39.7712V22.5415H38.001V20.7711Z" fill="#DAFE9A"/>
<path d="M36.231 29.6221L38.001 29.6219L38.0012 31.3921H36.231V29.6221Z" fill="#DAFE9A"/>
<path d="M38.001 20.7711H39.7712V22.5415H38.001V20.7711Z" fill="#DAFE9A"/>
<path d="M36.231 13.6905H38.0012L38.001 15.4605L36.231 15.4607V13.6905Z" fill="#DAFE9A"/>
<path d="M36.231 11.9201H38.0012V13.6905H36.231V11.9201Z" fill="#DAFE9A"/>
<path d="M32.6913 8.37988L34.4612 8.37968V10.1499H32.6911L32.6913 8.37988Z" fill="#DAFE9A"/>
<path d="M34.4612 10.1499L36.2312 10.1501L36.231 11.9201L34.4611 11.9203L34.4612 10.1499Z" fill="#DAFE9A"/>
<path d="M38.001 26.0817H39.7712V27.8517H38.001V26.0817Z" fill="#DAFE9A"/>
<path d="M38.001 24.3113H39.7712V26.0817H38.001V24.3113Z" fill="#DAFE9A"/>
<path d="M38.001 22.5415H39.7712V24.3113H38.001V22.5415Z" fill="#DAFE9A"/>
<path d="M11.4486 42.0133H13.2188V43.7835H11.4486V42.0133Z" fill="#DAFE9A"/>
<path d="M13.2186 40.2431H14.9888V42.0131L13.2188 42.0133L13.2186 40.2431Z" fill="#DAFE9A"/>
<path d="M30.9204 40.2431L32.6913 40.2429V42.0131H30.9211L30.9204 40.2431Z" fill="#DAFE9A"/>
<path d="M32.6913 40.2429H34.4612V42.0131H32.6913V40.2429Z" fill="#DAFE9A"/>
<path d="M34.4612 42.0131L36.2312 42.0133V43.7835H34.4611L34.4612 42.0131Z" fill="#DAFE9A"/>
<path d="M36.2312 42.0133H38.0012V43.7835H36.2312V42.0133Z" fill="#DAFE9A"/>
<path d="M39.7719 45.5537H41.5421V47.3239H39.7719V45.5537Z" fill="#DAFE9A"/>
<path d="M41.5421 47.3239L43.312 47.3237V49.0939H41.5419L41.5421 47.3239Z" fill="#DAFE9A"/>
<path d="M43.312 49.0939L45.082 49.0942V50.8643H43.3119L43.312 49.0939Z" fill="#DAFE9A"/>
<path d="M38.0012 43.7835L39.7712 43.7833L39.7719 45.5537L38.001 45.5535L38.0012 43.7835Z" fill="#DAFE9A"/>
<path d="M9.67864 42.0133H11.4486V43.7835H9.67864V42.0133Z" fill="#DAFE9A"/>
<path d="M7.90866 43.7833L9.67864 43.7835L9.67883 45.5535H7.90866V43.7833Z" fill="#DAFE9A"/>
<path d="M4.36781 45.5537H6.13798V47.3239H4.36781V45.5537Z" fill="#DAFE9A"/>
<path d="M2.59783 47.3237L4.36781 47.3239L4.368 49.0939H2.59783V47.3237Z" fill="#DAFE9A"/>
<path d="M4.36781 45.5537H6.13798V47.3239H4.36781V45.5537Z" fill="#DAFE9A"/>
<path d="M6.13868 43.7833H7.90866V45.5535L6.13798 45.5537L6.13868 43.7833Z" fill="#DAFE9A"/>
<path d="M0.827843 49.0942L2.59783 49.0939L2.59802 50.8643H0.827843V49.0942Z" fill="#DAFE9A"/>
<path d="M-0.942139 49.0942H0.827843V50.8643H-0.942139V49.0942Z" fill="#DAFE9A"/>
<path d="M10.3828 17.2684H9.08424V18.5669M10.3828 17.2684V18.5669M10.3828 17.2684L11.6818 17.2685V15.97M10.3828 17.2684L10.3833 15.97M10.3828 18.5669H9.08424M10.3828 18.5669V19.8656M9.08424 18.5669V19.8656M10.3833 15.97H11.6818M10.3833 15.97V14.6712H11.6818M11.6818 15.97V14.6712M11.6818 14.6712L12.9802 14.6714V13.3728M11.6818 14.6712L11.6817 13.3728H12.9802M12.9802 13.3728L14.2786 13.3727V12.0741M12.9802 13.3728L12.9801 12.0741H14.2786M14.2786 12.0741L15.577 12.0743M14.2786 12.0741L14.2785 10.7757H15.577M15.577 10.7757V12.0743M15.577 10.7757H16.8754M15.577 12.0743H16.8754V10.7757M16.8754 10.7757L18.1745 10.7759M16.8754 10.7757L16.8759 9.47731H18.1745M18.1745 9.47731V10.7759M18.1745 9.47731H19.4729M18.1745 10.7759H19.4729M15.5769 34.1495H16.8754V35.4481M15.5769 34.1495V35.4481M15.5769 34.1495L15.577 32.8508L14.2786 32.8509M15.5769 34.1495L14.2785 34.1493L14.2786 32.8509M16.8754 35.4481H15.5769M16.8754 35.4481V36.7465L15.577 36.7467L15.5769 35.4481M19.4729 9.47731V10.7759M19.4729 9.47731H20.7713M19.4729 10.7759H20.7713M20.7713 9.47731V10.7759M20.7713 9.47731H22.0697M20.7713 10.7759H22.0697M22.0697 9.47731V10.7759M22.0697 9.47731H23.3681M22.0697 10.7759H23.3681M23.3681 9.47731V10.7759M23.3681 9.47731H24.6671M23.3681 10.7759H24.6671M23.3681 34.1495H22.0695V35.4481H23.3681M23.3681 34.1495V35.4481M23.3681 34.1495H24.6671M23.3681 35.4481H24.6671M24.6671 9.47731V10.7759M24.6671 9.47731H25.9655M24.6671 10.7759H25.9655M24.6671 34.1495V35.4481M24.6671 34.1495H25.9655V35.4481H24.6671M25.9655 9.47731V10.7759M25.9655 9.47731H27.2639V10.7759M25.9655 10.7759H27.2639M27.2639 10.7759L28.5623 10.7757M27.2639 10.7759L27.2638 12.0743H28.5623M28.5623 34.1495H27.2638V35.4481H28.5623M28.5623 34.1495V35.4481M28.5623 34.1495L29.8614 34.1493V32.8508M28.5623 34.1495L28.5629 32.8508H29.8614M28.5623 35.4481L29.8614 35.4479V36.7465H28.5629L28.5623 35.4481ZM28.5623 10.7757V12.0743M28.5623 10.7757H29.8614V12.0743M28.5623 12.0743H29.8614M29.8614 12.0743L31.1598 12.0741V13.3727M29.8614 12.0743L29.8613 13.3727H31.1598M10.3828 19.8656H9.08424M10.3828 19.8656V21.164M9.08424 19.8656V21.164M10.3828 21.164H9.08424M10.3828 21.164V22.4628M9.08424 21.164V22.4628M10.3828 22.4628H9.08424M10.3828 22.4628V23.7612M9.08424 22.4628V23.7612M10.3828 23.7612H9.08424M10.3828 23.7612V25.0596M9.08424 23.7612V25.0596M10.3828 25.0596H9.08424M10.3828 25.0596V26.3583M9.08424 25.0596V26.3583M10.3828 26.3583H9.08424M10.3828 26.3583V27.6567M9.08424 26.3583V27.6567H10.3828M10.3828 27.6567L11.6818 27.6569V28.9554M10.3828 27.6567L10.3833 28.9554M11.6818 28.9554H10.3833M11.6818 28.9554V30.2538M10.3833 28.9554V30.2538H11.6818M11.6818 30.2538L12.9802 30.254V31.5525M11.6818 30.2538L11.6817 31.5525H12.9802M12.9802 31.5525L14.2786 31.5524V32.8509M12.9802 31.5525L12.9801 32.8509H14.2786M29.8614 32.8508L31.1598 32.8509L31.1597 31.5525M29.8614 32.8508L29.8613 31.5524L31.1597 31.5525M33.7564 26.3581H35.055M33.7564 26.3581V27.6567M33.7564 26.3581V25.0597M35.055 26.3581V27.6567H33.7564M35.055 26.3581V25.0597M33.7564 27.6567L32.4581 27.6569V28.9553M33.7564 27.6567L33.7566 28.9553M32.4581 28.9553H33.7566M32.4581 28.9553V30.2538M33.7566 28.9553V30.2538H32.4581M32.4581 30.2538L31.1597 30.254V31.5525M32.4581 30.2538L32.4582 31.5525H31.1597M33.7564 17.2684H35.055V18.5669M33.7564 17.2684V18.5669M33.7564 17.2684L33.7566 15.97M33.7564 17.2684L32.4581 17.2685V15.97M35.055 18.5669H33.7564M35.055 18.5669V19.8656M33.7564 18.5669V19.8656M35.055 19.8656H33.7564M35.055 19.8656V21.164M33.7564 19.8656V21.164M35.055 21.164H33.7564M35.055 21.164V22.4628M33.7564 21.164V22.4628M35.055 22.4628H33.7564M35.055 22.4628V23.761M33.7564 22.4628V23.761M32.4581 15.97H33.7566M32.4581 15.97V14.6712M33.7566 15.97V14.6712H32.4581M32.4581 14.6712L32.4582 13.3728L31.1598 13.3727M32.4581 14.6712L31.1597 14.6714L31.1598 13.3727M33.7564 25.0597H35.055M33.7564 25.0597V23.761M35.055 25.0597V23.761M33.7564 23.761H35.055M6.13798 15.4605H4.36781V17.2307M6.13798 15.4605V17.2307M6.13798 15.4605L7.90885 15.4607V13.6905M6.13798 15.4605L6.13868 13.6905M6.13798 17.2307H4.36781M6.13798 17.2307V19.0011M4.36781 17.2307V19.0011M6.13868 13.6905H7.90885M6.13868 13.6905V11.9201H7.90885M7.90885 13.6905V11.9201M7.90885 11.9201L9.67884 11.9203V10.1501M7.90885 11.9201L7.90866 10.1501H9.67884M9.67884 10.1501L11.4488 10.1499V8.37968M9.67884 10.1501L9.67864 8.37968H11.4488M11.4488 8.37968L13.2188 8.37988M11.4488 8.37968L11.4486 6.6097H13.2188M13.2188 6.6097V8.37988M13.2188 6.6097H14.9888M13.2188 8.37988H14.9888V6.6097M14.9888 6.6097L16.7597 6.6099M14.9888 6.6097L14.9895 4.83972H16.7597M16.7597 4.83972V6.6099M16.7597 4.83972H18.5296M16.7597 6.6099H18.5296M13.2186 38.4729H14.9888V40.2431M13.2186 38.4729V40.2431M13.2186 38.4729L13.2188 36.7025L11.4488 36.7027M13.2186 38.4729L11.4486 38.4727L11.4488 36.7027M14.9888 40.2431H13.2186M14.9888 40.2431V42.0131L13.2188 42.0133M13.2186 40.2431L13.2188 42.0133M18.5296 4.83972V6.6099M18.5296 4.83972H20.2996M18.5296 6.6099H20.2996M20.2996 4.83972V6.6099M20.2996 4.83972H22.0696M20.2996 6.6099H22.0696M22.0696 4.83972V6.6099M22.0696 4.83972H23.8396M22.0696 6.6099H23.8396M23.8396 4.83972V6.6099M23.8396 4.83972H25.6104M23.8396 6.6099H25.6104M23.8396 38.4729H22.0694V40.2431H23.8396M23.8396 38.4729V40.2431M23.8396 38.4729H25.6104M23.8396 40.2431H25.6104M25.6104 4.83972V6.6099M25.6104 4.83972H27.3804M25.6104 6.6099H27.3804M25.6104 38.4729V40.2431M25.6104 38.4729H27.3804V40.2431H25.6104M27.3804 4.83972V6.6099M27.3804 4.83972H29.1504V6.6099M27.3804 6.6099H29.1504M29.1504 6.6099L30.9204 6.6097M29.1504 6.6099L29.1502 8.37988H30.9204M30.9204 38.4729H29.1502V40.2431H30.9204M30.9204 38.4729V40.2431M30.9204 38.4729L32.6913 38.4727V36.7025M30.9204 38.4729L30.9211 36.7025H32.6913M30.9204 40.2431L32.6913 40.2429M30.9204 40.2431L30.9211 42.0131H32.6913M30.9204 6.6097V8.37988M30.9204 6.6097H32.6913V8.37988M30.9204 8.37988H32.6913M32.6913 8.37988L34.4612 8.37968V10.1499M32.6913 8.37988L32.6911 10.1499H34.4612M6.13798 19.0011H4.36781M6.13798 19.0011V20.7711M4.36781 19.0011V20.7711M6.13798 20.7711H4.36781M6.13798 20.7711V22.5415M4.36781 20.7711V22.5415M6.13798 22.5415H4.36781M6.13798 22.5415V24.3115M4.36781 22.5415V24.3115M6.13798 24.3115H4.36781M6.13798 24.3115V26.0815M4.36781 24.3115V26.0815M6.13798 26.0815H4.36781M6.13798 26.0815V27.8519M4.36781 26.0815V27.8519M6.13798 27.8519H4.36781M6.13798 27.8519V29.6219M4.36781 27.8519V29.6219H6.13798M6.13798 29.6219L7.90885 29.6221V31.3923M6.13798 29.6219L6.13868 31.3923M7.90885 31.3923H6.13868M7.90885 31.3923V33.1623M6.13868 31.3923V33.1623H7.90885M7.90885 33.1623L9.67884 33.1625V34.9327M7.90885 33.1623L7.90866 34.9327H9.67884M9.67884 34.9327L11.4488 34.9325V36.7027M9.67884 34.9327L9.67864 36.7027H11.4488M32.6913 36.7025L34.4612 36.7027L34.4611 34.9327M32.6913 36.7025L32.6911 34.9325L34.4611 34.9327M38.001 27.8517H39.7712M38.001 27.8517V29.6219M38.001 27.8517V26.0817M39.7712 27.8517V29.6219H38.001M39.7712 27.8517V26.0817M38.001 29.6219L36.231 29.6221V31.3921M38.001 29.6219L38.0012 31.3921M36.231 31.3921H38.0012M36.231 31.3921V33.1623M38.0012 31.3921V33.1623H36.231M36.231 33.1623L34.4611 33.1625V34.9327M36.231 33.1623L36.2312 34.9327H34.4611M38.001 15.4605H39.7712V17.2307M38.001 15.4605V17.2307M38.001 15.4605L38.0012 13.6905M38.001 15.4605L36.231 15.4607V13.6905M39.7712 17.2307H38.001M39.7712 17.2307V19.0011M38.001 17.2307V19.0011M39.7712 19.0011H38.001M39.7712 19.0011V20.7711M38.001 19.0011V20.7711M39.7712 20.7711H38.001M39.7712 20.7711V22.5415M38.001 20.7711V22.5415M39.7712 22.5415H38.001M39.7712 22.5415V24.3113M38.001 22.5415V24.3113M36.231 13.6905H38.0012M36.231 13.6905V11.9201M38.0012 13.6905V11.9201H36.231M36.231 11.9201L36.2312 10.1501L34.4612 10.1499M36.231 11.9201L34.4611 11.9203L34.4612 10.1499M38.001 26.0817H39.7712M38.001 26.0817V24.3113M39.7712 26.0817V24.3113M38.001 24.3113H39.7712M11.4486 42.0133H13.2188M11.4486 42.0133V43.7835M11.4486 42.0133H9.67864V43.7835M13.2188 42.0133V43.7835H11.4486M11.4486 43.7835H9.67864M32.6913 40.2429V42.0131M32.6913 40.2429H34.4612V42.0131M32.6913 42.0131H34.4612M34.4612 42.0131L36.2312 42.0133M34.4612 42.0131L34.4611 43.7835H36.2312M36.2312 42.0133V43.7835M36.2312 42.0133H38.0012V43.7835M36.2312 43.7835H38.0012M38.0012 43.7835L39.7712 43.7833L39.7719 45.5537M38.0012 43.7835L38.001 45.5535L39.7719 45.5537M39.7719 45.5537H41.5421V47.3239M39.7719 45.5537V47.3239H41.5421M41.5421 47.3239L43.312 47.3237V49.0939M41.5421 47.3239L41.5419 49.0939H43.312M43.312 49.0939L45.082 49.0942V50.8643H43.3119L43.312 49.0939ZM9.67864 43.7835L7.90866 43.7833M9.67864 43.7835L9.67884 45.5535H7.90866M7.90866 43.7833V45.5535M7.90866 43.7833H6.13868L6.13798 45.5537M7.90866 45.5535L6.13798 45.5537M6.13798 45.5537H4.36781V47.3239M6.13798 45.5537V47.3239H4.36781M4.36781 47.3239L2.59783 47.3237V49.0939M4.36781 47.3239L4.368 49.0939H2.59783M2.59783 49.0939L0.827843 49.0942M2.59783 49.0939L2.59802 50.8643H0.827843M0.827843 49.0942V50.8643M0.827843 49.0942H-0.942139V50.8643H0.827843" stroke="#DAFE9A" stroke-width="0.364042"/>
<path d="M15.0889 27.6338V18.0686H17.1801L17.3802 19.5597H17.5075C17.6287 19.2445 17.7863 18.9596 17.9803 18.705C18.1742 18.4383 18.4167 18.2262 18.7077 18.0686C18.9986 17.911 19.3381 17.8322 19.726 17.8322C19.9321 17.8322 20.12 17.8564 20.2898 17.9049C20.4595 17.9413 20.5868 17.9776 20.6716 18.014V20.3053H19.8897C19.5139 20.3053 19.1805 20.3599 18.8895 20.469C18.6107 20.566 18.3743 20.7236 18.1803 20.9418C17.9863 21.16 17.8409 21.4267 17.7439 21.7419C17.659 22.0571 17.6166 22.4269 17.6166 22.8512V27.6338H15.0889Z" fill="#DAFE9A"/>
<path d="M26.0202 27.8521C25.0018 27.8521 24.1471 27.6763 23.4561 27.3247C22.7651 26.961 22.2377 26.4094 21.874 25.6699C21.5224 24.9182 21.3466 23.9787 21.3466 22.8512C21.3466 21.6995 21.5224 20.7599 21.874 20.0325C22.2377 19.293 22.7651 18.7414 23.4561 18.3777C24.1592 18.014 25.0139 17.8322 26.0202 17.8322C26.6748 17.8322 27.2628 17.911 27.7841 18.0686C28.3175 18.2262 28.7782 18.4686 29.1662 18.796C29.5541 19.1233 29.8451 19.5294 30.039 20.0143C30.2451 20.4872 30.3482 21.0509 30.3482 21.7055H27.8205C27.8205 21.2691 27.7538 20.9115 27.6204 20.6326C27.4871 20.3538 27.281 20.1416 27.0021 19.9962C26.7354 19.8507 26.396 19.7779 25.9838 19.7779C25.4989 19.7779 25.1048 19.8871 24.8018 20.1053C24.4987 20.3235 24.2744 20.6448 24.1289 21.0691C23.9834 21.4934 23.9107 22.0208 23.9107 22.6512V23.0694C23.9107 23.6877 23.9834 24.209 24.1289 24.6333C24.2865 25.0576 24.5229 25.3789 24.8381 25.5971C25.1533 25.8032 25.5655 25.9063 26.0747 25.9063C26.4869 25.9063 26.8264 25.8335 27.0931 25.6881C27.3719 25.5426 27.5841 25.3244 27.7295 25.0334C27.875 24.7424 27.9478 24.3909 27.9478 23.9787H30.3482C30.3482 24.597 30.2451 25.1486 30.039 25.6335C29.8451 26.1184 29.5541 26.5246 29.1662 26.8519C28.7903 27.1792 28.3357 27.4277 27.8023 27.5975C27.2689 27.7672 26.6748 27.8521 26.0202 27.8521Z" fill="#DAFE9A"/>
</g>
<rect x="4.38391" y="4.38391" width="35.3723" height="35.3723" rx="17.6861" stroke="#DAFE9A" stroke-width="1.10962"/>
<path d="M48.0911 13.7574L47.2577 11.912H47.972C48.1307 11.1051 48.4383 10.4735 48.8947 10.0171C49.3576 9.55413 50.0091 9.32264 50.8491 9.32264C50.9946 9.32264 51.1269 9.33256 51.246 9.3524C51.3716 9.37225 51.4907 9.3954 51.6031 9.42185L51.7519 12.4875C51.613 12.4478 51.451 12.4213 51.2658 12.4081C51.0806 12.3883 50.8921 12.3783 50.7003 12.3783C50.0521 12.3783 49.5065 12.5007 49.0633 12.7454C48.6202 12.9835 48.2961 13.3208 48.0911 13.7574ZM45.1147 19.2338V9.48138H47.972L47.843 12.5966L48.1506 12.6363V19.2338H45.1147Z" fill="#1D1F1B"/>
<path d="M58.3349 19.2338L58.4242 16.7932L58.3547 16.6444V13.5986L58.3349 13.2018C58.3349 12.6594 58.1761 12.2593 57.8587 12.0013C57.5412 11.7434 57.0088 11.6144 56.2614 11.6144C55.6066 11.6144 54.9849 11.6971 54.3962 11.8624C53.8076 12.0278 53.252 12.2163 52.7295 12.4279L52.9874 10.0766C53.2983 9.93113 53.6455 9.79555 54.0291 9.66988C54.4194 9.5376 54.8493 9.43177 55.3189 9.3524C55.7885 9.27304 56.2911 9.23335 56.8269 9.23335C57.6801 9.23335 58.3944 9.33256 58.9698 9.53098C59.5453 9.72941 60.0049 10.0105 60.3489 10.3743C60.6928 10.738 60.9408 11.1746 61.0929 11.6839C61.2451 12.1865 61.3211 12.7421 61.3211 13.3506V19.2338H58.3349ZM55.2296 19.462C54.2573 19.462 53.5198 19.2173 53.0172 18.7278C52.5145 18.2384 52.2632 17.5406 52.2632 16.6345V16.3666C52.2632 15.4076 52.5575 14.6999 53.1462 14.2435C53.7414 13.7805 54.6839 13.4663 55.9737 13.301L58.5928 12.9538L58.7714 14.7792L56.4499 15.1166C55.9803 15.1761 55.6496 15.2852 55.4578 15.444C55.266 15.6027 55.1701 15.8375 55.1701 16.1483V16.2178C55.1701 16.5154 55.266 16.7535 55.4578 16.9321C55.6496 17.1041 55.9571 17.1901 56.3804 17.1901C56.7508 17.1901 57.0683 17.1338 57.3329 17.0214C57.604 16.909 57.8256 16.7635 57.9976 16.5849C58.1695 16.3997 58.2985 16.1946 58.3845 15.9698L58.8111 17.2H58.315C58.2092 17.6233 58.0439 18.0069 57.819 18.3508C57.6007 18.6948 57.2832 18.9659 56.8666 19.1644C56.4499 19.3628 55.9042 19.462 55.2296 19.462Z" fill="#1D1F1B"/>
<path d="M66.3579 19.462C65.2203 19.462 64.3572 19.0883 63.7685 18.3409C63.1865 17.5935 62.8955 16.4824 62.8955 15.0074V13.807C62.8955 12.3056 63.1898 11.1713 63.7785 10.404C64.3671 9.63681 65.2567 9.25319 66.4472 9.25319C67.0293 9.25319 67.5154 9.3491 67.9056 9.54091C68.2959 9.73271 68.6067 10.0039 68.8382 10.3544C69.0763 10.705 69.2417 11.1184 69.3343 11.5946H70.1577L69.4434 13.5589C69.4302 13.1555 69.3508 12.8149 69.2053 12.5371C69.0598 12.2593 68.8547 12.0476 68.5902 11.9021C68.3322 11.75 68.0181 11.6739 67.6477 11.6739C67.0921 11.6739 66.6688 11.836 66.3778 12.1601C66.0868 12.4842 65.9413 12.9703 65.9413 13.6185V15.0173C65.9413 15.6589 66.0868 16.145 66.3778 16.4757C66.6754 16.7998 67.1119 16.9619 67.6874 16.9619C67.9916 16.9619 68.2628 16.9057 68.5009 16.7932C68.7456 16.6808 68.9506 16.5253 69.116 16.3269C69.288 16.1285 69.4136 15.9036 69.493 15.6523L70.2371 17.1206H69.3839C69.2847 17.5571 69.1193 17.954 68.8878 18.3111C68.6563 18.6683 68.3355 18.9494 67.9255 19.1544C67.5154 19.3595 66.9929 19.462 66.3579 19.462ZM69.4037 19.2338L69.493 16.7635L69.4434 16.2476V11.8724L69.4037 9.04485V6.12805H72.4197V19.2338H69.4037Z" fill="#1D1F1B"/>
<path d="M80.0373 19.2338L80.1265 16.7932L80.0571 16.6444V13.5986L80.0373 13.2018C80.0373 12.6594 79.8785 12.2593 79.561 12.0013C79.2436 11.7434 78.7111 11.6144 77.9637 11.6144C77.309 11.6144 76.6872 11.6971 76.0986 11.8624C75.5099 12.0278 74.9544 12.2163 74.4318 12.4279L74.6898 10.0766C75.0007 9.93113 75.3479 9.79555 75.7315 9.66988C76.1217 9.5376 76.5516 9.43177 77.0212 9.3524C77.4908 9.27304 77.9935 9.23335 78.5293 9.23335C79.3825 9.23335 80.0968 9.33256 80.6722 9.53098C81.2476 9.72941 81.7073 10.0105 82.0512 10.3743C82.3952 10.738 82.6432 11.1746 82.7953 11.6839C82.9474 12.1865 83.0235 12.7421 83.0235 13.3506V19.2338H80.0373ZM76.932 19.462C75.9597 19.462 75.2222 19.2173 74.7196 18.7278C74.2169 18.2384 73.9656 17.5406 73.9656 16.6345V16.3666C73.9656 15.4076 74.2599 14.6999 74.8485 14.2435C75.4438 13.7805 76.3863 13.4663 77.676 13.301L80.2952 12.9538L80.4738 14.7792L78.1522 15.1166C77.6827 15.1761 77.3519 15.2852 77.1601 15.444C76.9683 15.6027 76.8724 15.8375 76.8724 16.1483V16.2178C76.8724 16.5154 76.9683 16.7535 77.1601 16.9321C77.3519 17.1041 77.6595 17.1901 78.0828 17.1901C78.4532 17.1901 78.7707 17.1338 79.0352 17.0214C79.3064 16.909 79.528 16.7635 79.6999 16.5849C79.8719 16.3997 80.0009 16.1946 80.0869 15.9698L80.5135 17.2H80.0174C79.9116 17.6233 79.7462 18.0069 79.5214 18.3508C79.3031 18.6948 78.9856 18.9659 78.5689 19.1644C78.1522 19.3628 77.6066 19.462 76.932 19.462Z" fill="#1D1F1B"/>
<path d="M87.8917 13.7574L87.0583 11.912H87.7726C87.9313 11.1051 88.2389 10.4735 88.6953 10.0171C89.1582 9.55413 89.8097 9.32264 90.6497 9.32264C90.7952 9.32264 90.9275 9.33256 91.0466 9.3524C91.1722 9.37225 91.2913 9.3954 91.4037 9.42185L91.5525 12.4875C91.4136 12.4478 91.2516 12.4213 91.0664 12.4081C90.8812 12.3883 90.6927 12.3783 90.5009 12.3783C89.8527 12.3783 89.3071 12.5007 88.8639 12.7454C88.4208 12.9835 88.0967 13.3208 87.8917 13.7574ZM84.9153 19.2338V9.48138H87.7726L87.6436 12.5966L87.9512 12.6363V19.2338H84.9153Z" fill="#1D1F1B"/>
<path d="M49.3213 38.0121C47.7736 38.0121 46.626 37.6053 45.8787 36.7918C45.1313 35.9783 44.7576 34.834 44.7576 33.3591V32.3472C44.7576 30.8987 45.1313 29.7677 45.8787 28.9542C46.626 28.1406 47.7703 27.7339 49.3113 27.7339C49.7082 27.7339 50.0786 27.7636 50.4225 27.8231C50.7664 27.8761 51.0839 27.9521 51.3749 28.0513C51.666 28.1505 51.9206 28.2564 52.1389 28.3688L52.3869 30.8788C52.0628 30.6936 51.7056 30.5415 51.3154 30.4225C50.9252 30.2968 50.4853 30.234 49.9959 30.234C49.2287 30.234 48.6731 30.4192 48.3292 30.7896C47.9852 31.1599 47.8133 31.6957 47.8133 32.3968V33.2401C47.8133 33.9544 47.9951 34.5033 48.3589 34.887C48.7227 35.2706 49.2915 35.4624 50.0653 35.4624C50.5482 35.4624 50.9814 35.4062 51.365 35.2937C51.7552 35.1747 52.1256 35.0225 52.4762 34.8374L52.2381 37.3573C51.8941 37.5425 51.4708 37.6979 50.9682 37.8236C50.4655 37.9493 49.9165 38.0121 49.3213 38.0121Z" fill="#1D1F1B"/>
<path d="M53.9994 37.7542V24.6484H57.0352V37.7542H53.9994Z" fill="#1D1F1B"/>
<path d="M64.6518 37.7542L64.7411 35.3136L64.6717 35.1648V32.119L64.6518 31.7221C64.6518 31.1798 64.4931 30.7796 64.1756 30.5217C63.8581 30.2637 63.3257 30.1348 62.5783 30.1348C61.9235 30.1348 61.3018 30.2174 60.7132 30.3828C60.1245 30.5481 59.5689 30.7366 59.0464 30.9483L59.3044 28.597C59.6152 28.4515 59.9625 28.3159 60.3461 28.1902C60.7363 28.0579 61.1662 27.9521 61.6358 27.8728C62.1054 27.7934 62.6081 27.7537 63.1438 27.7537C63.997 27.7537 64.7113 27.8529 65.2868 28.0513C65.8622 28.2498 66.3219 28.5309 66.6658 28.8946C67.0097 29.2584 67.2578 29.6949 67.4099 30.2042C67.562 30.7069 67.6381 31.2625 67.6381 31.871V37.7542H64.6518ZM61.5465 37.9823C60.5743 37.9823 59.8368 37.7376 59.3341 37.2482C58.8315 36.7587 58.5801 36.061 58.5801 35.1548V34.887C58.5801 33.9279 58.8744 33.2202 59.4631 32.7638C60.0584 32.3009 61.0009 31.9867 62.2906 31.8213L64.9098 31.4741L65.0884 33.2996L62.7668 33.6369C62.2972 33.6964 61.9665 33.8056 61.7747 33.9643C61.5829 34.123 61.487 34.3578 61.487 34.6687V34.7381C61.487 35.0358 61.5829 35.2739 61.7747 35.4525C61.9665 35.6244 62.2741 35.7104 62.6974 35.7104C63.0678 35.7104 63.3852 35.6542 63.6498 35.5418C63.921 35.4293 64.1425 35.2838 64.3145 35.1052C64.4865 34.92 64.6154 34.715 64.7014 34.4901L65.128 35.7203H64.632C64.5262 36.1436 64.3608 36.5272 64.1359 36.8712C63.9177 37.2151 63.6002 37.4863 63.1835 37.6847C62.7668 37.8831 62.2212 37.9823 61.5465 37.9823Z" fill="#1D1F1B"/>
<path d="M72.9829 37.9923C72.2091 37.9923 71.5113 37.9228 70.8896 37.7839C70.2678 37.6516 69.7354 37.4962 69.2923 37.3176L69.0343 34.7679C69.5436 34.9796 70.1058 35.1714 70.7209 35.3433C71.3426 35.5087 72.0139 35.5914 72.7349 35.5914C73.3103 35.5914 73.7171 35.5318 73.9552 35.4128C74.1999 35.2871 74.3222 35.0953 74.3222 34.8374V34.7977C74.3222 34.6191 74.2594 34.4736 74.1337 34.3611C74.0147 34.2421 73.803 34.1363 73.4988 34.0437C73.2012 33.9511 72.7812 33.8419 72.2388 33.7163C71.4253 33.5245 70.7804 33.2996 70.3042 33.0416C69.828 32.7771 69.4874 32.4563 69.2823 32.0793C69.0839 31.6957 68.9847 31.2426 68.9847 30.7201V30.6407C68.9847 29.6751 69.3286 28.9542 70.0165 28.4779C70.7044 27.9951 71.7163 27.7537 73.0523 27.7537C73.8064 27.7537 74.4843 27.8231 75.0862 27.962C75.688 28.1009 76.194 28.2663 76.6041 28.4581L76.862 30.8292C76.3858 30.6176 75.8534 30.4423 75.2647 30.3034C74.6827 30.1645 74.0709 30.0951 73.4293 30.0951C73.0391 30.0951 72.7316 30.1215 72.5067 30.1744C72.2884 30.2274 72.133 30.3034 72.0404 30.4026C71.9544 30.5018 71.9114 30.6242 71.9114 30.7697V30.7995C71.9114 30.9582 71.9643 31.0938 72.0702 31.2062C72.176 31.3187 72.3678 31.4245 72.6456 31.5237C72.93 31.6229 73.3368 31.7354 73.8659 31.861C74.686 32.0396 75.3474 32.2446 75.8501 32.4761C76.3528 32.701 76.7198 32.9953 76.9513 33.3591C77.1828 33.7163 77.2986 34.1925 77.2986 34.7878V34.877C77.2986 35.9287 76.9447 36.7124 76.237 37.2283C75.5293 37.7376 74.4446 37.9923 72.9829 37.9923Z" fill="#1D1F1B"/>
<path d="M85.0235 37.7542V32.0198C85.0235 31.6626 84.9772 31.3551 84.8846 31.0971C84.792 30.8325 84.6366 30.6308 84.4183 30.4919C84.2067 30.353 83.9091 30.2836 83.5254 30.2836C83.2146 30.2836 82.9401 30.3398 82.702 30.4522C82.4639 30.5581 82.2655 30.7069 82.1067 30.8987C81.9546 31.0839 81.8356 31.2955 81.7496 31.5336L81.1345 30.1149H81.8389C81.9381 29.6718 82.1067 29.2749 82.3448 28.9244C82.5829 28.5738 82.9103 28.2961 83.327 28.091C83.7503 27.8794 84.2794 27.7735 84.9144 27.7735C85.6419 27.7735 86.2372 27.9157 86.7002 28.2002C87.1632 28.4779 87.5038 28.8946 87.7221 29.4502C87.9469 30.0058 88.0594 30.7003 88.0594 31.5336V37.7542H85.0235ZM78.7534 37.7542V24.6484H81.7694V27.5652L81.7198 30.7796L81.7893 31.0177V37.7542H78.7534Z" fill="#1D1F1B"/>
<defs>
<clipPath id="clip0_173_31708">
<rect x="4.93872" y="4.93872" width="34.2626" height="34.2626" rx="17.1313" fill="white"/>
</clipPath>
</defs>
</svg>
