<svg width="25" height="20" viewBox="0 0 25 20" fill="none" xmlns="http://www.w3.org/2000/svg">
<g filter="url(#filter0_di_54_41247)">
<path d="M5.2696 10.3114C5.2502 10.1816 5.36067 10.0695 5.49074 10.0869L13.0351 11.098C13.1395 11.112 13.2145 11.2057 13.2053 11.3106L13.046 13.1311C13.0362 13.2433 12.9345 13.3245 12.8228 13.3092L5.71507 12.333C5.62835 12.3211 5.55987 12.2534 5.54693 12.1668L5.2696 10.3114Z" fill="#FF7B01"/>
</g>
<g filter="url(#filter1_di_54_41247)">
<path d="M3.77784 8.69337C3.75844 8.56358 3.86891 8.45142 3.99898 8.46886L11.5434 9.48C11.6478 9.49399 11.7227 9.58761 11.7135 9.69256L11.5543 11.513C11.5444 11.6253 11.4427 11.7065 11.3311 11.6912L4.22331 10.7149C4.13659 10.703 4.06811 10.6354 4.05517 10.5488L3.77784 8.69337Z" fill="#FFA001"/>
</g>
<g filter="url(#filter2_di_54_41247)">
<path d="M2.32661 6.61408C2.30721 6.48429 2.41768 6.37214 2.54775 6.38957L10.0921 7.40072C10.1965 7.41471 10.2715 7.50833 10.2623 7.61327L10.103 9.43376C10.0932 9.54601 9.99147 9.6272 9.87984 9.61187L2.77207 8.63566C2.68535 8.62375 2.61688 8.55608 2.60394 8.46951L2.32661 6.61408Z" fill="#FECC50"/>
</g>
<g filter="url(#filter3_di_54_41247)">
<path d="M20.2568 10.3114C20.2762 10.1816 20.1657 10.0695 20.0356 10.0869L12.4913 11.098C12.3868 11.112 12.3119 11.2057 12.3211 11.3106L12.4803 13.1311C12.4902 13.2433 12.5919 13.3245 12.7035 13.3092L19.8113 12.333C19.898 12.3211 19.9665 12.2534 19.9794 12.1668L20.2568 10.3114Z" fill="#FF7B01"/>
</g>
<g filter="url(#filter4_di_54_41247)">
<path d="M21.7485 8.69337C21.7679 8.56358 21.6575 8.45142 21.5274 8.46886L13.983 9.48C13.8786 9.49399 13.8036 9.58761 13.8128 9.69256L13.9721 11.513C13.9819 11.6253 14.0837 11.7065 14.1953 11.6912L21.3031 10.7149C21.3898 10.703 21.4583 10.6354 21.4712 10.5488L21.7485 8.69337Z" fill="#FFA001"/>
</g>
<g filter="url(#filter5_di_54_41247)">
<path d="M23.1998 6.61408C23.2192 6.48429 23.1087 6.37214 22.9786 6.38957L15.4342 7.40072C15.3298 7.41471 15.2549 7.50833 15.2641 7.61327L15.4233 9.43376C15.4332 9.54601 15.5349 9.6272 15.6465 9.61187L22.7543 8.63566C22.841 8.62375 22.9095 8.55608 22.9224 8.46951L23.1998 6.61408Z" fill="#FECC50"/>
</g>
<g filter="url(#filter6_d_54_41247)">
<mask id="mask0_54_41247" style="mask-type:alpha" maskUnits="userSpaceOnUse" x="10" y="4" width="6" height="6">
<path d="M12.6932 4.44816C12.7702 4.37118 12.895 4.37118 12.972 4.44816L14.2376 5.71379L15.5033 6.97942C15.5802 7.0564 15.5802 7.18121 15.5033 7.25819L14.2376 8.52382L12.972 9.78945C12.895 9.86643 12.7702 9.86643 12.6932 9.78945L11.4276 8.52382L10.162 7.25819C10.085 7.18121 10.085 7.0564 10.162 6.97942L11.4276 5.71379L12.6932 4.44816Z" fill="#C4C4C4"/>
</mask>
<g mask="url(#mask0_54_41247)">
<path d="M12.8326 9.92884V4.30878L10.0226 7.11881L12.8326 9.92884Z" fill="#FFD0F5"/>
<path d="M12.8326 4.30878V9.92884L15.6426 7.11881L12.8326 4.30878Z" fill="#FF97F1"/>
<path d="M18.4527 9.92884L15.6426 7.11881L12.8326 9.92884H18.4527Z" fill="#FFD0F5"/>
<path d="M7.21252 9.92884H12.8326L10.0226 7.11881L7.21252 9.92884Z" fill="#FFD0F5"/>
</g>
</g>
<g filter="url(#filter7_d_54_41247)">
<mask id="mask1_54_41247" style="mask-type:alpha" maskUnits="userSpaceOnUse" x="12" y="7" width="7" height="6">
<path d="M18.3185 9.78429C18.3955 9.86127 18.3955 9.98608 18.3185 10.0631L17.0529 11.3287L15.7872 12.5943C15.7103 12.6713 15.5854 12.6713 15.5085 12.5943L14.2428 11.3287L12.9772 10.0631C12.9002 9.98608 12.9002 9.86127 12.9772 9.78429L14.2428 8.51866L15.5085 7.25303C15.5854 7.17605 15.7103 7.17605 15.7872 7.25303L17.0529 8.51866L18.3185 9.78429Z" fill="#C4C4C4"/>
</mask>
<g mask="url(#mask1_54_41247)">
<path d="M12.8378 9.92365L18.4579 9.92365L15.6479 7.11362L12.8378 9.92365Z" fill="#FFD0F5"/>
<path d="M18.4579 9.92365L12.8378 9.92365L15.6479 12.7337L18.4579 9.92365Z" fill="#FF97F1"/>
<path d="M12.8378 15.5437L15.6479 12.7337L12.8378 9.92365L12.8378 15.5437Z" fill="#FFD0F5"/>
<path d="M12.8378 4.30359L12.8378 9.92365L15.6479 7.11362L12.8378 4.30359Z" fill="#FFD0F5"/>
</g>
</g>
<g filter="url(#filter8_d_54_41247)">
<mask id="mask2_54_41247" style="mask-type:alpha" maskUnits="userSpaceOnUse" x="10" y="10" width="6" height="6">
<path d="M12.9824 15.4096C12.9054 15.4865 12.7806 15.4865 12.7037 15.4096L11.438 14.1439L10.1724 12.8783C10.0954 12.8013 10.0954 12.6765 10.1724 12.5995L11.438 11.3339L12.7037 10.0683C12.7806 9.99129 12.9055 9.99129 12.9824 10.0683L14.2481 11.3339L15.5137 12.5995C15.5907 12.6765 15.5907 12.8013 15.5137 12.8783L14.2481 14.1439L12.9824 15.4096Z" fill="#C4C4C4"/>
</mask>
<g mask="url(#mask2_54_41247)">
<path d="M12.8431 9.92889L12.8431 15.5489L15.6531 12.7389L12.8431 9.92889Z" fill="#FFD0F5"/>
<path d="M12.8431 15.5489L12.8431 9.92889L10.033 12.7389L12.8431 15.5489Z" fill="#FF97F1"/>
<path d="M7.22301 9.92889L10.033 12.7389L12.8431 9.92889L7.22301 9.92889Z" fill="#FFD0F5"/>
<path d="M18.4631 9.92889L12.8431 9.92889L15.6531 12.7389L18.4631 9.92889Z" fill="#FFD0F5"/>
</g>
</g>
<g filter="url(#filter9_d_54_41247)">
<mask id="mask3_54_41247" style="mask-type:alpha" maskUnits="userSpaceOnUse" x="7" y="7" width="6" height="6">
<path d="M7.35716 10.0734C7.28018 9.99645 7.28018 9.87164 7.35716 9.79466L8.62279 8.52903L9.88842 7.2634C9.9654 7.18642 10.0902 7.18642 10.1672 7.2634L11.4328 8.52903L12.6985 9.79466C12.7754 9.87164 12.7754 9.99645 12.6985 10.0734L11.4328 11.3391L10.1672 12.6047C10.0902 12.6817 9.9654 12.6817 9.88842 12.6047L8.62279 11.3391L7.35716 10.0734Z" fill="#C4C4C4"/>
</mask>
<g mask="url(#mask3_54_41247)">
<path d="M12.8378 9.93408L7.21777 9.93408L10.0278 12.7441L12.8378 9.93408Z" fill="#FFD0F5"/>
<path d="M7.21777 9.93408L12.8378 9.93408L10.0278 7.12404L7.21777 9.93408Z" fill="#FF97F1"/>
<path d="M12.8378 4.31401L10.0278 7.12404L12.8378 9.93408L12.8378 4.31401Z" fill="#FFD0F5"/>
<path d="M12.8378 15.5541L12.8378 9.93408L10.0278 12.7441L12.8378 15.5541Z" fill="#FFD0F5"/>
</g>
</g>
<g filter="url(#filter10_d_54_41247)">
<circle cx="12.8378" cy="9.92884" r="4.73091" fill="url(#paint0_linear_54_41247)"/>
<circle cx="12.8379" cy="9.92881" r="4.53379" fill="url(#paint1_linear_54_41247)"/>
<circle cx="12.8378" cy="9.92888" r="3.84386" fill="url(#paint2_linear_54_41247)"/>
<g filter="url(#filter11_i_54_41247)">
<circle cx="12.8378" cy="9.92891" r="3.64674" fill="url(#paint3_radial_54_41247)"/>
<circle cx="12.8378" cy="9.92891" r="3.64674" fill="url(#paint4_radial_54_41247)"/>
</g>
<path d="M12.7795 7.58394C12.8074 7.54269 12.8681 7.54269 12.896 7.58394L14.4532 9.88953C14.4692 9.91329 14.4692 9.94441 14.4532 9.96817L12.896 12.2738C12.8681 12.315 12.8074 12.315 12.7795 12.2738L11.2223 9.96817C11.2063 9.94441 11.2063 9.91329 11.2223 9.88953L12.7795 7.58394Z" fill="#7B33D1" fill-opacity="0.49"/>
<path d="M12.8378 7.90302L11.4856 9.92894H12.2583L12.8378 9.01727V7.90302Z" fill="url(#paint5_linear_54_41247)"/>
<path d="M14.1901 9.92894L12.8378 7.90302V9.01727L13.4174 9.92894H14.1901Z" fill="url(#paint6_linear_54_41247)"/>
<path d="M12.8378 11.9549L14.1901 9.92894H13.4174L12.8378 10.8406V11.9549Z" fill="url(#paint7_linear_54_41247)"/>
<path d="M11.4856 9.92894L12.8378 11.9549V10.8406L12.2583 9.92894H11.4856Z" fill="url(#paint8_linear_54_41247)"/>
<path d="M13.4174 9.92894L12.8378 9.01727L12.2583 9.92894L12.8378 10.8406L13.4174 9.92894Z" fill="white"/>
</g>
<defs>
<filter id="filter0_di_54_41247" x="4.87315" y="9.98652" width="8.72714" height="4.113" filterUnits="userSpaceOnUse" color-interpolation-filters="sRGB">
<feFlood flood-opacity="0" result="BackgroundImageFix"/>
<feColorMatrix in="SourceAlpha" type="matrix" values="0 0 0 0 0 0 0 0 0 0 0 0 0 0 0 0 0 0 127 0" result="hardAlpha"/>
<feOffset dy="0.394242"/>
<feGaussianBlur stdDeviation="0.197121"/>
<feColorMatrix type="matrix" values="0 0 0 0 0 0 0 0 0 0 0 0 0 0 0 0 0 0 0.08 0"/>
<feBlend mode="normal" in2="BackgroundImageFix" result="effect1_dropShadow_54_41247"/>
<feBlend mode="normal" in="SourceGraphic" in2="effect1_dropShadow_54_41247" result="shape"/>
<feColorMatrix in="SourceAlpha" type="matrix" values="0 0 0 0 0 0 0 0 0 0 0 0 0 0 0 0 0 0 127 0" result="hardAlpha"/>
<feOffset dx="0.394242" dy="-0.788485"/>
<feGaussianBlur stdDeviation="0.0492803"/>
<feComposite in2="hardAlpha" operator="arithmetic" k2="-1" k3="1"/>
<feColorMatrix type="matrix" values="0 0 0 0 0 0 0 0 0 0 0 0 0 0 0 0 0 0 0.11 0"/>
<feBlend mode="overlay" in2="shape" result="effect2_innerShadow_54_41247"/>
</filter>
<filter id="filter1_di_54_41247" x="3.38139" y="8.36848" width="8.72714" height="4.113" filterUnits="userSpaceOnUse" color-interpolation-filters="sRGB">
<feFlood flood-opacity="0" result="BackgroundImageFix"/>
<feColorMatrix in="SourceAlpha" type="matrix" values="0 0 0 0 0 0 0 0 0 0 0 0 0 0 0 0 0 0 127 0" result="hardAlpha"/>
<feOffset dy="0.394242"/>
<feGaussianBlur stdDeviation="0.197121"/>
<feColorMatrix type="matrix" values="0 0 0 0 0 0 0 0 0 0 0 0 0 0 0 0 0 0 0.08 0"/>
<feBlend mode="normal" in2="BackgroundImageFix" result="effect1_dropShadow_54_41247"/>
<feBlend mode="normal" in="SourceGraphic" in2="effect1_dropShadow_54_41247" result="shape"/>
<feColorMatrix in="SourceAlpha" type="matrix" values="0 0 0 0 0 0 0 0 0 0 0 0 0 0 0 0 0 0 127 0" result="hardAlpha"/>
<feOffset dx="0.394242" dy="-0.788485"/>
<feGaussianBlur stdDeviation="0.0492803"/>
<feComposite in2="hardAlpha" operator="arithmetic" k2="-1" k3="1"/>
<feColorMatrix type="matrix" values="0 0 0 0 0 0 0 0 0 0 0 0 0 0 0 0 0 0 0.19 0"/>
<feBlend mode="overlay" in2="shape" result="effect2_innerShadow_54_41247"/>
</filter>
<filter id="filter2_di_54_41247" x="1.93016" y="6.2892" width="8.72714" height="4.113" filterUnits="userSpaceOnUse" color-interpolation-filters="sRGB">
<feFlood flood-opacity="0" result="BackgroundImageFix"/>
<feColorMatrix in="SourceAlpha" type="matrix" values="0 0 0 0 0 0 0 0 0 0 0 0 0 0 0 0 0 0 127 0" result="hardAlpha"/>
<feOffset dy="0.394242"/>
<feGaussianBlur stdDeviation="0.197121"/>
<feColorMatrix type="matrix" values="0 0 0 0 0 0 0 0 0 0 0 0 0 0 0 0 0 0 0.08 0"/>
<feBlend mode="normal" in2="BackgroundImageFix" result="effect1_dropShadow_54_41247"/>
<feBlend mode="normal" in="SourceGraphic" in2="effect1_dropShadow_54_41247" result="shape"/>
<feColorMatrix in="SourceAlpha" type="matrix" values="0 0 0 0 0 0 0 0 0 0 0 0 0 0 0 0 0 0 127 0" result="hardAlpha"/>
<feOffset dx="0.394242" dy="-0.788485"/>
<feGaussianBlur stdDeviation="0.0492803"/>
<feComposite in2="hardAlpha" operator="arithmetic" k2="-1" k3="1"/>
<feColorMatrix type="matrix" values="0 0 0 0 0 0 0 0 0 0 0 0 0 0 0 0 0 0 0.42 0"/>
<feBlend mode="overlay" in2="shape" result="effect2_innerShadow_54_41247"/>
</filter>
<filter id="filter3_di_54_41247" x="11.9261" y="9.98652" width="8.72714" height="4.113" filterUnits="userSpaceOnUse" color-interpolation-filters="sRGB">
<feFlood flood-opacity="0" result="BackgroundImageFix"/>
<feColorMatrix in="SourceAlpha" type="matrix" values="0 0 0 0 0 0 0 0 0 0 0 0 0 0 0 0 0 0 127 0" result="hardAlpha"/>
<feOffset dy="0.394242"/>
<feGaussianBlur stdDeviation="0.197121"/>
<feColorMatrix type="matrix" values="0 0 0 0 0 0 0 0 0 0 0 0 0 0 0 0 0 0 0.08 0"/>
<feBlend mode="normal" in2="BackgroundImageFix" result="effect1_dropShadow_54_41247"/>
<feBlend mode="normal" in="SourceGraphic" in2="effect1_dropShadow_54_41247" result="shape"/>
<feColorMatrix in="SourceAlpha" type="matrix" values="0 0 0 0 0 0 0 0 0 0 0 0 0 0 0 0 0 0 127 0" result="hardAlpha"/>
<feOffset dx="-0.394242" dy="-0.788485"/>
<feGaussianBlur stdDeviation="0.0492803"/>
<feComposite in2="hardAlpha" operator="arithmetic" k2="-1" k3="1"/>
<feColorMatrix type="matrix" values="0 0 0 0 0 0 0 0 0 0 0 0 0 0 0 0 0 0 0.11 0"/>
<feBlend mode="overlay" in2="shape" result="effect2_innerShadow_54_41247"/>
</filter>
<filter id="filter4_di_54_41247" x="13.4178" y="8.36848" width="8.72714" height="4.113" filterUnits="userSpaceOnUse" color-interpolation-filters="sRGB">
<feFlood flood-opacity="0" result="BackgroundImageFix"/>
<feColorMatrix in="SourceAlpha" type="matrix" values="0 0 0 0 0 0 0 0 0 0 0 0 0 0 0 0 0 0 127 0" result="hardAlpha"/>
<feOffset dy="0.394242"/>
<feGaussianBlur stdDeviation="0.197121"/>
<feColorMatrix type="matrix" values="0 0 0 0 0 0 0 0 0 0 0 0 0 0 0 0 0 0 0.08 0"/>
<feBlend mode="normal" in2="BackgroundImageFix" result="effect1_dropShadow_54_41247"/>
<feBlend mode="normal" in="SourceGraphic" in2="effect1_dropShadow_54_41247" result="shape"/>
<feColorMatrix in="SourceAlpha" type="matrix" values="0 0 0 0 0 0 0 0 0 0 0 0 0 0 0 0 0 0 127 0" result="hardAlpha"/>
<feOffset dx="-0.394242" dy="-0.788485"/>
<feGaussianBlur stdDeviation="0.0492803"/>
<feComposite in2="hardAlpha" operator="arithmetic" k2="-1" k3="1"/>
<feColorMatrix type="matrix" values="0 0 0 0 0 0 0 0 0 0 0 0 0 0 0 0 0 0 0.19 0"/>
<feBlend mode="overlay" in2="shape" result="effect2_innerShadow_54_41247"/>
</filter>
<filter id="filter5_di_54_41247" x="14.8691" y="6.2892" width="8.72714" height="4.113" filterUnits="userSpaceOnUse" color-interpolation-filters="sRGB">
<feFlood flood-opacity="0" result="BackgroundImageFix"/>
<feColorMatrix in="SourceAlpha" type="matrix" values="0 0 0 0 0 0 0 0 0 0 0 0 0 0 0 0 0 0 127 0" result="hardAlpha"/>
<feOffset dy="0.394242"/>
<feGaussianBlur stdDeviation="0.197121"/>
<feColorMatrix type="matrix" values="0 0 0 0 0 0 0 0 0 0 0 0 0 0 0 0 0 0 0.08 0"/>
<feBlend mode="normal" in2="BackgroundImageFix" result="effect1_dropShadow_54_41247"/>
<feBlend mode="normal" in="SourceGraphic" in2="effect1_dropShadow_54_41247" result="shape"/>
<feColorMatrix in="SourceAlpha" type="matrix" values="0 0 0 0 0 0 0 0 0 0 0 0 0 0 0 0 0 0 127 0" result="hardAlpha"/>
<feOffset dx="-0.394242" dy="-0.788485"/>
<feGaussianBlur stdDeviation="0.0492803"/>
<feComposite in2="hardAlpha" operator="arithmetic" k2="-1" k3="1"/>
<feColorMatrix type="matrix" values="0 0 0 0 0 0 0 0 0 0 0 0 0 0 0 0 0 0 0.42 0"/>
<feBlend mode="overlay" in2="shape" result="effect2_innerShadow_54_41247"/>
</filter>
<filter id="filter6_d_54_41247" x="9.31576" y="3.60196" width="7.0337" height="7.0337" filterUnits="userSpaceOnUse" color-interpolation-filters="sRGB">
<feFlood flood-opacity="0" result="BackgroundImageFix"/>
<feColorMatrix in="SourceAlpha" type="matrix" values="0 0 0 0 0 0 0 0 0 0 0 0 0 0 0 0 0 0 127 0" result="hardAlpha"/>
<feOffset/>
<feGaussianBlur stdDeviation="0.394242"/>
<feColorMatrix type="matrix" values="0 0 0 0 0 0 0 0 0 0 0 0 0 0 0 0 0 0 0.2 0"/>
<feBlend mode="normal" in2="BackgroundImageFix" result="effect1_dropShadow_54_41247"/>
<feBlend mode="normal" in="SourceGraphic" in2="effect1_dropShadow_54_41247" result="shape"/>
</filter>
<filter id="filter7_d_54_41247" x="12.131" y="6.40683" width="7.0337" height="7.0337" filterUnits="userSpaceOnUse" color-interpolation-filters="sRGB">
<feFlood flood-opacity="0" result="BackgroundImageFix"/>
<feColorMatrix in="SourceAlpha" type="matrix" values="0 0 0 0 0 0 0 0 0 0 0 0 0 0 0 0 0 0 127 0" result="hardAlpha"/>
<feOffset/>
<feGaussianBlur stdDeviation="0.394242"/>
<feColorMatrix type="matrix" values="0 0 0 0 0 0 0 0 0 0 0 0 0 0 0 0 0 0 0.2 0"/>
<feBlend mode="normal" in2="BackgroundImageFix" result="effect1_dropShadow_54_41247"/>
<feBlend mode="normal" in="SourceGraphic" in2="effect1_dropShadow_54_41247" result="shape"/>
</filter>
<filter id="filter8_d_54_41247" x="9.3262" y="9.22207" width="7.0337" height="7.0337" filterUnits="userSpaceOnUse" color-interpolation-filters="sRGB">
<feFlood flood-opacity="0" result="BackgroundImageFix"/>
<feColorMatrix in="SourceAlpha" type="matrix" values="0 0 0 0 0 0 0 0 0 0 0 0 0 0 0 0 0 0 127 0" result="hardAlpha"/>
<feOffset/>
<feGaussianBlur stdDeviation="0.394242"/>
<feColorMatrix type="matrix" values="0 0 0 0 0 0 0 0 0 0 0 0 0 0 0 0 0 0 0.2 0"/>
<feBlend mode="normal" in2="BackgroundImageFix" result="effect1_dropShadow_54_41247"/>
<feBlend mode="normal" in="SourceGraphic" in2="effect1_dropShadow_54_41247" result="shape"/>
</filter>
<filter id="filter9_d_54_41247" x="6.51095" y="6.4172" width="7.0337" height="7.0337" filterUnits="userSpaceOnUse" color-interpolation-filters="sRGB">
<feFlood flood-opacity="0" result="BackgroundImageFix"/>
<feColorMatrix in="SourceAlpha" type="matrix" values="0 0 0 0 0 0 0 0 0 0 0 0 0 0 0 0 0 0 127 0" result="hardAlpha"/>
<feOffset/>
<feGaussianBlur stdDeviation="0.394242"/>
<feColorMatrix type="matrix" values="0 0 0 0 0 0 0 0 0 0 0 0 0 0 0 0 0 0 0.2 0"/>
<feBlend mode="normal" in2="BackgroundImageFix" result="effect1_dropShadow_54_41247"/>
<feBlend mode="normal" in="SourceGraphic" in2="effect1_dropShadow_54_41247" result="shape"/>
</filter>
<filter id="filter10_d_54_41247" x="6.98286" y="4.07392" width="11.7098" height="11.7098" filterUnits="userSpaceOnUse" color-interpolation-filters="sRGB">
<feFlood flood-opacity="0" result="BackgroundImageFix"/>
<feColorMatrix in="SourceAlpha" type="matrix" values="0 0 0 0 0 0 0 0 0 0 0 0 0 0 0 0 0 0 127 0" result="hardAlpha"/>
<feOffset/>
<feGaussianBlur stdDeviation="0.562006"/>
<feColorMatrix type="matrix" values="0 0 0 0 0 0 0 0 0 0 0 0 0 0 0 0 0 0 0.15 0"/>
<feBlend mode="normal" in2="BackgroundImageFix" result="effect1_dropShadow_54_41247"/>
<feBlend mode="normal" in="SourceGraphic" in2="effect1_dropShadow_54_41247" result="shape"/>
</filter>
<filter id="filter11_i_54_41247" x="9.1911" y="6.28217" width="7.29346" height="7.43396" filterUnits="userSpaceOnUse" color-interpolation-filters="sRGB">
<feFlood flood-opacity="0" result="BackgroundImageFix"/>
<feBlend mode="normal" in="SourceGraphic" in2="BackgroundImageFix" result="shape"/>
<feColorMatrix in="SourceAlpha" type="matrix" values="0 0 0 0 0 0 0 0 0 0 0 0 0 0 0 0 0 0 127 0" result="hardAlpha"/>
<feOffset dy="0.140502"/>
<feGaussianBlur stdDeviation="0.351254"/>
<feComposite in2="hardAlpha" operator="arithmetic" k2="-1" k3="1"/>
<feColorMatrix type="matrix" values="0 0 0 0 0 0 0 0 0 0 0 0 0 0 0 0 0 0 0.8 0"/>
<feBlend mode="overlay" in2="shape" result="effect1_innerShadow_54_41247"/>
</filter>
<linearGradient id="paint0_linear_54_41247" x1="12.8378" y1="5.19794" x2="12.8378" y2="14.6598" gradientUnits="userSpaceOnUse">
<stop stop-color="#FFEB3A"/>
<stop offset="1" stop-color="#FA7002"/>
</linearGradient>
<linearGradient id="paint1_linear_54_41247" x1="12.8379" y1="5.39502" x2="12.8379" y2="14.4626" gradientUnits="userSpaceOnUse">
<stop stop-color="#FFDE66"/>
<stop offset="1" stop-color="#FB9811"/>
</linearGradient>
<linearGradient id="paint2_linear_54_41247" x1="12.8378" y1="6.08502" x2="12.8378" y2="13.7727" gradientUnits="userSpaceOnUse">
<stop stop-color="#FFAD31"/>
<stop offset="1" stop-color="#FFD446"/>
</linearGradient>
<radialGradient id="paint3_radial_54_41247" cx="0" cy="0" r="1" gradientUnits="userSpaceOnUse" gradientTransform="translate(11.6873 8.20711) rotate(53.514) scale(5.49522 6.99318)">
<stop stop-color="#ED7CFF"/>
<stop offset="1" stop-color="#6E31E2"/>
</radialGradient>
<radialGradient id="paint4_radial_54_41247" cx="0" cy="0" r="1" gradientUnits="userSpaceOnUse" gradientTransform="translate(11.3651 7.88496) rotate(51.3402) scale(0.884065 1.76998)">
<stop stop-color="white" stop-opacity="0.6"/>
<stop offset="1" stop-color="white" stop-opacity="0"/>
</radialGradient>
<linearGradient id="paint5_linear_54_41247" x1="11.956" y1="9.18749" x2="12.4562" y2="9.54966" gradientUnits="userSpaceOnUse">
<stop stop-color="#FFD2F6"/>
<stop offset="1" stop-color="#FFEEFC"/>
</linearGradient>
<linearGradient id="paint6_linear_54_41247" x1="13.1209" y1="9.27966" x2="13.9505" y2="8.94359" gradientUnits="userSpaceOnUse">
<stop stop-color="#FFC2F1"/>
<stop offset="1" stop-color="#FFCDF4"/>
</linearGradient>
<linearGradient id="paint7_linear_54_41247" x1="13.0238" y1="10.3856" x2="13.4136" y2="11.0489" gradientUnits="userSpaceOnUse">
<stop stop-color="#FF88EF"/>
<stop offset="1" stop-color="#E962D6"/>
</linearGradient>
<linearGradient id="paint8_linear_54_41247" x1="12.5061" y1="10.2013" x2="12.5353" y2="11.3073" gradientUnits="userSpaceOnUse">
<stop stop-color="#FFCDF4"/>
<stop offset="1" stop-color="#FF97E8"/>
</linearGradient>
</defs>
</svg>
