<svg width="45" height="46" viewBox="0 0 45 46" fill="none" xmlns="http://www.w3.org/2000/svg">
<path d="M42.4915 21.5096H40.1459V16.803H37.785V14.4575H35.4394V12.1119H33.0784V9.75094H30.7328V7.40538H28.3873V5.05982H23.6807V2.69883H16.6286V0.353271H2.52441V5.05982H16.6286V7.40538H23.6807V9.75094H28.3873V12.1119H30.7328V14.4575H33.0784V16.803H35.4394V21.5096H37.785V28.5617H40.1459V42.6814H44.8371V28.5617H42.4915V21.5096Z" fill="#DAFE9A"/>
<path d="M2.52441 9.75098V14.4575H14.2676V16.8031H18.9742V19.1641H23.6807V21.5096H26.0263V26.2162H28.3873V30.9227H30.7328V42.6814H35.4394V30.9227H33.0784V26.2162H30.7328V21.5096H28.3873V19.1641H26.0263V16.8031H23.6807V14.4575H18.9742V12.112H14.2676V9.75098H2.52441Z" fill="#DAFE9A"/>
<path d="M2.52441 23.8706H11.9221V26.2162H16.6286V28.5617H18.9742V33.2683H21.3352V42.6814H26.0263V33.2683H23.6807V28.5617H21.3352V26.2162H18.9742V23.8706H16.6286V21.5096H11.9221V19.1641H2.52441V23.8706Z" fill="#DAFE9A"/>
<path d="M2.52432 35.6139H0.16333V42.6814H2.52432V45.027H9.57643V42.6814H11.922V35.6139H9.57643V33.2683H2.52432V35.6139Z" fill="#DAFE9A"/>
</svg>
