<svg width="122" height="121" viewBox="0 0 122 121" fill="none" xmlns="http://www.w3.org/2000/svg">
<g clip-path="url(#clip0_31_9464)">
<rect x="4.34741" y="3.67004" width="113.317" height="113.317" rx="56.6585" fill="#DAFE9A"/>
<path d="M18.0575 44.4481H22.3521V48.7428H18.0575V44.4481Z" fill="black"/>
<path d="M22.3538 40.1539H26.6485V44.4486L22.3521 44.4481L22.3538 40.1539Z" fill="black"/>
<path d="M22.3538 35.8586H26.6485V40.1539H22.3538V35.8586Z" fill="black"/>
<path d="M26.648 31.5644H30.9427V35.8591L26.6485 35.8586L26.648 31.5644Z" fill="black"/>
<path d="M30.9422 27.2692H35.2369V31.5638L30.9427 31.5644L30.9422 27.2692Z" fill="black"/>
<path d="M35.2364 22.975H39.5311V27.2696L35.2369 27.2692L35.2364 22.975Z" fill="black"/>
<path d="M39.5311 22.975H43.8253V27.2696H39.5311V22.975Z" fill="black"/>
<path d="M43.827 18.6808H48.1217V22.9754L43.8253 22.975L43.827 18.6808Z" fill="black"/>
<path d="M39.5306 100.279H43.8253V104.574H39.5306V100.279Z" fill="black"/>
<path d="M48.1217 18.6808H52.4159V22.9754H48.1217V18.6808Z" fill="black"/>
<path d="M52.4159 18.6808H56.7101V22.9754H52.4159V18.6808Z" fill="black"/>
<path d="M56.7101 18.6808H61.0043V22.9754H56.7101V18.6808Z" fill="black"/>
<path d="M61.0043 18.6808H65.2985V22.9754H61.0043V18.6808Z" fill="black"/>
<path d="M61.0038 100.279H65.2985V104.574H61.0038V100.279Z" fill="black"/>
<path d="M65.2985 18.6808H69.5948V22.9754H65.2985V18.6808Z" fill="black"/>
<path d="M65.2985 100.279H69.5948V104.574H65.2985V100.279Z" fill="black"/>
<path d="M69.5948 18.6808H73.8891V22.9754H69.5948V18.6808Z" fill="black"/>
<path d="M69.5948 100.279H73.8891V104.574H69.5948V100.279Z" fill="black"/>
<path d="M73.8891 18.6808H78.1833V22.9754H73.8891V18.6808Z" fill="black"/>
<path d="M78.1828 100.279H82.4775V104.574H78.1828V100.279Z" fill="black"/>
<path d="M78.1833 22.9754L82.4775 22.975V27.2696H78.1828L78.1833 22.9754Z" fill="black"/>
<path d="M82.4775 22.975H86.7738V27.2696H82.4775V22.975Z" fill="black"/>
<path d="M18.0575 48.7428H22.3521V53.0381H18.0575V48.7428Z" fill="black"/>
<path d="M18.0575 53.0381H22.3521V57.3323H18.0575V53.0381Z" fill="black"/>
<path d="M18.0575 57.3323H22.3521V61.6276H18.0575V57.3323Z" fill="black"/>
<path d="M18.0575 61.6276H22.3521V65.9218H18.0575V61.6276Z" fill="black"/>
<path d="M18.0575 65.9218H22.3521V70.216H18.0575V65.9218Z" fill="black"/>
<path d="M18.0575 70.216H22.3521V74.5113H18.0575V70.216Z" fill="black"/>
<path d="M18.0575 74.5113H22.3521V78.8055H18.0575V74.5113Z" fill="black"/>
<path d="M22.3521 78.8055L26.6485 78.8061V83.1007H22.3538L22.3521 78.8055Z" fill="black"/>
<path d="M22.3538 83.1007H26.6485V87.3949H22.3538V83.1007Z" fill="black"/>
<path d="M26.6485 87.3949L30.9427 87.3955V91.6902H26.648L26.6485 87.3949Z" fill="black"/>
<path d="M30.9427 91.6902L35.2369 91.6898V95.9844H30.9422L30.9427 91.6902Z" fill="black"/>
<path d="M35.2369 95.9844L39.5311 95.984L39.5306 100.279L35.2364 100.279L35.2369 95.9844Z" fill="black"/>
<path d="M82.4792 95.984H86.7738V100.279L82.4775 100.279L82.4792 95.984Z" fill="black"/>
<path d="M99.656 74.5108H103.951V78.8055H99.656V74.5108Z" fill="black"/>
<path d="M95.3618 83.1003H99.6564V87.3949H95.3618V83.1003Z" fill="black"/>
<path d="M91.0676 87.3955L95.3618 87.3949L95.3622 91.6902H91.0676V87.3955Z" fill="black"/>
<path d="M86.7733 91.6898L91.0676 91.6902L91.068 95.9844L86.7738 95.984L86.7733 91.6898Z" fill="black"/>
<path d="M99.656 44.4481H103.951V48.7428H99.656V44.4481Z" fill="black"/>
<path d="M99.656 48.7428H103.951V53.0381H99.656V48.7428Z" fill="black"/>
<path d="M99.656 53.0381H103.951V57.3323H99.656V53.0381Z" fill="black"/>
<path d="M99.656 57.3323H103.951V61.6276H99.656V57.3323Z" fill="black"/>
<path d="M95.3618 78.8061L99.656 78.8055L99.6564 83.1003H95.3618V78.8061Z" fill="black"/>
<path d="M99.656 57.3323H103.951V61.6276H99.656V57.3323Z" fill="black"/>
<path d="M95.3618 40.1539H99.6564L99.656 44.4481L95.3618 44.4486V40.1539Z" fill="black"/>
<path d="M95.3618 35.8586H99.6564V40.1539H95.3618V35.8586Z" fill="black"/>
<path d="M86.7738 27.2696L91.068 27.2692V31.5638H86.7733L86.7738 27.2696Z" fill="black"/>
<path d="M91.068 31.5638L95.3622 31.5644L95.3618 35.8586L91.0676 35.8591L91.068 31.5638Z" fill="black"/>
<path d="M99.656 70.2166H103.951V74.5108H99.656V70.2166Z" fill="black"/>
<path d="M99.656 65.9213H103.951V70.2166H99.656V65.9213Z" fill="black"/>
<path d="M99.656 61.6276H103.951V65.9213H99.656V61.6276Z" fill="black"/>
<path d="M39.5306 104.574H43.8253V108.868L39.5311 108.869L39.5306 104.574Z" fill="black"/>
<path d="M82.4775 104.574L86.7738 104.573V108.868H82.4792L82.4775 104.574Z" fill="black"/>
<path d="M2.45881 38.469H8.31332V44.3235H2.45881V38.469Z" fill="black"/>
<path d="M8.31562 32.6151H14.1701V38.4696L8.31332 38.469L8.31562 32.6151Z" fill="black"/>
<path d="M8.31562 26.7598H14.1701V32.6151H8.31562V26.7598Z" fill="black"/>
<path d="M14.1695 20.9059H20.024V26.7604L14.1701 26.7598L14.1695 20.9059Z" fill="black"/>
<path d="M20.0233 15.0506H25.8779V20.9051L20.024 20.9059L20.0233 15.0506Z" fill="black"/>
<path d="M25.8772 9.1967H31.7317V15.0512L25.8779 15.0506L25.8772 9.1967Z" fill="black"/>
<path d="M31.7317 9.1967H37.5856V15.0512H31.7317V9.1967Z" fill="black"/>
<path d="M37.5879 3.34283H43.4424V9.19734L37.5856 9.1967L37.5879 3.34283Z" fill="black"/>
<path d="M31.7311 114.578H37.5856V120.433H31.7311V114.578Z" fill="black"/>
<path d="M43.4424 3.34283H49.2963V9.19734H43.4424V3.34283Z" fill="black"/>
<path d="M49.2963 3.34283H55.1501V9.19734H49.2963V3.34283Z" fill="black"/>
<path d="M55.1501 3.34283H61.004V9.19734H55.1501V3.34283Z" fill="black"/>
<path d="M61.004 3.34283H66.8578V9.19734H61.004V3.34283Z" fill="black"/>
<path d="M61.0033 114.578H66.8578V120.433H61.0033V114.578Z" fill="black"/>
<path d="M66.8578 3.34283H72.7147V9.19734H66.8578V3.34283Z" fill="black"/>
<path d="M66.8578 114.578H72.7147V120.433H66.8578V114.578Z" fill="black"/>
<path d="M72.7147 3.34283H78.5685V9.19734H72.7147V3.34283Z" fill="black"/>
<path d="M72.7147 114.578H78.5685V120.433H72.7147V114.578Z" fill="black"/>
<path d="M78.5685 3.34283H84.4224V9.19734H78.5685V3.34283Z" fill="black"/>
<path d="M84.4218 114.578H90.2763V120.433H84.4218V114.578Z" fill="black"/>
<path d="M84.4224 9.19734L90.2763 9.1967V15.0512H84.4218L84.4224 9.19734Z" fill="black"/>
<path d="M90.2763 9.1967H96.1331V15.0512H90.2763V9.1967Z" fill="black"/>
<path d="M2.45881 44.3235H8.31332V50.1788H2.45881V44.3235Z" fill="black"/>
<path d="M2.45881 50.1788H8.31332V56.0327H2.45881V50.1788Z" fill="black"/>
<path d="M2.45881 56.0327H8.31332V61.888H2.45881V56.0327Z" fill="black"/>
<path d="M2.45881 61.888H8.31332V67.7419H2.45881V61.888Z" fill="black"/>
<path d="M2.45881 67.7419H8.31332V73.5957H2.45881V67.7419Z" fill="black"/>
<path d="M2.45881 73.5957H8.31332V79.4511H2.45881V73.5957Z" fill="black"/>
<path d="M2.45881 79.4511H8.31332V85.3049H2.45881V79.4511Z" fill="black"/>
<path d="M8.31332 85.3049L14.1701 85.3058V91.1603H8.31562L8.31332 85.3049Z" fill="black"/>
<path d="M8.31562 91.1603H14.1701V97.0141H8.31562V91.1603Z" fill="black"/>
<path d="M14.1701 97.0141L20.024 97.015V102.869H14.1695L14.1701 97.0141Z" fill="black"/>
<path d="M20.024 102.869L25.8779 102.869V108.723H20.0233L20.024 102.869Z" fill="black"/>
<path d="M25.8779 108.723L31.7317 108.723L31.7311 114.578L25.8772 114.577L25.8779 108.723Z" fill="black"/>
<path d="M90.2786 108.723H96.1331V114.577L90.2763 114.578L90.2786 108.723Z" fill="black"/>
<path d="M113.694 79.4504H119.549V85.3049H113.694V79.4504Z" fill="black"/>
<path d="M107.84 91.1596H113.695V97.0141H107.84V91.1596Z" fill="black"/>
<path d="M101.986 97.015L107.84 97.0141L107.841 102.869H101.986V97.015Z" fill="black"/>
<path d="M96.1324 102.869L101.986 102.869L101.987 108.723L96.1331 108.723L96.1324 102.869Z" fill="black"/>
<path d="M113.694 38.469H119.549V44.3235H113.694V38.469Z" fill="black"/>
<path d="M113.694 44.3235H119.549V50.1788H113.694V44.3235Z" fill="black"/>
<path d="M113.694 50.1788H119.549V56.0327H113.694V50.1788Z" fill="black"/>
<path d="M113.694 56.0327H119.549V61.888H113.694V56.0327Z" fill="black"/>
<path d="M107.84 85.3058L113.694 85.3049L113.695 91.1596H107.84V85.3058Z" fill="black"/>
<path d="M113.694 56.0327H119.549V61.888H113.694V56.0327Z" fill="black"/>
<path d="M107.84 32.6151H113.695L113.694 38.469L107.84 38.4696V32.6151Z" fill="black"/>
<path d="M107.84 26.7598H113.695V32.6151H107.84V26.7598Z" fill="black"/>
<path d="M96.1331 15.0512L101.987 15.0506V20.9051H96.1324L96.1331 15.0512Z" fill="black"/>
<path d="M101.987 20.9051L107.841 20.9059L107.84 26.7598L101.986 26.7604L101.987 20.9051Z" fill="black"/>
<path d="M113.694 73.5966H119.549V79.4504H113.694V73.5966Z" fill="black"/>
<path d="M113.694 67.7412H119.549V73.5966H113.694V67.7412Z" fill="black"/>
<path d="M113.694 61.888H119.549V67.7412H113.694V61.888Z" fill="black"/>
<path d="M25.8772 126.287H31.7317V132.142H25.8772V126.287Z" fill="black"/>
<path d="M31.7311 120.433H37.5856V126.286L31.7317 126.287L31.7311 120.433Z" fill="black"/>
<path d="M90.2763 120.433L96.1331 120.432V126.286H90.2786L90.2763 120.433Z" fill="black"/>
<path d="M96.1331 120.432H101.987V126.286H96.1331V120.432Z" fill="black"/>
<path d="M101.987 126.286L107.841 126.287V132.142H101.986L101.987 126.286Z" fill="black"/>
<path d="M107.841 126.287H113.695V132.142H107.841V126.287Z" fill="black"/>
<path d="M119.551 137.996H125.405V143.851H119.551V137.996Z" fill="black"/>
<path d="M125.405 143.851L131.259 143.85V149.705H125.405L125.405 143.851Z" fill="black"/>
<path d="M131.259 149.705L137.113 149.706V155.56H131.259L131.259 149.705Z" fill="black"/>
<path d="M113.695 132.142L119.549 132.141L119.551 137.996L113.694 137.996L113.695 132.142Z" fill="black"/>
<path d="M20.0233 126.287H25.8772V132.142H20.0233V126.287Z" fill="black"/>
<path d="M14.1695 132.141L20.0233 132.142L20.024 137.996H14.1695V132.141Z" fill="black"/>
<path d="M2.45881 137.996H8.31332V143.851H2.45881V137.996Z" fill="black"/>
<path d="M-3.39505 143.85L2.45881 143.851L2.45946 149.705H-3.39505V143.85Z" fill="black"/>
<path d="M2.45881 137.996H8.31332V143.851H2.45881V137.996Z" fill="black"/>
<path d="M8.31562 132.141H14.1695V137.996L8.31332 137.996L8.31562 132.141Z" fill="black"/>
<path d="M-9.24892 149.706L-3.39505 149.705L-3.39441 155.56H-9.24892V149.706Z" fill="black"/>
<path d="M-15.1028 149.706H-9.24892V155.56H-15.1028V149.706Z" fill="black"/>
<path d="M22.3522 44.4481H18.0575V48.7428M22.3522 44.4481V48.7428M22.3522 44.4481L26.6485 44.4486V40.1539M22.3522 44.4481L22.3538 40.1539M22.3522 48.7428H18.0575M22.3522 48.7428V53.0381M18.0575 48.7428V53.0381M22.3538 40.1539H26.6485M22.3538 40.1539V35.8586H26.6485M26.6485 40.1539V35.8586M26.6485 35.8586L30.9427 35.8591V31.5644M26.6485 35.8586L26.648 31.5644H30.9427M30.9427 31.5644L35.2369 31.5638V27.2692M30.9427 31.5644L30.9422 27.2692H35.2369M35.2369 27.2692L39.5311 27.2696M35.2369 27.2692L35.2364 22.975H39.5311M39.5311 22.975V27.2696M39.5311 22.975H43.8253M39.5311 27.2696H43.8253V22.975M43.8253 22.975L48.1217 22.9754M43.8253 22.975L43.827 18.6808H48.1217M48.1217 18.6808V22.9754M48.1217 18.6808H52.4159M48.1217 22.9754H52.4159M39.5306 100.279H43.8253V104.574M39.5306 100.279V104.574M39.5306 100.279L39.5311 95.984L35.2369 95.9844M39.5306 100.279L35.2364 100.279L35.2369 95.9844M43.8253 104.574H39.5306M43.8253 104.574V108.868L39.5311 108.869L39.5306 104.574M52.4159 18.6808V22.9754M52.4159 18.6808H56.7101M52.4159 22.9754H56.7101M56.7101 18.6808V22.9754M56.7101 18.6808H61.0043M56.7101 22.9754H61.0043M61.0043 18.6808V22.9754M61.0043 18.6808H65.2985M61.0043 22.9754H65.2985M65.2985 18.6808V22.9754M65.2985 18.6808H69.5949M65.2985 22.9754H69.5949M65.2985 100.279H61.0038V104.574H65.2985M65.2985 100.279V104.574M65.2985 100.279H69.5949M65.2985 104.574H69.5949M69.5949 18.6808V22.9754M69.5949 18.6808H73.8891M69.5949 22.9754H73.8891M69.5949 100.279V104.574M69.5949 100.279H73.8891V104.574H69.5949M73.8891 18.6808V22.9754M73.8891 18.6808H78.1833V22.9754M73.8891 22.9754H78.1833M78.1833 22.9754L82.4775 22.975M78.1833 22.9754L78.1828 27.2696H82.4775M82.4775 100.279H78.1828V104.574H82.4775M82.4775 100.279V104.574M82.4775 100.279L86.7738 100.279V95.984M82.4775 100.279L82.4792 95.984H86.7738M82.4775 104.574L86.7738 104.573V108.868H82.4792L82.4775 104.574ZM82.4775 22.975V27.2696M82.4775 22.975H86.7738V27.2696M82.4775 27.2696H86.7738M86.7738 27.2696L91.068 27.2692V31.5638M86.7738 27.2696L86.7733 31.5638H91.068M22.3522 53.0381H18.0575M22.3522 53.0381V57.3323M18.0575 53.0381V57.3323M22.3522 57.3323H18.0575M22.3522 57.3323V61.6276M18.0575 57.3323V61.6276M22.3522 61.6276H18.0575M22.3522 61.6276V65.9218M18.0575 61.6276V65.9218M22.3522 65.9218H18.0575M22.3522 65.9218V70.216M18.0575 65.9218V70.216M22.3522 70.216H18.0575M22.3522 70.216V74.5113M18.0575 70.216V74.5113M22.3522 74.5113H18.0575M22.3522 74.5113V78.8055M18.0575 74.5113V78.8055H22.3522M22.3522 78.8055L26.6485 78.8061V83.1007M22.3522 78.8055L22.3538 83.1007M26.6485 83.1007H22.3538M26.6485 83.1007V87.3949M22.3538 83.1007V87.3949H26.6485M26.6485 87.3949L30.9427 87.3955V91.6902M26.6485 87.3949L26.648 91.6902H30.9427M30.9427 91.6902L35.2369 91.6897V95.9844M30.9427 91.6902L30.9422 95.9844H35.2369M86.7738 95.984L91.068 95.9844L91.0676 91.6902M86.7738 95.984L86.7733 91.6897L91.0676 91.6902M99.656 74.5108H103.951M99.656 74.5108V78.8055M99.656 74.5108V70.2166M103.951 74.5108V78.8055H99.656M103.951 74.5108V70.2166M99.656 78.8055L95.3618 78.8061V83.1003M99.656 78.8055L99.6564 83.1003M95.3618 83.1003H99.6564M95.3618 83.1003V87.3949M99.6564 83.1003V87.3949H95.3618M95.3618 87.3949L91.0676 87.3955V91.6902M95.3618 87.3949L95.3622 91.6902H91.0676M99.656 44.4481H103.951V48.7428M99.656 44.4481V48.7428M99.656 44.4481L99.6564 40.1539M99.656 44.4481L95.3618 44.4486V40.1539M103.951 48.7428H99.656M103.951 48.7428V53.0381M99.656 48.7428V53.0381M103.951 53.0381H99.656M103.951 53.0381V57.3323M99.656 53.0381V57.3323M103.951 57.3323H99.656M103.951 57.3323V61.6276M99.656 57.3323V61.6276M103.951 61.6276H99.656M103.951 61.6276V65.9213M99.656 61.6276V65.9213M95.3618 40.1539H99.6564M95.3618 40.1539V35.8586M99.6564 40.1539V35.8586H95.3618M95.3618 35.8586L95.3622 31.5644L91.068 31.5638M95.3618 35.8586L91.0676 35.8591L91.068 31.5638M99.656 70.2166H103.951M99.656 70.2166V65.9213M103.951 70.2166V65.9213M99.656 65.9213H103.951M8.31332 38.469H2.45881V44.3235M8.31332 38.469V44.3235M8.31332 38.469L14.1701 38.4696V32.6151M8.31332 38.469L8.31562 32.6151M8.31332 44.3235H2.45881M8.31332 44.3235V50.1788M2.45881 44.3235V50.1788M8.31562 32.6151H14.1701M8.31562 32.6151V26.7598H14.1701M14.1701 32.6151V26.7598M14.1701 26.7598L20.024 26.7604V20.9059M14.1701 26.7598L14.1695 20.9059H20.024M20.024 20.9059L25.8779 20.9051V15.0506M20.024 20.9059L20.0234 15.0506H25.8779M25.8779 15.0506L31.7317 15.0512M25.8779 15.0506L25.8772 9.1967H31.7317M31.7317 9.1967V15.0512M31.7317 9.1967H37.5856M31.7317 15.0512H37.5856V9.1967M37.5856 9.1967L43.4424 9.19734M37.5856 9.1967L37.5879 3.34283H43.4424M43.4424 3.34283V9.19734M43.4424 3.34283H49.2963M43.4424 9.19734H49.2963M31.7311 114.578H37.5856V120.433M31.7311 114.578V120.433M31.7311 114.578L31.7317 108.723L25.8779 108.723M31.7311 114.578L25.8772 114.577L25.8779 108.723M37.5856 120.433H31.7311M37.5856 120.433V126.286L31.7317 126.287M31.7311 120.433L31.7317 126.287M49.2963 3.34283V9.19734M49.2963 3.34283H55.1501M49.2963 9.19734H55.1501M55.1501 3.34283V9.19734M55.1501 3.34283H61.004M55.1501 9.19734H61.004M61.004 3.34283V9.19734M61.004 3.34283H66.8578M61.004 9.19734H66.8578M66.8578 3.34283V9.19734M66.8578 3.34283H72.7147M66.8578 9.19734H72.7147M66.8578 114.578H61.0033V120.433H66.8578M66.8578 114.578V120.433M66.8578 114.578H72.7147M66.8578 120.433H72.7147M72.7147 3.34283V9.19734M72.7147 3.34283H78.5685M72.7147 9.19734H78.5685M72.7147 114.578V120.433M72.7147 114.578H78.5685V120.433H72.7147M78.5685 3.34283V9.19734M78.5685 3.34283H84.4224V9.19734M78.5685 9.19734H84.4224M84.4224 9.19734L90.2763 9.1967M84.4224 9.19734L84.4218 15.0512H90.2763M90.2763 114.578H84.4218V120.433H90.2763M90.2763 114.578V120.433M90.2763 114.578L96.1331 114.577V108.723M90.2763 114.578L90.2786 108.723H96.1331M90.2763 120.433L96.1331 120.432M90.2763 120.433L90.2786 126.286H96.1331M90.2763 9.1967V15.0512M90.2763 9.1967H96.1331V15.0512M90.2763 15.0512H96.1331M96.1331 15.0512L101.987 15.0506V20.9051M96.1331 15.0512L96.1324 20.9051H101.987M8.31332 50.1788H2.45881M8.31332 50.1788V56.0327M2.45881 50.1788V56.0327M8.31332 56.0327H2.45881M8.31332 56.0327V61.888M2.45881 56.0327V61.888M8.31332 61.888H2.45881M8.31332 61.888V67.7419M2.45881 61.888V67.7419M8.31332 67.7419H2.45881M8.31332 67.7419V73.5957M2.45881 67.7419V73.5957M8.31332 73.5957H2.45881M8.31332 73.5957V79.4511M2.45881 73.5957V79.4511M8.31332 79.4511H2.45881M8.31332 79.4511V85.3049M2.45881 79.4511V85.3049H8.31332M8.31332 85.3049L14.1701 85.3058V91.1603M8.31332 85.3049L8.31562 91.1603M14.1701 91.1603H8.31562M14.1701 91.1603V97.0141M8.31562 91.1603V97.0141H14.1701M14.1701 97.0141L20.024 97.015V102.869M14.1701 97.0141L14.1695 102.869H20.024M20.024 102.869L25.8779 102.869V108.723M20.024 102.869L20.0234 108.723H25.8779M96.1331 108.723L101.987 108.723L101.986 102.869M96.1331 108.723L96.1324 102.869L101.986 102.869M113.694 79.4504H119.549M113.694 79.4504V85.3049M113.694 79.4504V73.5966M119.549 79.4504V85.3049H113.694M119.549 79.4504V73.5966M113.694 85.3049L107.84 85.3058V91.1596M113.694 85.3049L113.695 91.1596M107.84 91.1596H113.695M107.84 91.1596V97.0141M113.695 91.1596V97.0141H107.84M107.84 97.0141L101.986 97.015V102.869M107.84 97.0141L107.841 102.869H101.986M113.694 38.469H119.549V44.3235M113.694 38.469V44.3235M113.694 38.469L113.695 32.6151M113.694 38.469L107.84 38.4696V32.6151M119.549 44.3235H113.694M119.549 44.3235V50.1788M113.694 44.3235V50.1788M119.549 50.1788H113.694M119.549 50.1788V56.0327M113.694 50.1788V56.0327M119.549 56.0327H113.694M119.549 56.0327V61.888M113.694 56.0327V61.888M119.549 61.888H113.694M119.549 61.888V67.7412M113.694 61.888V67.7412M107.84 32.6151H113.695M107.84 32.6151V26.7598M113.695 32.6151V26.7598H107.84M107.84 26.7598L107.841 20.9059L101.987 20.9051M107.84 26.7598L101.986 26.7604L101.987 20.9051M113.694 73.5966H119.549M113.694 73.5966V67.7412M119.549 73.5966V67.7412M113.694 67.7412H119.549M25.8772 126.287H31.7317M25.8772 126.287V132.142M25.8772 126.287H20.0234V132.142M31.7317 126.287V132.142H25.8772M25.8772 132.142H20.0234M96.1331 120.432V126.286M96.1331 120.432H101.987V126.286M96.1331 126.286H101.987M101.987 126.286L107.841 126.287M101.987 126.286L101.986 132.142H107.841M107.841 126.287V132.142M107.841 126.287H113.695V132.142M107.841 132.142H113.695M113.695 132.142L119.549 132.141L119.551 137.996M113.695 132.142L113.694 137.996L119.551 137.996M119.551 137.996H125.405V143.851M119.551 137.996V143.851H125.405M125.405 143.851L131.259 143.85V149.705M125.405 143.851L125.405 149.705H131.259M131.259 149.705L137.113 149.706V155.56H131.259L131.259 149.705ZM20.0234 132.142L14.1695 132.141M20.0234 132.142L20.024 137.996H14.1695M14.1695 132.141V137.996M14.1695 132.141H8.31562L8.31332 137.996M14.1695 137.996L8.31332 137.996M8.31332 137.996H2.45881V143.851M8.31332 137.996V143.851H2.45881M2.45881 143.851L-3.39505 143.85V149.705M2.45881 143.851L2.45946 149.705H-3.39505M-3.39505 149.705L-9.24892 149.706M-3.39505 149.705L-3.39441 155.56H-9.24892M-9.24892 149.706V155.56M-9.24892 149.706H-15.1028V155.56H-9.24892" stroke="black" stroke-width="1.204"/>
<path d="M37.9165 78.7297V47.0944H44.833L45.4945 52.0261H45.9155C46.3165 50.9836 46.8377 50.0414 47.4793 49.1994C48.1208 48.3173 48.9227 47.6156 49.885 47.0944C50.8473 46.5731 51.97 46.3125 53.253 46.3125C53.9346 46.3125 54.5561 46.3927 55.1175 46.5531C55.6788 46.6734 56.0998 46.7936 56.3805 46.9139V54.492H53.7943C52.5513 54.492 51.4487 54.6724 50.4864 55.0333C49.5642 55.354 48.7824 55.8753 48.1408 56.597C47.4993 57.3187 47.0182 58.2008 46.6974 59.2433C46.4167 60.2858 46.2764 61.5087 46.2764 62.912V78.7297H37.9165Z" fill="black"/>
<path d="M74.0696 79.4514C70.7016 79.4514 67.8748 78.87 65.5894 77.7072C63.304 76.5044 61.5598 74.68 60.357 72.2342C59.1942 69.7483 58.6128 66.6409 58.6128 62.912C58.6128 59.1029 59.1942 55.9955 60.357 53.5898C61.5598 51.144 63.304 49.3197 65.5894 48.1168C67.9149 46.9139 70.7417 46.3125 74.0696 46.3125C76.2347 46.3125 78.1794 46.5731 79.9035 47.0944C81.6677 47.6156 83.1913 48.4175 84.4744 49.5001C85.7574 50.5827 86.7197 51.9259 87.3612 53.5297C88.0429 55.0934 88.3837 56.9578 88.3837 59.123H80.0238C80.0238 57.6796 79.8032 56.4967 79.3622 55.5745C78.9211 54.6524 78.2395 53.9507 77.3173 53.4695C76.4352 52.9884 75.3126 52.7478 73.9493 52.7478C72.3455 52.7478 71.0424 53.1087 70.04 53.8304C69.0376 54.5521 68.2959 55.6146 67.8147 57.018C67.3336 58.4213 67.093 60.1655 67.093 62.2504V63.6337C67.093 65.6786 67.3336 67.4027 67.8147 68.806C68.3359 70.2094 69.1178 71.2719 70.1603 71.9936C71.2028 72.6753 72.566 73.0161 74.25 73.0161C75.6133 73.0161 76.7359 72.7755 77.618 72.2943C78.5402 71.8132 79.2419 71.0915 79.7231 70.1292C80.2042 69.1669 80.4448 68.0041 80.4448 66.6409H88.3837C88.3837 68.6858 88.0429 70.5101 87.3612 72.1139C86.7197 73.7177 85.7574 75.0609 84.4744 76.1435C83.2314 77.2261 81.7278 78.048 79.9636 78.6094C78.1994 79.1707 76.2347 79.4514 74.0696 79.4514Z" fill="black"/>
</g>
<rect x="2.51249" y="1.83512" width="116.987" height="116.987" rx="58.4934" stroke="#141413" stroke-width="3.66985"/>
<defs>
<clipPath id="clip0_31_9464">
<rect x="4.34741" y="3.67004" width="113.317" height="113.317" rx="56.6585" fill="white"/>
</clipPath>
</defs>
</svg>
